<svg width="47" height="48" viewBox="0 0 47 48" fill="none" xmlns="http://www.w3.org/2000/svg">
<path fill-rule="evenodd" clip-rule="evenodd" d="M47 24.4752C47 26.7085 46.7022 28.9419 46.1067 30.9768C44.9155 35.1457 42.5829 38.8184 39.5058 41.6969C37.3221 43.7318 34.6917 45.3696 31.8131 46.4614C29.2323 47.454 26.4034 48 23.4752 48C23.0781 48 22.6315 48 22.2344 47.9504C21.6389 47.9007 20.9937 47.8511 20.3981 47.8015C15.8817 47.2059 11.7128 45.3199 8.38754 42.491C7.14678 41.4488 6.00528 40.2576 4.96304 38.9672C4.21859 37.9746 3.52376 36.982 2.92819 35.8902C2.7793 35.642 2.63041 35.3442 2.48152 35.0961C2.48152 35.0961 2.48152 35.0961 2.48152 35.0464C2.33263 34.7487 2.18373 34.5005 2.08447 34.2027C1.68743 33.3094 1.34001 32.3664 1.04223 31.4234C0.843705 30.7286 0.645195 30.0338 0.496304 29.3389C0.397043 28.8426 0.297783 28.3463 0.248152 27.8004C0.0992608 26.7085 0 25.6167 0 24.4752C0 23.83 -9.08908e-06 23.1848 0.0992518 22.5396C0.148882 22.1425 0.198522 21.7455 0.248152 21.3485C0.545935 19.0158 1.19112 16.8321 2.1341 14.7972C2.58078 13.8046 3.12672 12.812 3.72228 11.9187C4.71489 10.3801 5.85639 8.94085 7.19641 7.65046C11.415 3.53114 17.2218 0.999985 23.5744 0.999985C23.8226 0.999985 24.0708 0.999985 24.3189 0.999985C24.5671 0.999985 24.8648 0.999984 25.113 1.04961C26.453 1.14888 27.793 1.3474 29.0834 1.64518C29.8279 1.8437 30.5723 2.04222 31.2672 2.29037C31.7635 2.43927 32.2101 2.63779 32.7064 2.83631C33.0539 2.9852 33.4013 3.13409 33.7487 3.28298C33.7983 3.33261 33.8479 3.33261 33.9472 3.38224C36.2302 4.47411 38.3147 5.96303 40.1014 7.74972C40.3495 7.99787 40.5977 8.24602 40.8458 8.54381C40.9947 8.74233 41.1932 8.89122 41.3421 9.08974C41.6399 9.38752 41.8881 9.73494 42.1362 10.0327C43.0792 11.2238 43.8733 12.5142 44.5681 13.8543C45.3622 15.4424 46.0074 17.1299 46.4541 18.8669C46.7518 20.604 47 22.49 47 24.4752Z" fill="url(#paint0_radial_132_206)"/>
<path fill-rule="evenodd" clip-rule="evenodd" d="M33.7983 3.33302C33.699 3.33302 33.6494 3.33302 33.5502 3.38265C33.302 3.43228 33.0538 3.38265 32.8057 3.33302C32.6072 3.28339 32.5079 3.18413 32.2598 3.18413C31.962 3.1345 31.7138 3.03524 31.416 2.98561C31.1183 2.93598 30.8701 2.83672 30.5723 2.73746C30.3242 2.6382 30.2249 2.68783 30.0264 2.73746C29.8279 2.78709 29.679 2.68783 29.4805 2.6382C29.2819 2.53894 29.0338 2.53894 28.8353 2.48931C28.2397 2.39004 27.6441 2.19152 27.0486 2.04263C26.7012 1.94337 26.3537 1.94337 25.9567 1.94337C25.6589 1.94337 25.4108 2.04263 25.113 2.04263C24.9145 2.04263 24.7656 1.993 24.5671 1.993C24.3685 1.94337 24.17 1.993 23.9715 1.993C23.6737 1.94337 23.5248 1.89374 23.227 1.993C22.9789 2.04263 22.83 2.04263 22.5818 2.09226C22.3337 2.09226 22.0359 2.19152 21.7878 2.24115C21.3411 2.34041 20.8448 2.43967 20.3981 2.43967C20.1003 2.43967 19.7033 2.34041 19.4551 2.43967C19.3062 2.4893 19.207 2.68783 19.0581 2.78709C18.8099 3.03524 18.5618 3.23376 18.3633 3.48191C18.1647 3.73007 17.9662 4.02785 17.9662 4.37526C17.9662 4.67304 18.1151 5.02046 18.264 5.26861C18.4129 5.56639 18.4625 5.81454 18.1647 6.01306C17.8173 6.26122 17.3706 6.45974 16.9736 6.60863C16.6758 6.70789 16.4277 6.75752 16.2291 6.559C16.1299 6.50937 16.0802 6.36048 15.981 6.26122C15.8817 6.21159 15.7328 6.26122 15.6336 6.31085C15.3358 6.41011 15.038 6.50937 14.7402 6.559C14.5417 6.60863 14.3928 6.70789 14.1943 6.70789C13.9958 6.75752 13.8469 6.60863 13.5987 6.65826C13.301 6.70789 12.9535 6.85678 12.6558 6.85678C12.4076 6.85678 12.1098 6.75752 11.9113 6.65826C11.812 6.60863 11.7624 6.50937 11.6135 6.559C11.5143 6.559 11.3654 6.70789 11.3157 6.80715C11.2165 6.90641 11.2165 7.05531 11.1172 7.15457C11.018 7.30346 10.9683 7.40272 10.8691 7.55161C10.7202 7.79976 10.5713 8.04791 10.4224 8.29606C10.3231 8.44495 10.2239 8.69311 10.075 8.842C10.0253 8.94126 9.87644 8.99089 9.77718 9.04052C9.52903 9.18941 9.28088 9.38793 9.03273 9.53682C8.58605 9.88424 8.13939 10.2813 7.69272 10.6287C7.3453 10.8768 6.849 11.0257 6.45195 11.2243C6.2038 11.3235 5.95565 11.4228 5.7075 11.522C5.60824 11.5717 5.45934 11.5717 5.40971 11.6709C5.31045 11.7702 5.26082 11.8695 5.21119 12.0183C5.01267 12.2665 4.76451 12.5643 4.61562 12.8621C4.51636 13.0606 4.46673 13.2095 4.36747 13.408C4.26821 13.6561 4.11932 13.9043 4.06969 14.2021C3.87116 14.748 3.87117 15.3436 3.62301 15.8895C3.52375 16.1873 3.32524 16.4851 3.17634 16.7829C2.92819 17.2792 2.87856 17.8747 2.82892 18.4207C2.77929 18.7185 2.82893 19.1155 2.87856 19.4133C2.92819 19.7607 2.92819 20.1081 2.92819 20.4555C2.92819 20.8029 2.68004 21.2 2.48152 21.4481C2.283 21.6963 1.93558 21.7955 1.68743 22.0437C1.48891 22.2422 1.24075 22.4407 1.14149 22.7385C1.09186 22.8378 1.14149 22.9867 1.14149 23.1356C1.09186 23.4333 0.992608 23.6815 0.992608 23.9793C0.942978 24.3267 0.942975 24.6741 0.942975 25.0711C0.942975 25.2697 0.942975 25.4186 0.942975 25.6171C0.942975 25.8156 0.992596 25.9645 1.04223 26.1134C1.04223 26.2126 1.04223 26.3615 1.04223 26.4608C1.04223 26.6097 1.14149 26.7586 1.14149 26.8578C1.24075 27.2053 1.29038 27.503 1.34001 27.8504C1.38964 28.1482 1.53853 28.446 1.58816 28.7438C1.73706 29.1408 1.78669 29.5379 1.88595 29.9846C1.93558 30.2823 1.93559 30.6298 1.98522 30.9275C2.03485 31.1757 2.08447 31.4238 2.08447 31.672C2.08447 32.069 1.98522 32.4164 1.98522 32.8135C1.98522 33.4587 2.23336 34.1039 2.38225 34.7491C2.43188 34.9476 2.48151 35.0965 2.53114 35.295C0.893336 32.1187 0 28.4956 0 24.6741C0 20.0088 1.34002 15.691 3.67265 12.068C4.66526 10.5294 5.80676 9.09015 7.14678 7.84939C11.3654 3.73006 17.1721 1.19891 23.5248 1.19891C24.0211 1.19891 24.5671 1.19891 25.0634 1.24855C28.1404 1.19891 31.1183 1.993 33.7983 3.33302Z" fill="url(#paint1_linear_132_206)"/>
<path opacity="0.1" fill-rule="evenodd" clip-rule="evenodd" d="M24.9648 35.4936C24.9648 35.4936 27.1486 38.7196 30.0768 41.35C33.005 43.9804 33.402 45.7671 33.402 45.7671C33.402 45.7671 38.911 43.4841 42.8318 38.0247C46.7526 32.615 24.9648 35.4936 24.9648 35.4936Z" fill="black" fill-opacity="0.5"/>
<path opacity="0.4" fill-rule="evenodd" clip-rule="evenodd" d="M28.9339 1.59588C27.6435 1.2981 26.3531 1.09958 24.9635 1.00032C24.7153 1.00032 24.4175 0.950684 24.1694 0.950684C24.7153 1.24847 25.2613 1.7944 25.3605 2.38997C25.559 3.38257 25.9065 4.27592 26.0554 5.2189C26.2539 6.16188 26.2042 7.35301 25.7576 8.19673C25.5094 8.74266 25.162 9.18933 24.7153 9.63601C24.4175 9.93379 24.1198 10.1323 23.9212 10.5294C23.7227 10.9264 23.4746 11.2738 23.2264 11.6212C22.879 12.1672 22.482 12.7131 22.0353 13.2094C21.8864 13.4079 21.7375 13.5072 21.5886 13.7057C21.4397 13.9539 21.3404 14.202 21.1419 14.4005C20.6953 14.8472 20.0501 15.145 19.5041 15.3435C18.7597 15.6413 18.1145 15.9391 17.4196 16.3361C16.427 16.882 15.5833 17.5272 14.4418 17.5769C14.0448 17.5769 13.6477 17.5272 13.2507 17.5769C12.7544 17.6265 12.3077 17.825 11.861 17.9243C11.464 18.0235 11.0173 18.0732 10.6203 18.1724C9.92546 18.2717 9.37952 18.5199 8.73432 18.6687C7.89061 18.8673 6.99726 18.8176 6.10392 18.9665C5.30983 19.0658 4.66463 19.165 3.87055 18.9665C2.67942 18.6687 2.03422 18.1228 2.28237 16.8324C2.43126 15.9887 2.38164 15.3435 1.9846 14.7479C1.04162 16.7828 0.396415 19.0162 0.0986328 21.2992C0.644567 21.5473 1.28976 21.6466 1.8357 21.6962C3.57276 21.8947 5.45872 21.1006 7.04689 20.5051C7.84098 20.2073 8.6847 19.7606 9.57805 19.6614C10.521 19.5621 11.3151 19.6614 12.2581 19.4628C15.4344 18.6687 18.5611 17.5769 21.4397 15.8894C22.6308 15.1946 23.1271 14.202 23.9709 13.2094C24.6657 12.316 25.5094 11.6212 26.3531 10.8768C27.1968 10.1323 27.9413 9.43749 28.4376 8.44488C28.9835 7.40264 29.4302 6.21151 29.6784 5.07001C29.9265 3.77962 29.5791 2.58849 28.9339 1.59588ZM28.785 4.77223C28.7354 5.02038 28.6858 5.31816 28.6361 5.56631C28.4376 6.21151 28.0406 6.85671 27.445 7.15449C27.1968 7.30338 26.7998 7.20412 26.6509 6.95597C26.5516 6.80707 26.5517 6.60855 26.5517 6.45966C26.502 6.11225 26.4524 5.81447 26.4524 5.46705C26.4524 4.67297 26.4524 3.87888 26.3531 3.08479C26.4524 3.53147 26.3531 2.38997 27.048 2.09218C27.3954 1.94329 27.8917 2.09218 28.1398 2.34033C28.4376 2.68775 28.5369 3.23368 28.6361 3.63073C28.7354 4.0774 28.8347 4.37518 28.785 4.77223Z" fill="url(#paint2_linear_132_206)" fill-opacity="0.5"/>
<path opacity="0.4" fill-rule="evenodd" clip-rule="evenodd" d="M25.361 42.3423C25.3114 42.3423 25.2121 42.3919 25.1625 42.3919L25.6091 42.4415C25.6091 42.3919 25.5099 42.3423 25.361 42.3423ZM25.361 42.3423C25.3114 42.3423 25.2121 42.3919 25.1625 42.3919L25.6091 42.4415C25.6091 42.3919 25.5099 42.3423 25.361 42.3423ZM46.305 18.7678C46.305 19.3634 46.1065 20.0086 46.1065 20.6042C46.1065 21.4479 45.9576 22.0931 45.7591 22.8871C45.6102 23.4331 45.3124 23.8301 45.1635 24.3761C44.965 24.9716 44.6672 25.5176 44.3694 26.0635C43.7739 27.1554 43.1287 28.2969 42.8805 29.5376C42.6324 30.6791 42.5827 31.6221 42.0368 32.6643C41.4909 33.6569 40.6968 34.5007 40.1012 35.4933C39.8531 35.94 39.6546 35.94 39.2079 36.2377C38.7612 36.5851 38.3145 37.0815 37.8679 37.4289C36.9249 38.1733 36.0315 38.7193 34.8404 39.1659C34.0959 39.4637 33.4011 39.6622 32.607 39.7615C32.1107 39.8608 31.6144 39.7615 31.1181 39.8608C30.324 40.0096 29.5796 40.2082 28.7855 40.4563C27.5447 40.8534 26.2543 41.1015 25.0136 41.4986C24.1202 41.7467 23.2765 41.9452 22.3832 42.0941C21.8372 42.1934 21.3906 42.4912 20.8446 42.3919C20.2987 42.2926 19.7527 42.0941 19.2068 41.8956C18.512 41.6971 17.9164 41.6475 17.172 41.6475C16.1794 41.6475 14.9882 41.7963 13.946 41.5978C12.8045 41.3993 11.7126 41.0519 10.5711 40.8534C9.8763 40.7045 9.37999 40.4067 8.73479 40.1585C8.13923 39.8608 7.54367 39.8111 6.89847 39.6126C6.25328 39.4141 5.60809 39.1163 4.96289 38.9674C5.9555 40.2578 7.097 41.4489 8.38739 42.4912C11.7126 45.3201 15.8319 47.2061 20.3979 47.8016C20.9935 47.8513 21.5891 47.9505 22.2343 47.9505C23.5743 47.6527 24.8647 47.2557 26.2047 46.8586C28.4381 46.1638 30.3737 44.8238 32.607 44.1786C33.4507 43.9304 34.1952 43.6823 34.9397 43.2853C35.5352 42.9875 36.1308 42.9378 36.6767 42.6897C38.7612 41.7963 40.2997 39.8111 41.2427 37.8259C41.6398 36.9326 42.0368 35.94 42.8309 35.2451C43.1287 34.9473 43.5257 34.7488 43.7739 34.4014C44.0717 34.054 44.2702 33.657 44.568 33.2599C45.0643 32.6147 45.5109 31.9199 45.9576 31.2747C46.0072 31.1754 46.0569 31.1258 46.1065 31.0265C46.7021 28.9421 46.9998 26.7583 46.9998 24.525C46.9998 22.4901 46.7517 20.6041 46.305 18.7678ZM24.7158 42.4912C24.8151 42.4415 24.9143 42.3423 25.0136 42.2927C25.1128 42.243 25.2617 42.2926 25.361 42.3423C25.5595 42.2926 25.7084 42.2926 25.8573 42.3919C25.9565 42.4415 26.1054 42.5408 26.1551 42.6401C26.2047 42.7393 26.1551 42.789 26.0558 42.8882C25.9566 42.9875 25.9069 42.9875 25.758 42.9875C25.5099 43.0371 25.2617 43.0867 24.9639 43.0371C24.8151 43.0371 24.5669 42.9875 24.4676 42.8882C24.4676 42.6897 24.6165 42.5904 24.7158 42.4912ZM26.2543 45.5683C26.1054 45.7668 25.9566 45.9653 25.758 46.0646C25.5595 46.2134 25.361 46.2631 25.2121 46.412C24.7158 46.6601 24.2195 46.9579 23.7232 47.1068C23.5247 47.1564 23.2765 47.1564 23.078 47.1564C22.8298 47.2061 22.5321 47.2061 22.2839 47.2061C21.9861 47.2061 21.6387 47.2557 21.3409 47.3053C21.0431 47.3053 20.6957 47.355 20.3979 47.355C19.852 47.4046 19.4053 47.3053 18.909 47.1068C18.4624 46.9579 18.0157 46.7098 17.6186 46.4616C17.3209 46.2631 17.0727 46.0149 16.8742 45.7668C16.626 45.5683 16.4771 45.3201 16.3283 45.0223C16.2786 44.9231 16.229 44.8238 16.2786 44.6749C16.2786 44.6253 16.3283 44.5756 16.3283 44.5756C16.4275 44.526 16.5268 44.4268 16.5764 44.4268C16.7253 44.3275 16.9238 44.3275 17.1223 44.2779C17.569 44.2282 18.0157 44.2779 18.4624 44.3275C18.7105 44.3275 18.9587 44.3771 19.2068 44.3275C19.5542 44.2779 19.9016 44.1786 20.1994 44.0793C20.9935 43.8808 21.7876 43.6823 22.5817 43.6327C23.3758 43.5334 24.2691 43.4341 25.0632 43.583C25.361 43.6327 25.758 43.7319 26.0062 43.8808C26.2047 44.0297 26.3536 44.2282 26.4529 44.4268C26.6017 44.8238 26.5025 45.2208 26.2543 45.5683ZM32.5078 43.5334C32.3589 43.6823 32.1604 43.7816 31.9618 43.9304C31.7137 44.129 31.4655 44.2282 31.2174 44.3771C31.0189 44.526 30.7707 44.6253 30.5722 44.7245C30.324 44.8238 30.1255 44.9231 29.8774 45.0719C29.6292 45.1712 29.381 45.2705 29.1329 45.3697C28.9344 45.4194 28.7359 45.5186 28.5373 45.469C28.3884 45.4194 28.1899 45.3697 28.0907 45.2705C27.8921 45.072 27.9418 44.8734 27.9914 44.7742C27.9914 44.6253 27.9418 44.3771 27.9914 44.1786C28.041 44.0793 28.1403 43.9304 28.1899 43.8312C28.3884 43.4341 28.6862 43.186 28.984 42.8882C29.2322 42.6401 29.5299 42.4415 29.8774 42.2927C30.2744 42.1438 30.7707 42.0941 31.1677 42.0445C31.6144 41.9949 32.4085 41.9452 32.6567 42.4912C32.8056 42.8386 32.7559 43.186 32.5078 43.5334ZM25.6588 42.3919C25.6091 42.3919 25.5099 42.3423 25.4106 42.2927C25.361 42.2927 25.2617 42.3423 25.2121 42.3423L25.6588 42.3919Z" fill="url(#paint3_linear_132_206)" fill-opacity="0.5"/>
<path opacity="0.4" fill-rule="evenodd" clip-rule="evenodd" d="M44.419 13.7552V13.8545C44.3694 14.4997 44.1212 14.9464 43.873 15.5419C43.6745 16.0382 43.476 16.4353 43.2278 16.882C42.8308 17.6264 42.6323 18.3212 42.3345 19.165C41.8382 20.4057 41.6397 21.7457 40.8952 22.8872C40.25 23.9295 40.0515 25.1702 39.5552 26.2621C38.9596 27.5029 38.0166 28.3466 37.024 29.2399C36.5774 29.637 36.1803 30.1333 35.7833 30.58C35.3366 31.0266 35.0388 31.6222 34.4929 32.0192C33.401 32.8133 32.1603 33.5081 31.0684 34.3519C30.4232 34.8482 29.9765 35.543 29.2321 35.94C28.5372 36.3867 27.7432 36.6845 27.0483 37.0815C26.4031 37.4786 25.7579 37.8756 25.0631 38.1734C24.269 38.4712 23.6238 38.3719 22.7801 38.4216C21.8868 38.4712 20.9438 38.7193 20.1001 39.0171C19.4052 39.2653 18.8097 39.5134 18.0652 39.2653C17.5689 39.1164 17.1719 38.769 16.6756 38.6697C15.4844 38.4216 14.194 38.6697 13.0029 38.6201C12.0599 38.5705 11.0673 38.3719 10.1244 38.1734C9.23101 38.0245 8.48655 37.3793 7.64283 37.1312C6.55097 36.8334 5.3102 37.0815 4.31759 36.6845C3.87092 36.5356 3.47388 36.1882 3.12646 35.94C3.0272 35.8904 2.97757 35.8408 2.87831 35.7911C2.72942 35.543 2.58053 35.2452 2.43164 34.9971C2.67979 35.0963 2.92794 35.1956 3.1761 35.3445C4.51612 35.9897 6.20355 35.8904 7.64283 36.1386C9.28064 36.4363 10.9184 36.8334 12.5562 37.0319C13.2511 37.1312 13.8963 37.0815 14.5911 37.0319C15.5341 36.9326 16.477 36.9326 17.42 36.7838C19.0082 36.486 20.5964 35.7415 22.2342 35.94C22.532 35.9897 22.8794 36.1386 23.1772 36.1386C23.6238 36.1386 23.9712 35.7415 24.3187 35.4934C24.9639 35.0963 25.6587 35.146 26.2542 34.6C26.8002 34.0541 27.4454 33.7067 28.1402 33.3593C29.9269 32.4659 31.3662 30.977 32.8054 29.5377C33.9966 28.3466 35.1381 27.1058 35.9322 25.6665C36.7263 24.2273 36.5774 22.4902 37.1729 21.0013C37.6196 19.9094 37.967 18.9168 38.6618 17.9738C39.0093 17.5272 39.4063 17.1301 39.7537 16.6834C40.1508 16.2368 40.3493 15.7405 40.6471 15.1945C40.9448 14.599 41.3915 14.1027 41.6397 13.4575C41.8878 12.8619 41.8382 12.3656 41.8382 11.7204C41.8382 11.0752 41.8382 10.3804 41.8382 9.68555C42.8804 11.1248 43.7242 12.4152 44.419 13.7552Z" fill="url(#paint4_linear_132_206)" fill-opacity="0.5"/>
<path opacity="0.4" fill-rule="evenodd" clip-rule="evenodd" d="M40.6969 8.44467C40.4488 8.19652 40.2006 7.89874 39.9525 7.65059C38.1658 5.86389 36.0813 4.42461 33.7983 3.28311C33.7487 3.23348 33.699 3.23348 33.5998 3.18385C33.2524 3.03496 32.905 2.88607 32.5575 2.73717C32.0612 2.53865 31.6146 2.34013 31.1183 2.19124C31.2672 2.2905 31.4657 2.38976 31.5153 2.38976C31.8131 2.53865 32.0612 2.63791 32.2598 2.88606C32.4583 3.13422 32.5575 3.33274 32.5575 3.68015C32.5575 3.97793 32.6072 4.32535 32.6568 4.62313C32.7064 4.92091 32.8553 5.16906 32.905 5.46685C32.9546 5.61574 32.9546 5.76463 33.0042 5.96315C33.1035 6.36019 33.2524 6.75724 33.3516 7.15428C33.5005 7.89874 33.1035 8.4943 32.8553 9.1395C32.4583 10.1817 32.2101 11.224 31.8627 12.3158C31.6146 13.1596 31.1679 14.0033 30.5227 14.6485C29.8775 15.244 28.9345 15.3929 28.3886 16.0381C27.8923 16.6337 27.2967 17.1796 26.6019 17.4774C25.8078 17.8744 24.9145 18.1722 24.0708 18.4204C23.4752 18.6189 22.83 18.6189 22.1848 18.7678C21.3907 18.9663 20.6959 19.3634 20.0011 19.6611C19.207 20.0086 18.5121 20.4056 17.7181 20.753C16.924 21.1004 16.2291 21.5471 15.435 21.8449C15.038 21.9938 14.641 22.093 14.2936 22.1923C13.4995 22.4901 12.755 22.9864 11.9113 23.0856C11.6135 23.1353 11.3157 23.1849 11.0179 23.1849C10.7698 23.1849 10.5713 23.2345 10.3728 23.2842C9.6283 23.5819 9.18162 24.376 8.3379 24.4257C7.54382 24.4257 6.79936 24.376 6.0549 24.4753C5.65786 24.5249 5.31045 24.4753 4.96304 24.5249C4.86378 24.5249 4.71488 24.5746 4.61562 24.5249C4.51636 24.4753 4.36748 24.376 4.21859 24.2768C3.9208 24.1279 3.67265 23.9294 3.4245 23.7308C2.92819 23.3338 2.283 23.5819 1.73706 23.4331C1.58817 23.3834 1.34002 23.4331 1.19113 23.3338C0.843714 23.1353 0.397034 22.6886 0.0992517 22.4404C0.0496213 23.0856 0 23.7308 0 24.376C0 25.5175 0.0992608 26.6094 0.248152 27.7013C0.297783 28.1976 0.397043 28.6939 0.496304 29.2398C0.645195 29.9346 0.843705 30.6791 1.04223 31.3243C1.34001 32.2673 1.68743 33.2102 2.08447 34.1036C2.72966 34.2029 3.37486 34.3021 4.02005 34.2029C4.96303 34.054 5.85638 33.9051 6.79936 33.9547C7.69271 34.0043 8.4868 34.3021 9.33051 34.451C10.2735 34.5999 11.2661 34.7488 12.2587 34.7984C13.1521 34.848 14.0454 34.9473 14.8891 35.0466C15.5343 35.1458 16.2291 35.2451 16.8743 35.2947C18.6114 35.394 20.2988 34.9473 21.9863 34.7984C22.83 34.6992 23.6737 34.5006 24.5174 34.3021C25.0137 34.2029 25.51 34.054 25.9567 33.7562C26.5523 33.3591 26.9493 32.8132 27.4456 32.3665C28.0412 31.8702 28.6367 31.3739 29.2323 30.9272C29.7286 30.5302 30.2249 30.0835 30.7709 29.7361C31.1679 29.488 31.6146 29.1902 32.0116 28.8924C32.7561 28.2968 33.4013 27.602 34.0465 26.8576C34.9398 25.8153 35.2872 24.376 35.6346 23.0856C35.982 21.8945 36.1806 20.753 36.8258 19.6611C37.1235 19.1648 37.3717 18.5693 37.5206 17.9737C37.6198 17.6263 37.6695 17.1796 37.8184 16.8322C38.0665 16.2863 38.6125 15.8396 38.9102 15.3433C39.1584 14.9463 39.4562 14.5492 39.6051 14.0529C39.9525 13.1596 40.2006 12.2662 40.3495 11.2736C40.4488 10.5788 40.6969 9.88395 40.8955 9.18913C40.9451 9.08987 40.9451 8.94097 40.9947 8.84171C40.9947 8.79208 40.8458 8.59356 40.6969 8.44467ZM10.075 24.5249C10.1246 24.4257 11.018 24.0783 11.1172 24.0286C11.1172 24.0286 11.1172 24.0286 11.0676 24.0286L10.472 24.2768C11.1172 24.0783 12.2587 24.7234 11.7128 25.4183C11.5639 25.6168 11.1172 25.7161 10.8691 25.7657C10.6209 25.8153 10.472 25.7161 10.3231 25.5175C10.1742 25.319 10.075 25.0212 10.075 24.7731C10.075 24.7234 10.075 24.5746 10.075 24.5249ZM3.07708 30.828C2.38225 30.6295 1.93557 30.3813 1.53853 29.7857C1.24075 29.3887 1.04224 29.0413 0.942975 28.5946C0.893345 28.1976 0.744447 27.8998 0.843708 27.5028C0.893338 27.205 1.04224 26.8576 1.19113 26.6094C1.34002 26.3116 1.58816 25.9642 1.58816 25.8649C2.28299 25.8153 2.92819 25.7657 3.57338 25.7657C4.31784 25.7657 5.11193 25.8649 5.85638 25.8649C6.2038 25.8649 6.55121 25.8649 6.89862 25.8153C7.24604 25.7657 7.54382 25.6664 7.89123 25.6168C8.4868 25.5175 9.03273 25.4679 9.57866 25.7161C9.97571 25.9146 10.1742 26.4109 10.3728 26.8079C10.472 27.0561 10.5713 27.205 10.5713 27.5028C10.5713 27.8502 10.5713 28.1479 10.5216 28.4457C10.5216 28.545 10.472 28.6939 10.472 28.7931C9.9757 29.8354 8.68532 30.1828 7.69271 30.5798C6.2038 31.1754 4.56599 31.225 3.07708 30.828ZM13.6484 33.111C13.3506 33.9051 12.0602 34.1532 11.3157 34.2029C10.9683 34.2029 10.5216 34.1532 10.1742 33.9547C9.97571 33.8554 9.82682 33.6569 9.67793 33.4584C9.57867 33.3095 9.42977 33.0614 9.03273 33.1606C9.13199 32.7139 9.23126 32.3169 9.42978 31.9199C9.57867 31.7213 9.77718 31.5724 9.9757 31.3739C10.3231 31.0761 10.7202 30.7784 11.1172 30.5798C11.7624 30.2324 12.4572 30.4806 13.0528 30.7784C13.4995 30.9769 13.7973 31.2747 13.8965 31.7213C14.0454 32.2673 13.8469 32.6147 13.6484 33.111ZM22.3833 32.9621C22.1352 33.508 21.7878 33.6569 21.2914 33.9547C20.6959 34.2525 19.9018 34.5006 19.2566 34.5006C18.9092 34.5006 18.5618 34.3517 18.264 34.2029C18.0655 34.1036 17.8173 34.054 17.6684 33.9051C17.2217 33.4584 17.1225 32.8628 17.4203 32.9621C17.2217 32.5651 17.1225 32.168 17.0729 31.771C17.1721 31.7213 17.2217 31.6221 17.2217 31.5228C17.4699 31.0761 17.9166 30.6791 18.4129 30.4309C19.207 29.9843 20.2492 29.885 21.1425 30.2821C21.5396 30.4309 21.7878 30.6295 22.0359 30.9272C22.1848 31.0761 22.3337 31.1754 22.4826 31.3739C22.6315 31.771 22.5322 32.5154 22.3833 32.9621ZM25.0137 32.8628C24.8648 32.9621 24.6167 33.1606 24.4678 33.1606C24.3189 33.111 24.0708 32.8628 24.0708 32.6643L23.9715 32.5651C24.17 32.2176 24.3685 31.9199 24.5671 31.5724C24.8648 31.7213 25.1626 31.6717 25.3611 32.0191C25.6093 32.3665 25.2619 32.6643 25.0137 32.8628ZM31.7138 17.2293C31.4657 17.5767 31.1183 17.9241 30.7212 18.073C30.2249 18.2715 29.5301 18.47 29.4805 17.6759C29.4805 17.2293 29.5301 16.8818 29.7286 16.4848C30.0264 15.8892 30.2745 15.7403 30.8701 15.4426C31.0686 15.4426 31.3168 15.5418 31.4657 15.5915C31.7635 15.6907 32.0612 15.9885 32.1109 16.3359C32.1605 16.6833 31.9124 16.9811 31.7138 17.2293ZM37.9176 13.904C37.6695 14.6981 37.3221 15.4426 36.9747 16.1374C36.5776 17.0307 36.528 17.9737 36.2798 18.9167C36.1806 19.4626 35.8828 20.0582 35.3865 20.2567C35.1383 20.356 34.9398 20.3063 34.6917 20.3063C34.4435 20.3063 34.0465 20.4056 34.0465 20.6041C33.8976 20.2071 33.699 19.7108 33.5998 19.3137C33.5005 18.8671 33.4509 18.3708 33.4013 17.8744C33.302 17.3781 33.302 16.8818 33.2524 16.3855C33.2028 15.9389 33.1035 15.4426 33.1035 14.9959C33.1035 13.4573 33.9968 11.5218 35.4361 10.8269C35.8828 10.6284 36.3295 10.5291 36.8258 10.5788C37.3717 10.678 37.7191 10.8269 37.9673 11.3729C38.2651 12.1173 38.1162 13.1099 37.9176 13.904Z" fill="url(#paint5_linear_132_206)" fill-opacity="0.5"/>
<path opacity="0.4" fill-rule="evenodd" clip-rule="evenodd" d="M31.0694 15.3438C31.0197 15.3934 30.9205 15.3934 30.8708 15.443C30.722 15.443 30.6227 15.3934 30.5234 15.443L31.0694 15.3438Z" fill="url(#paint6_linear_132_206)" fill-opacity="0.5"/>
<path opacity="0.4" fill-rule="evenodd" clip-rule="evenodd" d="M1.5387 25.8651C1.48907 25.8651 1.43945 25.8651 1.43945 25.8651C1.53871 25.8155 1.5387 25.8155 1.5387 25.8651Z" fill="url(#paint7_linear_132_206)" fill-opacity="0.5"/>
<path opacity="0.3" fill-rule="evenodd" clip-rule="evenodd" d="M10.0747 43.8312C10.0747 43.8312 12.2088 44.6253 13.7474 44.1786C13.7474 44.1786 14.3429 39.166 12.457 35.94C10.571 32.714 7.34504 37.5778 7.34504 37.5778L6.60059 40.6549C6.60059 40.6549 8.38728 42.789 10.0747 43.8312Z" fill="black" fill-opacity="0.5"/>
<path fill-rule="evenodd" clip-rule="evenodd" d="M4.86328 44.9237C4.91291 44.9734 4.96255 45.023 4.96255 45.1222C4.86329 45.1222 4.86328 45.0726 4.86328 44.9734C4.86328 44.8741 4.91292 44.9237 4.96255 44.8245C4.96255 44.8245 4.96254 44.8245 5.01217 44.8245L4.86328 44.9237Z" fill="#0EDBFF"/>
<defs>
<radialGradient id="paint0_radial_132_206" cx="0" cy="0" r="1" gradientUnits="userSpaceOnUse" gradientTransform="translate(8.90737 13.4602) scale(37.7695)">
<stop offset="0.00558659" stop-color="#60DBFF"/>
<stop offset="0.0937306" stop-color="#60D5FF"/>
<stop offset="0.211" stop-color="#5FC4FF"/>
<stop offset="0.3446" stop-color="#5DA9FF"/>
<stop offset="0.4903" stop-color="#5A82FF"/>
<stop offset="0.6442" stop-color="#5751FF"/>
<stop offset="0.6844" stop-color="#5643FF"/>
<stop offset="0.7432" stop-color="#563DF8"/>
<stop offset="0.8282" stop-color="#552EE5"/>
<stop offset="0.9287" stop-color="#5315C6"/>
<stop offset="1" stop-color="#5200AB"/>
</radialGradient>
<linearGradient id="paint1_linear_132_206" x1="-0.043774" y1="18.0076" x2="33.7792" y2="18.0076" gradientUnits="userSpaceOnUse">
<stop offset="0.0111732" stop-color="#81E0FF"/>
<stop offset="0.3224" stop-color="#82DDFF"/>
<stop offset="0.5506" stop-color="#86D4FF"/>
<stop offset="0.7523" stop-color="#8BC4FF"/>
<stop offset="0.9375" stop-color="#94ADFF"/>
<stop offset="1" stop-color="#97A4FF"/>
</linearGradient>
<linearGradient id="paint2_linear_132_206" x1="0.170051" y1="11.3523" x2="29.7403" y2="11.3523" gradientUnits="userSpaceOnUse">
<stop stop-color="#B8C2FF"/>
<stop offset="1" stop-color="#7D72B3"/>
</linearGradient>
<linearGradient id="paint3_linear_132_206" x1="4.96979" y1="33.3625" x2="46.9819" y2="33.3625" gradientUnits="userSpaceOnUse">
<stop stop-color="#B8C2FF"/>
<stop offset="1" stop-color="#7D72B3"/>
</linearGradient>
<linearGradient id="paint4_linear_132_206" x1="2.48817" y1="24.6727" x2="44.416" y2="24.6727" gradientUnits="userSpaceOnUse">
<stop stop-color="#B8C2FF"/>
<stop offset="1" stop-color="#7D72B3"/>
</linearGradient>
<linearGradient id="paint5_linear_132_206" x1="-0.0427318" y1="18.8134" x2="41.1704" y2="18.8134" gradientUnits="userSpaceOnUse">
<stop stop-color="#B8C2FF"/>
<stop offset="1" stop-color="#7D72B3"/>
</linearGradient>
<linearGradient id="paint6_linear_132_206" x1="30.4907" y1="15.4167" x2="31.0564" y2="15.4167" gradientUnits="userSpaceOnUse">
<stop stop-color="#E8DDFF"/>
<stop offset="1" stop-color="#AA8AD8"/>
</linearGradient>
<linearGradient id="paint7_linear_132_206" x1="1.43146" y1="25.8704" x2="1.54893" y2="25.8704" gradientUnits="userSpaceOnUse">
<stop stop-color="#E8DDFF"/>
<stop offset="1" stop-color="#AA8AD8"/>
</linearGradient>
</defs>
</svg>
