<svg width="29" height="30" viewBox="0 0 29 30" fill="none" xmlns="http://www.w3.org/2000/svg">
<path fill-rule="evenodd" clip-rule="evenodd" d="M29 14.5152C29 15.8932 28.8163 17.2713 28.4488 18.5268C27.7138 21.0992 26.2745 23.3653 24.3759 25.1414C23.0285 26.3969 21.4055 27.4075 19.6294 28.0812C18.037 28.6937 16.2914 29.0305 14.4847 29.0305C14.2397 29.0305 13.9641 29.0305 13.7191 28.9999C13.3516 28.9693 12.9535 28.9387 12.5861 28.908C9.79936 28.5406 7.22703 27.3769 5.17529 25.6314C4.40971 24.9883 3.70539 24.2533 3.0623 23.4571C2.60296 22.8447 2.17423 22.2322 1.80676 21.5585C1.71489 21.4054 1.62302 21.2216 1.53115 21.0685C1.53115 21.0685 1.53115 21.0685 1.53115 21.0379C1.43928 20.8542 1.34741 20.7011 1.28616 20.5173C1.04118 19.9661 0.826814 19.3843 0.643076 18.8024C0.520584 18.3737 0.398099 17.945 0.30623 17.5163C0.244984 17.21 0.183738 16.9038 0.153115 16.567C0.061246 15.8932 0 15.2195 0 14.5152C0 14.1171 -5.60816e-06 13.719 0.0612404 13.3209C0.0918635 13.0759 0.122492 12.8309 0.153115 12.586C0.336853 11.1467 0.734949 9.79926 1.31679 8.54372C1.59239 7.93126 1.92925 7.3188 2.29673 6.76758C2.90919 5.81827 3.61352 4.9302 4.44034 4.134C7.0433 1.59229 10.6262 0.0305176 14.5459 0.0305176C14.6991 0.0305176 14.8522 0.0305176 15.0053 0.0305176C15.1584 0.0305176 15.3421 0.0305171 15.4952 0.0611401C16.3221 0.122386 17.1489 0.244879 17.9451 0.428617C18.4044 0.551109 18.8638 0.673601 19.2925 0.826716C19.5987 0.918585 19.8743 1.04108 20.1806 1.16357C20.3949 1.25544 20.6093 1.34731 20.8237 1.43918C20.8543 1.4698 20.8849 1.4698 20.9461 1.50042C22.3548 2.17413 23.641 3.09282 24.7434 4.19525C24.8965 4.34836 25.0496 4.50148 25.2027 4.68522C25.2946 4.80771 25.4171 4.89958 25.509 5.02207C25.6927 5.20581 25.8458 5.42017 25.9989 5.60391C26.5808 6.33886 27.0707 7.13506 27.4995 7.96188C27.9894 8.94182 28.3875 9.983 28.6631 11.0548C28.8469 12.1266 29 13.2903 29 14.5152Z" fill="url(#paint0_radial_132_194)"/>
<path fill-rule="evenodd" clip-rule="evenodd" d="M20.8543 1.46981C20.793 1.46981 20.7624 1.46981 20.7012 1.50043C20.548 1.53105 20.3949 1.50043 20.2418 1.46981C20.1193 1.43918 20.0581 1.37794 19.905 1.37794C19.7212 1.34731 19.5681 1.28607 19.3844 1.25544C19.2006 1.22482 19.0475 1.16358 18.8638 1.10233C18.7107 1.04108 18.6494 1.07171 18.5269 1.10233C18.4044 1.13295 18.3126 1.07171 18.1901 1.04108C18.0676 0.979837 17.9145 0.979838 17.792 0.949215C17.4245 0.887968 17.057 0.765476 16.6896 0.673607C16.4752 0.612361 16.2608 0.612361 16.0158 0.612361C15.8321 0.612361 15.679 0.673607 15.4952 0.673607C15.3728 0.673607 15.2809 0.642984 15.1584 0.642984C15.0359 0.612361 14.9134 0.642984 14.7909 0.642984C14.6072 0.612361 14.5153 0.581738 14.3316 0.642984C14.1785 0.673607 14.0866 0.673606 13.9335 0.704229C13.7804 0.704229 13.5966 0.765476 13.4435 0.796099C13.1679 0.857345 12.8617 0.918591 12.5861 0.918591C12.4023 0.918591 12.1573 0.857345 12.0042 0.918591C11.9124 0.949214 11.8511 1.07171 11.7592 1.13295C11.6061 1.28607 11.453 1.40856 11.3305 1.56168C11.208 1.71479 11.0855 1.89853 11.0855 2.11289C11.0855 2.29663 11.1774 2.51099 11.2693 2.6641C11.3611 2.84784 11.3918 3.00096 11.208 3.12345C10.9937 3.27656 10.7181 3.39906 10.4731 3.49093C10.2893 3.55217 10.1362 3.58279 10.0137 3.4603C9.95248 3.42968 9.92185 3.33781 9.86061 3.27656C9.79936 3.24594 9.7075 3.27656 9.64625 3.30719C9.46252 3.36843 9.27877 3.42968 9.09503 3.4603C8.97254 3.49092 8.88067 3.55217 8.75818 3.55217C8.63569 3.58279 8.54382 3.49093 8.39071 3.52155C8.20697 3.55217 7.99261 3.64404 7.80887 3.64404C7.65576 3.64404 7.47202 3.58279 7.34953 3.52155C7.28828 3.49093 7.25766 3.42968 7.16579 3.4603C7.10454 3.4603 7.01267 3.55217 6.98205 3.61342C6.9208 3.67466 6.9208 3.76653 6.85956 3.82778C6.79831 3.91965 6.76769 3.98089 6.70644 4.07276C6.61457 4.22588 6.52271 4.37899 6.43084 4.53211C6.36959 4.62398 6.30834 4.77709 6.21647 4.86896C6.18585 4.93021 6.09398 4.96083 6.03273 4.99145C5.87962 5.08332 5.7265 5.20581 5.57339 5.29768C5.29778 5.51204 5.02218 5.75703 4.74657 5.97139C4.53221 6.12451 4.22598 6.21637 3.98099 6.33887C3.82788 6.40011 3.67476 6.46136 3.52165 6.5226C3.4604 6.55323 3.36853 6.55323 3.33791 6.61447C3.27666 6.67572 3.24604 6.73697 3.21542 6.82884C3.09293 6.98195 2.93981 7.16569 2.84794 7.34943C2.78669 7.47192 2.75607 7.56379 2.69482 7.68628C2.63358 7.8394 2.54171 7.99251 2.51108 8.17625C2.38859 8.5131 2.38859 8.88058 2.23548 9.21743C2.17423 9.40117 2.05174 9.58491 1.95987 9.76865C1.80676 10.0749 1.77613 10.4424 1.74551 10.7792C1.71488 10.9629 1.74551 11.2079 1.77613 11.3917C1.80675 11.606 1.80676 11.8204 1.80676 12.0347C1.80676 12.2491 1.65364 12.4941 1.53115 12.6472C1.40866 12.8003 1.1943 12.8616 1.04118 13.0147C0.918689 13.1372 0.765572 13.2597 0.704326 13.4434C0.673703 13.5047 0.704326 13.5965 0.704326 13.6884C0.673703 13.8721 0.612461 14.0252 0.612461 14.209C0.581838 14.4233 0.581836 14.6377 0.581836 14.8827C0.581836 15.0052 0.581836 15.0971 0.581836 15.2195C0.581836 15.342 0.612453 15.4339 0.643076 15.5258C0.643076 15.587 0.643076 15.6789 0.643076 15.7401C0.643076 15.832 0.704326 15.9239 0.704326 15.9851C0.765572 16.1995 0.796193 16.3832 0.826816 16.5976C0.857439 16.7813 0.949308 16.9651 0.979931 17.1488C1.0718 17.3938 1.10243 17.6388 1.16367 17.9144C1.19429 18.0981 1.1943 18.3125 1.22492 18.4962C1.25554 18.6493 1.28616 18.8024 1.28616 18.9556C1.28616 19.2005 1.22492 19.4149 1.22492 19.6599C1.22492 20.058 1.37803 20.4561 1.4699 20.8542C1.50052 20.9767 1.53114 21.0685 1.56177 21.191C0.551207 19.2312 0 16.9957 0 14.6377C0 11.7591 0.82682 9.09494 2.2661 6.85946C2.87856 5.91014 3.58289 5.02208 4.40971 4.2565C7.01267 1.71479 10.5956 0.153015 14.5153 0.153015C14.8215 0.153015 15.1584 0.153016 15.4646 0.183639C17.3633 0.153016 19.2006 0.642983 20.8543 1.46981Z" fill="url(#paint1_linear_132_194)"/>
<path opacity="0.1" fill-rule="evenodd" clip-rule="evenodd" d="M15.4043 21.3136C15.4043 21.3136 16.7517 23.3041 18.5585 24.9272C20.3652 26.5502 20.6102 27.6526 20.6102 27.6526C20.6102 27.6526 24.0094 26.244 26.4286 22.8754C28.8478 19.5375 15.4043 21.3136 15.4043 21.3136Z" fill="black" fill-opacity="0.5"/>
<path opacity="0.4" fill-rule="evenodd" clip-rule="evenodd" d="M17.8535 0.398099C17.0573 0.214361 16.2611 0.0918698 15.4037 0.0306237C15.2505 0.0306237 15.0668 0 14.9137 0C15.2505 0.183738 15.5874 0.520592 15.6486 0.888068C15.7711 1.50053 15.9855 2.05174 16.0774 2.63358C16.1999 3.21542 16.1692 3.95037 15.8936 4.47096C15.7405 4.80782 15.5262 5.08342 15.2505 5.35903C15.0668 5.54277 14.8831 5.66526 14.7606 5.91024C14.6381 6.15523 14.485 6.36959 14.3319 6.58395C14.1175 6.92081 13.8725 7.25766 13.5969 7.56389C13.505 7.68638 13.4132 7.74763 13.3213 7.87012C13.2294 8.02323 13.1682 8.17635 13.0457 8.29884C12.7701 8.57445 12.372 8.75819 12.0351 8.88068C11.5758 9.06442 11.1777 9.24816 10.749 9.49314C10.1365 9.82999 9.61591 10.2281 8.91158 10.2587C8.66659 10.2587 8.42161 10.2281 8.17663 10.2587C7.8704 10.2893 7.59479 10.4118 7.31918 10.4731C7.0742 10.5343 6.79859 10.5649 6.55361 10.6262C6.12489 10.6874 5.78803 10.8406 5.38993 10.9324C4.86934 11.0549 4.31813 11.0243 3.76691 11.1162C3.27694 11.1774 2.87884 11.2387 2.38888 11.1162C1.65392 10.9324 1.25582 10.5956 1.40893 9.79937C1.5008 9.27878 1.47019 8.88068 1.2252 8.5132C0.643367 9.76875 0.245262 11.1468 0.0615234 12.5554C0.398377 12.7086 0.796476 12.7698 1.13333 12.8004C2.20514 12.9229 3.36881 12.4329 4.34875 12.0655C4.83872 11.8817 5.35931 11.6061 5.91052 11.5449C6.49236 11.4836 6.98233 11.5449 7.56417 11.4224C9.52404 10.9324 11.4533 10.2587 13.2294 9.21753C13.9644 8.78881 14.2706 8.17635 14.7912 7.56389C15.2199 7.01267 15.7405 6.58395 16.2611 6.12461C16.7817 5.66526 17.241 5.23654 17.5473 4.62408C17.8841 3.98099 18.1597 3.24604 18.3128 2.54171C18.466 1.74551 18.2516 1.01056 17.8535 0.398099ZM17.7616 2.35797C17.731 2.51109 17.7004 2.69483 17.6698 2.84794C17.5473 3.24604 17.3023 3.64414 16.9348 3.82788C16.7817 3.91975 16.5367 3.8585 16.4448 3.70539C16.3836 3.61352 16.3836 3.49103 16.3836 3.39916C16.353 3.1848 16.3224 3.00106 16.3224 2.7867C16.3224 2.29673 16.3223 1.80676 16.2611 1.31679C16.3223 1.5924 16.2611 0.888068 16.6898 0.704329C16.9042 0.61246 17.2104 0.704329 17.3635 0.857445C17.5473 1.07181 17.6085 1.40866 17.6698 1.65364C17.731 1.92925 17.7923 2.11299 17.7616 2.35797Z" fill="url(#paint2_linear_132_194)" fill-opacity="0.5"/>
<path opacity="0.4" fill-rule="evenodd" clip-rule="evenodd" d="M15.6486 25.5396C15.6179 25.5396 15.5567 25.5702 15.5261 25.5702L15.8017 25.6008C15.8017 25.5702 15.7404 25.5396 15.6486 25.5396ZM15.6486 25.5396C15.6179 25.5396 15.5567 25.5702 15.5261 25.5702L15.8017 25.6008C15.8017 25.5702 15.7404 25.5396 15.6486 25.5396ZM28.5715 10.9937C28.5715 11.3611 28.449 11.7592 28.449 12.1267C28.449 12.6473 28.3571 13.0454 28.2346 13.5354C28.1428 13.8722 27.959 14.1172 27.8672 14.4541C27.7447 14.8215 27.5609 15.1584 27.3772 15.4952C27.0097 16.1689 26.6116 16.8733 26.4585 17.6389C26.3054 18.3432 26.2747 18.925 25.9379 19.5681C25.601 20.1806 25.1111 20.7012 24.7436 21.3136C24.5905 21.5892 24.468 21.5892 24.1924 21.773C23.9168 21.9873 23.6412 22.2936 23.3656 22.5079C22.7837 22.9673 22.2325 23.3041 21.4976 23.5797C21.0382 23.7635 20.6095 23.8859 20.1195 23.9472C19.8133 24.0084 19.5071 23.9472 19.2008 24.0084C18.7109 24.1003 18.2515 24.2228 17.7616 24.3759C16.996 24.6209 16.1998 24.774 15.4342 25.019C14.883 25.1721 14.3624 25.2946 13.8112 25.3865C13.4743 25.4477 13.1987 25.6315 12.8619 25.5702C12.525 25.509 12.1882 25.3865 11.8513 25.264C11.4226 25.1415 11.0551 25.1109 10.5958 25.1109C9.9833 25.1109 9.24834 25.2027 8.60526 25.0802C7.90093 24.9578 7.22723 24.7434 6.5229 24.6209C6.09418 24.529 5.78794 24.3453 5.38984 24.1922C5.02237 24.0084 4.6549 23.9778 4.2568 23.8553C3.8587 23.7328 3.4606 23.5491 3.0625 23.4572C3.67496 24.2534 4.37929 24.9884 5.17549 25.6315C7.22723 27.377 9.76894 28.5406 12.5863 28.9081C12.9537 28.9387 13.3212 29 13.7193 29C14.5461 28.8163 15.3423 28.5713 16.1692 28.3263C17.5472 27.8976 18.7415 27.0707 20.1195 26.6726C20.6401 26.5195 21.0995 26.3664 21.5588 26.1214C21.9263 25.9377 22.2938 25.9071 22.6306 25.754C23.9168 25.2027 24.8661 23.9778 25.4479 22.7529C25.6929 22.2017 25.9379 21.5892 26.4279 21.1605C26.6116 20.9768 26.8566 20.8543 27.0097 20.6399C27.1934 20.4255 27.3159 20.1806 27.4997 19.9356C27.8059 19.5375 28.0815 19.1088 28.3571 18.7107C28.3877 18.6494 28.4184 18.6188 28.449 18.5575C28.8165 17.2714 29.0002 15.924 29.0002 14.5459C29.0002 13.2904 28.8471 12.1267 28.5715 10.9937ZM15.2505 25.6315C15.3117 25.6008 15.373 25.5396 15.4342 25.509C15.4954 25.4783 15.5873 25.509 15.6486 25.5396C15.771 25.509 15.8629 25.509 15.9548 25.5702C16.016 25.6008 16.1079 25.6621 16.1385 25.7233C16.1692 25.7846 16.1385 25.8152 16.0773 25.8764C16.016 25.9377 15.9854 25.9377 15.8935 25.9377C15.7404 25.9683 15.5873 25.9989 15.4036 25.9683C15.3117 25.9683 15.1586 25.9377 15.0973 25.8764C15.0973 25.754 15.1892 25.6927 15.2505 25.6315ZM16.1998 27.5301C16.1079 27.6526 16.016 27.7751 15.8935 27.8363C15.7711 27.9282 15.6486 27.9588 15.5567 28.0507C15.2505 28.2038 14.9442 28.3875 14.638 28.4794C14.5155 28.51 14.3624 28.51 14.2399 28.51C14.0868 28.5406 13.903 28.5406 13.7499 28.5406C13.5662 28.5406 13.3518 28.5713 13.1681 28.6019C12.9844 28.6019 12.77 28.6325 12.5863 28.6325C12.2494 28.6631 11.9738 28.6019 11.6676 28.4794C11.392 28.3875 11.1164 28.2344 10.8714 28.0813C10.6876 27.9588 10.5345 27.8057 10.412 27.6526C10.2589 27.5301 10.167 27.377 10.0752 27.1932C10.0445 27.132 10.0139 27.0707 10.0445 26.9789C10.0445 26.9482 10.0752 26.9176 10.0752 26.9176C10.1364 26.887 10.1977 26.8258 10.2283 26.8258C10.3202 26.7645 10.4426 26.7645 10.5651 26.7339C10.8407 26.7033 11.1164 26.7339 11.392 26.7645C11.5451 26.7645 11.6982 26.7951 11.8513 26.7645C12.0657 26.7339 12.28 26.6726 12.4638 26.6114C12.9537 26.4889 13.4437 26.3664 13.9337 26.3358C14.4236 26.2745 14.9749 26.2133 15.4648 26.3052C15.6486 26.3358 15.8935 26.397 16.0467 26.4889C16.1692 26.5808 16.261 26.7033 16.3223 26.8258C16.4141 27.0707 16.3529 27.3157 16.1998 27.5301ZM20.0583 26.2745C19.9664 26.3664 19.8439 26.4277 19.7214 26.5195C19.5683 26.642 19.4152 26.7033 19.2621 26.7951C19.1396 26.887 18.9865 26.9483 18.864 27.0095C18.7109 27.0707 18.5884 27.132 18.4353 27.2239C18.2821 27.2851 18.129 27.3464 17.9759 27.4076C17.8534 27.4382 17.7309 27.4995 17.6084 27.4688C17.5166 27.4382 17.3941 27.4076 17.3328 27.3464C17.2103 27.2239 17.241 27.1014 17.2716 27.0401C17.2716 26.9483 17.241 26.7951 17.2716 26.6726C17.3022 26.6114 17.3635 26.5195 17.3941 26.4583C17.5166 26.2133 17.7003 26.0602 17.884 25.8764C18.0372 25.7233 18.2209 25.6008 18.4353 25.509C18.6802 25.4171 18.9865 25.3865 19.2315 25.3559C19.5071 25.3252 19.997 25.2946 20.1501 25.6315C20.242 25.8458 20.2114 26.0602 20.0583 26.2745ZM15.8323 25.5702C15.8017 25.5702 15.7404 25.5396 15.6792 25.509C15.6486 25.509 15.5873 25.5396 15.5567 25.5396L15.8323 25.5702Z" fill="url(#paint3_linear_132_194)" fill-opacity="0.5"/>
<path opacity="0.4" fill-rule="evenodd" clip-rule="evenodd" d="M27.4071 7.90074V7.96198C27.3765 8.36008 27.2233 8.63569 27.0702 9.00316C26.9477 9.30939 26.8252 9.55438 26.6721 9.82999C26.4271 10.2893 26.3046 10.7181 26.1209 11.2386C25.8147 12.0042 25.6922 12.831 25.2328 13.5354C24.8347 14.1785 24.7122 14.944 24.406 15.6177C24.0385 16.3833 23.4567 16.9039 22.8442 17.4551C22.5686 17.7001 22.3237 18.0063 22.0787 18.2819C21.8031 18.5575 21.6193 18.925 21.2825 19.17C20.6088 19.66 19.8432 20.0887 19.1695 20.6093C18.7714 20.9155 18.4958 21.3442 18.0364 21.5892C17.6077 21.8648 17.1177 22.0486 16.689 22.2936C16.2909 22.5385 15.8928 22.7835 15.4641 22.9673C14.9741 23.151 14.576 23.0898 14.0554 23.1204C13.5042 23.151 12.9224 23.3041 12.4018 23.4879C11.9731 23.641 11.6056 23.7941 11.1463 23.641C10.84 23.5491 10.595 23.3347 10.2888 23.2735C9.55385 23.1204 8.75765 23.2735 8.0227 23.2429C7.44086 23.2122 6.82841 23.0898 6.24657 22.9673C5.69535 22.8754 5.23601 22.4773 4.71542 22.3242C4.04171 22.1404 3.27613 22.2936 2.66367 22.0486C2.38806 21.9567 2.14308 21.7423 1.92872 21.5892C1.86747 21.5586 1.83685 21.528 1.77561 21.4974C1.68374 21.3442 1.59187 21.1605 1.5 21.0074C1.65312 21.0686 1.80623 21.1299 1.95935 21.2218C2.78617 21.6199 3.82735 21.5586 4.71542 21.7117C5.72598 21.8955 6.73654 22.1404 7.7471 22.2629C8.17582 22.3242 8.57392 22.2936 9.00264 22.2629C9.58448 22.2017 10.1663 22.2017 10.7481 22.1098C11.7281 21.9261 12.708 21.4667 13.7186 21.5892C13.9023 21.6199 14.1167 21.7117 14.3004 21.7117C14.576 21.7117 14.7904 21.4667 15.0048 21.3136C15.4029 21.0686 15.8316 21.0993 16.1991 20.7624C16.5359 20.4256 16.934 20.2112 17.3627 19.9968C18.4652 19.4456 19.3532 18.5269 20.2413 17.6389C20.9762 16.9039 21.6806 16.1383 22.1705 15.2503C22.6605 14.3622 22.5686 13.2904 22.9361 12.3717C23.2117 11.698 23.4261 11.0855 23.8548 10.5037C24.0692 10.2281 24.3141 9.9831 24.5285 9.70749C24.7735 9.43189 24.896 9.12566 25.0797 8.7888C25.2635 8.42133 25.5391 8.1151 25.6922 7.717C25.8453 7.34952 25.8147 7.04329 25.8147 6.64519C25.8147 6.24709 25.8147 5.81837 25.8147 5.38965C26.4578 6.27772 26.9784 7.07391 27.4071 7.90074Z" fill="url(#paint4_linear_132_194)" fill-opacity="0.5"/>
<path opacity="0.4" fill-rule="evenodd" clip-rule="evenodd" d="M25.1109 4.62394C24.9578 4.47083 24.8046 4.28709 24.6515 4.13398C23.5491 3.03155 22.2629 2.14348 20.8543 1.43915C20.8236 1.40853 20.793 1.40853 20.7318 1.3779C20.5174 1.28603 20.3031 1.19416 20.0887 1.1023C19.7825 0.979804 19.5069 0.857311 19.2006 0.765442C19.2925 0.826688 19.415 0.887934 19.4456 0.887934C19.6294 0.979804 19.7825 1.04105 19.905 1.19416C20.0275 1.34728 20.0887 1.46977 20.0887 1.68413C20.0887 1.86787 20.1193 2.08223 20.1499 2.26597C20.1806 2.44971 20.2724 2.60282 20.3031 2.78656C20.3337 2.87843 20.3337 2.9703 20.3643 3.09279C20.4256 3.33778 20.5174 3.58276 20.5787 3.82775C20.6705 4.28709 20.4256 4.65457 20.2724 5.05267C20.0275 5.69575 19.8743 6.33883 19.66 7.01254C19.5069 7.53313 19.2313 8.05372 18.8332 8.45182C18.4351 8.8193 17.8532 8.91117 17.5164 9.30926C17.2101 9.67674 16.8427 10.0136 16.4139 10.1973C15.924 10.4423 15.3728 10.6261 14.8522 10.7792C14.4847 10.9017 14.0866 10.9017 13.6885 10.9935C13.1985 11.116 12.7698 11.361 12.3411 11.5447C11.8511 11.7591 11.4224 12.0041 10.9324 12.2185C10.4424 12.4328 10.0137 12.7084 9.52375 12.8922C9.27877 12.984 9.03379 13.0453 8.81943 13.1065C8.32946 13.2903 7.87012 13.5965 7.34953 13.6577C7.16579 13.6884 6.98204 13.719 6.79831 13.719C6.64519 13.719 6.5227 13.7496 6.40021 13.7802C5.94086 13.964 5.66526 14.4539 5.14466 14.4846C4.6547 14.4846 4.19535 14.4539 3.736 14.5152C3.49102 14.5458 3.27666 14.5152 3.0623 14.5458C3.00106 14.5458 2.90918 14.5764 2.84794 14.5458C2.78669 14.5152 2.69483 14.4539 2.60296 14.3927C2.41922 14.3008 2.2661 14.1783 2.11299 14.0558C1.80676 13.8108 1.40866 13.964 1.07181 13.8721C0.979937 13.8415 0.82682 13.8721 0.734951 13.8109C0.52059 13.6884 0.244979 13.4127 0.0612404 13.2596C0.0306174 13.6577 0 14.0558 0 14.4539C0 15.1583 0.061246 15.832 0.153115 16.5057C0.183738 16.8119 0.244984 17.1181 0.30623 17.455C0.398099 17.8837 0.520584 18.3431 0.643076 18.7412C0.826814 19.323 1.04118 19.9048 1.28616 20.456C1.68426 20.5173 2.08236 20.5785 2.48046 20.5173C3.06229 20.4254 3.61351 20.3336 4.19535 20.3642C4.74656 20.3948 5.23653 20.5785 5.75712 20.6704C6.33896 20.7623 6.95142 20.8541 7.56388 20.8848C8.1151 20.9154 8.66632 20.9766 9.18691 21.0379C9.58501 21.0991 10.0137 21.1604 10.4118 21.191C11.4836 21.2522 12.5248 20.9766 13.566 20.8848C14.0866 20.8235 14.6072 20.701 15.1278 20.5785C15.434 20.5173 15.7402 20.4254 16.0158 20.2417C16.3833 19.9967 16.6283 19.6598 16.9345 19.3842C17.302 19.078 17.6695 18.7718 18.037 18.4962C18.3432 18.2512 18.6494 17.9756 18.9863 17.7612C19.2313 17.6081 19.5069 17.4244 19.7518 17.2406C20.2112 16.8732 20.6093 16.4444 21.0074 15.9851C21.5586 15.342 21.773 14.4539 21.9873 13.6577C22.2017 12.9228 22.3242 12.2185 22.7223 11.5447C22.906 11.2385 23.0591 10.871 23.151 10.5036C23.2122 10.2892 23.2429 10.0136 23.3347 9.79923C23.4879 9.46238 23.8247 9.18677 24.0084 8.88054C24.1616 8.63556 24.3453 8.39057 24.4372 8.08434C24.6515 7.53313 24.8046 6.98191 24.8965 6.36945C24.9578 5.94073 25.1109 5.51201 25.2334 5.08329C25.264 5.02204 25.264 4.93017 25.2946 4.86893C25.2946 4.8383 25.2027 4.71581 25.1109 4.62394ZM6.21647 14.5458C6.24709 14.4846 6.79831 14.2702 6.85955 14.2396C6.85955 14.2396 6.85955 14.2396 6.82893 14.2396L6.46145 14.3927C6.85955 14.2702 7.56388 14.6683 7.22703 15.097C7.13516 15.2195 6.85955 15.2808 6.70644 15.3114C6.55332 15.342 6.46145 15.2808 6.36958 15.1583C6.27772 15.0358 6.21647 14.852 6.21647 14.6989C6.21647 14.6683 6.21647 14.5764 6.21647 14.5458ZM1.89862 18.4349C1.4699 18.3124 1.19429 18.1593 0.949306 17.7918C0.765568 17.5469 0.643082 17.3325 0.581836 17.0569C0.551213 16.8119 0.45934 16.6282 0.520586 16.3832C0.551209 16.1994 0.643082 15.9851 0.734951 15.832C0.82682 15.6482 0.979931 15.4339 0.979931 15.3726C1.40865 15.342 1.80675 15.3114 2.20485 15.3114C2.6642 15.3114 3.15417 15.3726 3.61351 15.3726C3.82787 15.3726 4.04224 15.3726 4.2566 15.342C4.47096 15.3114 4.6547 15.2501 4.86906 15.2195C5.23654 15.1583 5.57339 15.1276 5.91024 15.2808C6.15522 15.4032 6.27772 15.7095 6.40021 15.9545C6.46146 16.1076 6.5227 16.1994 6.5227 16.3832C6.5227 16.5975 6.5227 16.7813 6.49207 16.965C6.49207 17.0263 6.46145 17.1181 6.46145 17.1794C6.15522 17.8225 5.35903 18.0368 4.74657 18.2818C3.82788 18.6493 2.81731 18.6799 1.89862 18.4349ZM8.42133 19.8436C8.23759 20.3336 7.44139 20.4867 6.98205 20.5173C6.76768 20.5173 6.49208 20.4867 6.27772 20.3642C6.15523 20.3029 6.06336 20.1804 5.97149 20.0579C5.91024 19.9661 5.81837 19.813 5.57338 19.8742C5.63463 19.5986 5.69588 19.3536 5.81837 19.1086C5.91024 18.9861 6.03273 18.8943 6.15522 18.7718C6.36958 18.588 6.61457 18.4043 6.85955 18.2818C7.25765 18.0674 7.68637 18.2206 8.05385 18.4043C8.32946 18.5268 8.5132 18.7105 8.57445 18.9861C8.66632 19.323 8.54382 19.5374 8.42133 19.8436ZM13.811 19.7517C13.6579 20.0886 13.4435 20.1804 13.1373 20.3642C12.7698 20.5479 12.2798 20.701 11.8817 20.701C11.6674 20.701 11.453 20.6092 11.2693 20.5173C11.1468 20.456 10.9937 20.4254 10.9018 20.3336C10.6262 20.0579 10.5649 19.6905 10.7487 19.7517C10.6262 19.5067 10.5649 19.2617 10.5343 19.0168C10.5956 18.9861 10.6262 18.9249 10.6262 18.8636C10.7793 18.588 11.0549 18.3431 11.3611 18.1899C11.8511 17.9143 12.4942 17.8531 13.0454 18.0981C13.2904 18.1899 13.4435 18.3124 13.5966 18.4962C13.6885 18.588 13.7804 18.6493 13.8722 18.7718C13.9641 19.0168 13.9028 19.4761 13.811 19.7517ZM15.434 19.6905C15.3421 19.7517 15.189 19.8742 15.0971 19.8742C15.0053 19.8436 14.8522 19.6905 14.8522 19.568L14.7909 19.5067C14.9134 19.2924 15.0359 19.1086 15.1584 18.8943C15.3421 18.9861 15.5259 18.9555 15.6484 19.1699C15.8015 19.3842 15.5871 19.568 15.434 19.6905ZM19.5681 10.0442C19.415 10.2586 19.2006 10.4729 18.9556 10.5648C18.6494 10.6873 18.2207 10.8098 18.1901 10.3198C18.1901 10.0442 18.2207 9.82986 18.3432 9.58487C18.5269 9.2174 18.68 9.12553 19.0475 8.94179C19.17 8.94179 19.3231 9.00304 19.415 9.03366C19.5987 9.0949 19.7825 9.27864 19.8131 9.493C19.8437 9.70737 19.6906 9.8911 19.5681 10.0442ZM23.396 7.99248C23.2429 8.48244 23.0285 8.94179 22.8142 9.37051C22.5692 9.92173 22.5385 10.5036 22.3854 11.0854C22.3242 11.4223 22.1404 11.7897 21.8342 11.9122C21.6811 11.9735 21.5586 11.9428 21.4055 11.9428C21.2524 11.9428 21.0074 12.0041 21.0074 12.1266C20.9155 11.8816 20.793 11.5754 20.7318 11.3304C20.6705 11.0548 20.6399 10.7485 20.6093 10.4423C20.548 10.1361 20.548 9.82986 20.5174 9.52363C20.4868 9.24802 20.4256 8.94179 20.4256 8.66618C20.4256 7.71687 20.9768 6.52257 21.8648 6.09385C22.1404 5.97135 22.416 5.91011 22.7223 5.94073C23.0591 6.00198 23.2735 6.09385 23.4266 6.4307C23.6103 6.89005 23.5185 7.50251 23.396 7.99248Z" fill="url(#paint5_linear_132_194)" fill-opacity="0.5"/>
<path opacity="0.4" fill-rule="evenodd" clip-rule="evenodd" d="M19.1708 8.88062C19.1402 8.91124 19.079 8.91124 19.0483 8.94186C18.9565 8.94186 18.8952 8.91124 18.834 8.94186L19.1708 8.88062Z" fill="url(#paint6_linear_132_194)" fill-opacity="0.5"/>
<path opacity="0.4" fill-rule="evenodd" clip-rule="evenodd" d="M0.949912 15.3727C0.919289 15.3727 0.888672 15.3727 0.888672 15.3727C0.949918 15.3421 0.949912 15.3421 0.949912 15.3727Z" fill="url(#paint7_linear_132_194)" fill-opacity="0.5"/>
<path opacity="0.3" fill-rule="evenodd" clip-rule="evenodd" d="M6.21588 26.4582C6.21588 26.4582 7.53267 26.9482 8.48198 26.6726C8.48198 26.6726 8.84945 23.5797 7.68578 21.5892C6.5221 19.5987 4.53161 22.5997 4.53161 22.5997L4.07227 24.4984C4.07227 24.4984 5.17469 25.8151 6.21588 26.4582Z" fill="black" fill-opacity="0.5"/>
<path fill-rule="evenodd" clip-rule="evenodd" d="M3.00195 27.132C3.03258 27.1627 3.0632 27.1933 3.0632 27.2545C3.00196 27.2545 3.00195 27.2239 3.00195 27.1627C3.00195 27.1014 3.03258 27.132 3.0632 27.0708C3.0632 27.0708 3.0632 27.0708 3.09382 27.0708L3.00195 27.132Z" fill="#0EDBFF"/>
<defs>
<radialGradient id="paint0_radial_132_194" cx="0" cy="0" r="1" gradientUnits="userSpaceOnUse" gradientTransform="translate(5.49604 7.71873) scale(23.3046)">
<stop offset="0.00558659" stop-color="#60DBFF"/>
<stop offset="0.0937306" stop-color="#60D5FF"/>
<stop offset="0.211" stop-color="#5FC4FF"/>
<stop offset="0.3446" stop-color="#5DA9FF"/>
<stop offset="0.4903" stop-color="#5A82FF"/>
<stop offset="0.6442" stop-color="#5751FF"/>
<stop offset="0.6844" stop-color="#5643FF"/>
<stop offset="0.7432" stop-color="#563DF8"/>
<stop offset="0.8282" stop-color="#552EE5"/>
<stop offset="0.9287" stop-color="#5315C6"/>
<stop offset="1" stop-color="#5200AB"/>
</radialGradient>
<linearGradient id="paint1_linear_132_194" x1="-0.0270095" y1="10.5244" x2="20.8425" y2="10.5244" gradientUnits="userSpaceOnUse">
<stop offset="0.0111732" stop-color="#81E0FF"/>
<stop offset="0.3224" stop-color="#82DDFF"/>
<stop offset="0.5506" stop-color="#86D4FF"/>
<stop offset="0.7523" stop-color="#8BC4FF"/>
<stop offset="0.9375" stop-color="#94ADFF"/>
<stop offset="1" stop-color="#97A4FF"/>
</linearGradient>
<linearGradient id="paint2_linear_132_194" x1="0.10559" y1="6.418" x2="18.351" y2="6.418" gradientUnits="userSpaceOnUse">
<stop stop-color="#B8C2FF"/>
<stop offset="1" stop-color="#7D72B3"/>
</linearGradient>
<linearGradient id="paint3_linear_132_194" x1="3.06676" y1="19.9989" x2="28.9891" y2="19.9989" gradientUnits="userSpaceOnUse">
<stop stop-color="#B8C2FF"/>
<stop offset="1" stop-color="#7D72B3"/>
</linearGradient>
<linearGradient id="paint4_linear_132_194" x1="1.53488" y1="14.6371" x2="27.4052" y2="14.6371" gradientUnits="userSpaceOnUse">
<stop stop-color="#B8C2FF"/>
<stop offset="1" stop-color="#7D72B3"/>
</linearGradient>
<linearGradient id="paint5_linear_132_194" x1="-0.0263664" y1="11.0216" x2="25.403" y2="11.0216" gradientUnits="userSpaceOnUse">
<stop stop-color="#B8C2FF"/>
<stop offset="1" stop-color="#7D72B3"/>
</linearGradient>
<linearGradient id="paint6_linear_132_194" x1="18.8138" y1="8.9256" x2="19.1628" y2="8.9256" gradientUnits="userSpaceOnUse">
<stop stop-color="#E8DDFF"/>
<stop offset="1" stop-color="#AA8AD8"/>
</linearGradient>
<linearGradient id="paint7_linear_132_194" x1="0.883742" y1="15.376" x2="0.95622" y2="15.376" gradientUnits="userSpaceOnUse">
<stop stop-color="#E8DDFF"/>
<stop offset="1" stop-color="#AA8AD8"/>
</linearGradient>
</defs>
</svg>
