<svg width="76" height="86" viewBox="0 0 76 86" fill="none" xmlns="http://www.w3.org/2000/svg">
<path fill-rule="evenodd" clip-rule="evenodd" d="M5.4375 28.8144C5.4375 28.8144 5.88436 25.0906 6.18226 23.0798C6.18226 23.0798 8.71443 19.5049 12.7361 16.6004L18.0984 16.8983C18.0984 16.8983 7.22492 25.612 5.4375 28.8144Z" fill="url(#paint0_linear_132_218)"/>
<path fill-rule="evenodd" clip-rule="evenodd" d="M12.7364 16.6004C12.7364 16.6004 12.7364 19.5794 9.9808 21.9626C7.22519 24.3459 6.03356 23.5266 6.03356 23.5266L5.36328 28.2931L18.0242 16.8983L12.7364 16.6004Z" fill="url(#paint1_linear_132_218)"/>
<path fill-rule="evenodd" clip-rule="evenodd" d="M70.5287 47.8054C70.5287 51.1569 70.0819 54.5083 69.1882 57.5618C67.4007 63.8178 63.9004 69.329 59.2829 73.6486C56.0059 76.7021 52.0587 79.1598 47.7391 80.7983C43.8663 82.2878 39.6212 83.1071 35.2271 83.1071C34.6313 83.1071 33.961 83.1071 33.3652 83.0326C32.4715 82.9581 31.5033 82.8836 30.6096 82.8092C23.8323 81.9154 17.5763 79.0854 12.5864 74.8402C10.7245 73.2762 9.01159 71.4888 7.4476 69.5524C6.33046 68.0629 5.28779 66.5734 4.39408 64.9349C4.17065 64.5625 3.94723 64.1157 3.7238 63.7433C3.7238 63.7433 3.7238 63.7433 3.7238 63.6688C3.50037 63.222 3.27693 62.8496 3.12798 62.4027C2.53217 61.0622 2.01083 59.6471 1.56398 58.2321C1.26607 57.1894 0.968188 56.1468 0.74476 55.1041C0.595808 54.3593 0.446856 53.6146 0.37238 52.7953C0.148952 51.1569 0 49.5184 0 47.8054C0 46.8373 -1.36392e-05 45.8691 0.148938 44.9009C0.223414 44.3051 0.297904 43.7093 0.37238 43.1135C0.819236 39.6131 1.78741 36.3361 3.20246 33.2826C3.87274 31.7931 4.69199 30.3036 5.5857 28.963C7.07522 26.6543 8.78817 24.4945 10.799 22.5581C17.1295 16.3766 25.8432 12.5783 35.3761 12.5783C35.7485 12.5783 36.1208 12.5783 36.4932 12.5783C36.8656 12.5783 37.3124 12.5783 37.6848 12.6528C39.6957 12.8017 41.7065 13.0996 43.6429 13.5465C44.76 13.8444 45.8772 14.1423 46.9199 14.5147C47.6646 14.7381 48.3349 15.036 49.0797 15.3339C49.601 15.5573 50.1223 15.7808 50.6437 16.0042C50.7181 16.0787 50.7926 16.0787 50.9416 16.1532C54.3675 17.7916 57.4954 20.0259 60.1766 22.707C60.549 23.0794 60.9213 23.4518 61.2937 23.8987C61.5171 24.1966 61.815 24.42 62.0385 24.7179C62.4853 25.1647 62.8577 25.6861 63.2301 26.1329C64.6451 27.9204 65.8368 29.8567 66.8794 31.8676C68.071 34.2508 69.0392 36.783 69.7095 39.3897C70.1563 41.9963 70.5287 44.8264 70.5287 47.8054Z" fill="url(#paint2_radial_132_218)"/>
<path fill-rule="evenodd" clip-rule="evenodd" d="M50.7181 16.0787C50.5692 16.0787 50.4947 16.0787 50.3457 16.1531C49.9734 16.2276 49.601 16.1531 49.2286 16.0787C48.9307 16.0042 48.7818 15.8552 48.4094 15.8552C47.9625 15.7808 47.5901 15.6318 47.1433 15.5573C46.6964 15.4829 46.324 15.3339 45.8772 15.1849C45.5048 15.036 45.3559 15.1105 45.058 15.1849C44.7601 15.2594 44.5366 15.1105 44.2387 15.036C43.9408 14.887 43.5684 14.887 43.2705 14.8126C42.3768 14.6636 41.4831 14.3657 40.5894 14.1423C40.0681 13.9933 39.5467 13.9933 38.9509 13.9933C38.5041 13.9933 38.1317 14.1423 37.6848 14.1423C37.3869 14.1423 37.1635 14.0678 36.8656 14.0678C36.5677 13.9933 36.2698 14.0678 35.9719 14.0678C35.525 13.9933 35.3016 13.9189 34.8547 14.0678C34.4824 14.1423 34.2589 14.1423 33.8866 14.2168C33.5142 14.2168 33.0673 14.3657 32.6949 14.4402C32.0247 14.5891 31.2799 14.7381 30.6096 14.7381C30.1628 14.7381 29.5669 14.5891 29.1946 14.7381C28.9711 14.8126 28.8222 15.1105 28.5988 15.2594C28.2264 15.6318 27.854 15.9297 27.5561 16.3021C27.2582 16.6745 26.9603 17.1213 26.9603 17.6427C26.9603 18.0895 27.1837 18.6108 27.4071 18.9832C27.6306 19.4301 27.705 19.8025 27.2582 20.1004C26.7369 20.4727 26.0666 20.7706 25.4708 20.9941C25.0239 21.143 24.6515 21.2175 24.3536 20.9196C24.2047 20.8451 24.1302 20.6217 23.9813 20.4727C23.8323 20.3983 23.6089 20.4727 23.4599 20.5472C23.0131 20.6962 22.5662 20.8451 22.1194 20.9196C21.8214 20.9941 21.598 21.143 21.3001 21.143C21.0022 21.2175 20.7788 20.9941 20.4064 21.0685C19.9596 21.143 19.4382 21.3665 18.9914 21.3665C18.619 21.3665 18.1721 21.2175 17.8742 21.0685C17.7253 20.9941 17.6508 20.8451 17.4274 20.9196C17.2784 20.9196 17.055 21.143 16.9805 21.292C16.8316 21.4409 16.8316 21.6644 16.6826 21.8133C16.5337 22.0367 16.4592 22.1857 16.3102 22.4091C16.0868 22.7815 15.8634 23.1539 15.64 23.5263C15.491 23.7497 15.342 24.1221 15.1186 24.3455C15.0441 24.4944 14.8207 24.5689 14.6718 24.6434C14.2994 24.8668 13.927 25.1647 13.5546 25.3882C12.8843 25.9095 12.2141 26.5053 11.5438 27.0266C11.0224 27.399 10.2777 27.6224 9.68188 27.9203C9.3095 28.0693 8.93712 28.2182 8.56474 28.3672C8.41578 28.4417 8.19235 28.4417 8.11788 28.5906C7.96892 28.7396 7.89445 28.8885 7.81998 29.112C7.52207 29.4843 7.14968 29.9312 6.92626 30.378C6.7773 30.676 6.70283 30.8994 6.55388 31.1973C6.40492 31.5697 6.18149 31.942 6.10702 32.3889C5.80911 33.2081 5.80912 34.1018 5.43674 34.9211C5.28779 35.3679 4.98989 35.8148 4.76646 36.2616C4.39408 37.0064 4.31959 37.9001 4.24512 38.7194C4.17064 39.1662 4.24512 39.762 4.3196 40.2089C4.39407 40.7302 4.39408 41.2515 4.39408 41.7729C4.39408 42.2942 4.0217 42.89 3.7238 43.2624C3.42589 43.6348 2.90456 43.7837 2.53218 44.1561C2.23427 44.454 1.86189 44.7519 1.71294 45.1988C1.63846 45.3477 1.71294 45.5711 1.71294 45.7946C1.63846 46.2414 1.48952 46.6138 1.48952 47.0607C1.41504 47.582 1.41504 48.1033 1.41504 48.6991C1.41504 48.997 1.41504 49.2205 1.41504 49.5184C1.41504 49.8163 1.4895 50.0397 1.56398 50.2631C1.56398 50.4121 1.56398 50.6355 1.56398 50.7845C1.56398 51.0079 1.71294 51.2313 1.71294 51.3803C1.86189 51.9016 1.93636 52.3485 2.01084 52.8698C2.08531 53.3166 2.30874 53.7635 2.38322 54.2104C2.60665 54.8062 2.68113 55.402 2.83008 56.0723C2.90455 56.5191 2.90456 57.0404 2.97904 57.4873C3.05351 57.8597 3.12798 58.2321 3.12798 58.6044C3.12798 59.2002 2.97904 59.7216 2.97904 60.3174C2.97904 61.2856 3.35141 62.2538 3.57484 63.222C3.64931 63.5199 3.72378 63.7433 3.79826 64.0412C1.34055 59.2747 0 53.838 0 48.1033C0 41.1026 2.01085 34.6232 5.51122 29.1864C7.00074 26.8777 8.71368 24.7179 10.7245 22.856C17.055 16.6745 25.7687 12.8762 35.3016 12.8762C36.0464 12.8762 36.8656 12.8762 37.6104 12.9507C42.2279 12.8762 46.6964 14.0678 50.7181 16.0787Z" fill="url(#paint3_linear_132_218)"/>
<path opacity="0.1" d="M50.418 79.074C50.2828 78.7366 50.0604 78.2598 49.7034 77.6648C48.9774 76.4548 47.697 74.7597 45.4661 72.7557C43.2962 70.8065 41.3973 68.6318 40.0385 66.9402C39.3598 66.0954 38.8176 65.3732 38.4456 64.863C38.4127 64.8178 38.3811 64.7743 38.3509 64.7326C38.5158 64.7128 38.7034 64.6906 38.9119 64.6664C39.7914 64.5645 41.0418 64.4279 42.5242 64.2892C45.4906 64.0117 49.3781 63.7268 53.0773 63.6944C56.7962 63.6618 60.2571 63.8862 62.4088 64.5945C63.4995 64.9535 64.1257 65.3964 64.3627 65.8683C64.5724 66.2857 64.5527 66.8988 63.8674 67.8443L63.8662 67.8461C60.9687 71.8805 57.4805 74.746 54.7121 76.6038C53.3289 77.5321 52.1282 78.2069 51.2755 78.6488C50.928 78.8288 50.6384 78.9701 50.418 79.074Z" fill="black" stroke="black"/>
<path opacity="0.4" fill-rule="evenodd" clip-rule="evenodd" d="M43.4209 13.4723C41.4846 13.0255 39.5482 12.7276 37.4629 12.5786C37.0905 12.5786 36.6436 12.5042 36.2712 12.5042C37.0905 12.951 37.9097 13.7702 38.0587 14.664C38.3566 16.1535 38.8779 17.494 39.1013 18.9091C39.3992 20.3241 39.3248 22.1116 38.6545 23.3776C38.2821 24.1969 37.7608 24.8672 37.0905 25.5375C36.6436 25.9843 36.1968 26.2822 35.8989 26.878C35.601 27.4738 35.2286 27.9952 34.8562 28.5165C34.3349 29.3357 33.7391 30.155 33.0688 30.8997C32.8454 31.1976 32.6219 31.3466 32.3985 31.6445C32.1751 32.0169 32.0261 32.3892 31.7282 32.6871C31.0579 33.3574 30.0897 33.8043 29.2705 34.1022C28.1534 34.549 27.1852 34.9959 26.1425 35.5917C24.653 36.4109 23.3869 37.3791 21.6739 37.4536C21.0781 37.4536 20.4823 37.3791 19.8865 37.4536C19.1418 37.5281 18.4715 37.826 17.8012 37.9749C17.2054 38.1239 16.5351 38.1984 15.9393 38.3473C14.8966 38.4963 14.0774 38.8687 13.1092 39.0921C11.8431 39.39 10.5026 39.3155 9.16199 39.5389C7.97037 39.6879 7.00218 39.8368 5.81057 39.5389C4.02315 39.0921 3.05495 38.2728 3.42733 36.3365C3.65076 35.0704 3.5763 34.1022 2.98049 33.2085C1.56545 36.262 0.597246 39.6134 0.150391 43.0393C0.969626 43.4117 1.93781 43.5606 2.75705 43.6351C5.36371 43.933 8.1938 42.7414 10.577 41.8477C11.7686 41.4008 13.0347 40.7305 14.3753 40.5816C15.7903 40.4326 16.982 40.5816 18.397 40.2837C23.1635 39.0921 27.8555 37.4536 32.1751 34.9214C33.9625 33.8788 34.7072 32.3892 35.9733 30.8997C37.016 29.5592 38.2821 28.5165 39.5482 27.3994C40.8143 26.2822 41.9314 25.2395 42.6762 23.75C43.4954 22.186 44.1657 20.3986 44.5381 18.6857C44.9105 16.7493 44.3891 14.9619 43.4209 13.4723ZM43.1975 18.2388C43.123 18.6112 43.0486 19.058 42.9741 19.4304C42.6762 20.3986 42.0804 21.3668 41.1867 21.8137C40.8143 22.0371 40.2185 21.8881 39.995 21.5157C39.8461 21.2923 39.8461 20.9944 39.8461 20.771C39.7716 20.2497 39.6971 19.8028 39.6971 19.2815C39.6971 18.0899 39.6971 16.8982 39.5482 15.7066C39.6971 16.3769 39.5482 14.664 40.5909 14.2171C41.1122 13.9937 41.8569 14.2171 42.2293 14.5895C42.6762 15.1108 42.8251 15.93 42.9741 16.5259C43.123 17.1961 43.272 17.643 43.1975 18.2388Z" fill="url(#paint4_linear_132_218)"/>
<path opacity="0.4" fill-rule="evenodd" clip-rule="evenodd" d="M38.0578 74.6168C37.9834 74.6168 37.8344 74.6913 37.76 74.6913L38.4302 74.7658C38.4302 74.6913 38.2813 74.6168 38.0578 74.6168ZM38.0578 74.6168C37.9834 74.6168 37.8344 74.6913 37.76 74.6913L38.4302 74.7658C38.4302 74.6913 38.2813 74.6168 38.0578 74.6168ZM69.4867 39.2407C69.4867 40.1344 69.1888 41.1026 69.1888 41.9963C69.1888 43.2624 68.9654 44.2306 68.6675 45.4222C68.444 46.2415 67.9972 46.8373 67.7738 47.6565C67.4759 48.5502 67.029 49.3695 66.5822 50.1887C65.6884 51.8272 64.7203 53.5401 64.3479 55.402C63.9755 57.115 63.901 58.53 63.0818 60.094C62.2625 61.5835 61.0709 62.8496 60.1772 64.3391C59.8048 65.0094 59.5069 65.0094 58.8367 65.4563C58.1664 65.9776 57.4961 66.7224 56.8258 67.2437C55.4108 68.3608 54.0702 69.1801 52.2828 69.8504C51.1656 70.2972 50.123 70.5951 48.9313 70.7441C48.1866 70.893 47.4418 70.7441 46.6971 70.893C45.5055 71.1164 44.3883 71.4143 43.1967 71.7867C41.3348 72.3825 39.3984 72.7549 37.5365 73.3507C36.196 73.7231 34.9299 74.021 33.5893 74.2444C32.7701 74.3934 32.0998 74.8403 31.2806 74.6913C30.4613 74.5423 29.6421 74.2444 28.8228 73.9465C27.7802 73.6486 26.8865 73.5742 25.7693 73.5742C24.2798 73.5742 22.4924 73.7976 20.9284 73.4997C19.2154 73.2018 17.577 72.6804 15.864 72.3825C14.8214 72.1591 14.0766 71.7123 13.1084 71.3399C12.2147 70.893 11.321 70.8185 10.3528 70.5206C9.38461 70.2227 8.41643 69.7759 7.44824 69.5524C8.93776 71.4888 10.6507 73.2763 12.5871 74.8402C17.577 79.0854 23.7585 81.9155 30.6103 82.8092C31.504 82.8837 32.3977 83.0326 33.3659 83.0326C35.3767 82.5858 37.3131 81.9899 39.3239 81.3941C42.6754 80.3515 45.5799 78.3406 48.9313 77.3724C50.1974 77 51.3146 76.6277 52.4317 76.0319C53.3254 75.585 54.2192 75.5105 55.0384 75.1381C58.1664 73.7976 60.4751 70.8185 61.8902 67.8395C62.486 66.4989 63.0818 65.0094 64.2734 63.9668C64.7203 63.5199 65.3161 63.222 65.6884 62.7007C66.1353 62.1793 66.4332 61.5835 66.8801 60.9877C67.6248 60.0195 68.2951 58.9769 68.9654 58.0087C69.0399 57.8597 69.1143 57.7852 69.1888 57.6363C70.0825 54.5083 70.5294 51.2314 70.5294 47.8799C70.5294 44.8264 70.157 41.9963 69.4867 39.2407ZM37.0897 74.8402C37.2386 74.7658 37.3876 74.6168 37.5365 74.5424C37.6855 74.4679 37.9089 74.5423 38.0578 74.6168C38.3558 74.5423 38.5792 74.5423 38.8026 74.6913C38.9516 74.7658 39.175 74.9147 39.2495 75.0637C39.3239 75.2126 39.2495 75.2871 39.1005 75.4361C38.9516 75.585 38.8771 75.585 38.6537 75.585C38.2813 75.6595 37.9089 75.734 37.4621 75.6595C37.2386 75.6595 36.8662 75.585 36.7173 75.4361C36.7173 75.1382 36.9407 74.9892 37.0897 74.8402ZM39.3984 79.4578C39.175 79.7557 38.9516 80.0536 38.6537 80.2025C38.3558 80.4259 38.0579 80.5004 37.8344 80.7238C37.0897 81.0962 36.3449 81.5431 35.6002 81.7665C35.3022 81.841 34.9299 81.841 34.632 81.841C34.2596 81.9155 33.8127 81.9155 33.4404 81.9155C32.9935 81.9155 32.4722 81.9899 32.0253 82.0644C31.5785 82.0644 31.0571 82.1389 30.6103 82.1389C29.791 82.2134 29.1207 82.0644 28.376 81.7665C27.7057 81.5431 27.0354 81.1707 26.4396 80.7983C25.9928 80.5004 25.6204 80.128 25.3225 79.7557C24.9501 79.4578 24.7267 79.0854 24.5032 78.6385C24.4288 78.4896 24.3543 78.3406 24.4288 78.1172C24.4288 78.0427 24.5032 77.9682 24.5032 77.9682C24.6522 77.8938 24.8011 77.7448 24.8756 77.7448C25.099 77.5959 25.397 77.5959 25.6949 77.5214C26.3651 77.4469 27.0354 77.5214 27.7057 77.5959C28.0781 77.5959 28.4505 77.6703 28.8228 77.5959C29.3442 77.5214 29.8655 77.3724 30.3124 77.2235C31.504 76.9256 32.6956 76.6277 33.8872 76.5532C35.0788 76.4042 36.4194 76.2553 37.611 76.4787C38.0579 76.5532 38.6537 76.7022 39.0261 76.9256C39.324 77.149 39.5474 77.4469 39.6963 77.7448C39.9198 78.3406 39.7708 78.9364 39.3984 79.4578ZM48.7824 76.4043C48.559 76.6277 48.2611 76.7766 47.9632 77C47.5908 77.298 47.2184 77.4469 46.846 77.6703C46.5481 77.8938 46.1757 78.0427 45.8778 78.1917C45.5054 78.3406 45.2075 78.4896 44.8352 78.713C44.4628 78.8619 44.0904 79.0109 43.718 79.1599C43.4201 79.2343 43.1222 79.3833 42.8243 79.3088C42.6009 79.2343 42.303 79.1599 42.154 79.0109C41.8561 78.713 41.9306 78.4151 42.0051 78.2661C42.0051 78.0427 41.9306 77.6703 42.0051 77.3724C42.0796 77.2235 42.2285 77 42.303 76.8511C42.6009 76.2553 43.0478 75.8829 43.4946 75.4361C43.867 75.0637 44.3138 74.7658 44.8352 74.5424C45.431 74.3189 46.1757 74.2444 46.7715 74.17C47.4418 74.0955 48.6334 74.021 49.0058 74.8402C49.2293 75.3616 49.1548 75.8829 48.7824 76.4043ZM38.5047 74.6913C38.4302 74.6913 38.2813 74.6168 38.1323 74.5424C38.0579 74.5424 37.9089 74.6168 37.8344 74.6168L38.5047 74.6913Z" fill="url(#paint5_linear_132_218)"/>
<path opacity="0.4" fill-rule="evenodd" clip-rule="evenodd" d="M66.6571 31.7186V31.8676C66.5826 32.8357 66.2102 33.506 65.8378 34.3997C65.5399 35.1445 65.242 35.7403 64.8696 36.4106C64.2738 37.5277 63.9759 38.5704 63.5291 39.8365C62.7843 41.6984 62.4864 43.7092 61.3693 45.4222C60.4011 46.9862 60.1032 48.8481 59.3584 50.4866C58.4647 52.3484 57.0497 53.6145 55.5601 54.9551C54.8898 55.5509 54.294 56.2957 53.6982 56.966C53.0279 57.6362 52.5811 58.53 51.7619 59.1258C50.1234 60.3174 48.2615 61.36 46.623 62.6261C45.6548 63.3709 44.9846 64.4136 43.8674 65.0094C42.8248 65.6796 41.6331 66.1265 40.5905 66.7223C39.6223 67.3181 38.6541 67.9139 37.6114 68.3608C36.4198 68.8076 35.4516 68.6587 34.1855 68.7332C32.845 68.8076 31.4299 69.18 30.1638 69.6269C29.1212 69.9993 28.2275 70.3716 27.1103 69.9993C26.3656 69.7758 25.7697 69.2545 25.025 69.1055C23.2376 68.7332 21.3012 69.1055 19.5138 69.0311C18.0987 68.9566 16.6092 68.6587 15.1942 68.3608C13.8536 68.1374 12.7365 67.1692 11.4704 66.7968C9.8319 66.3499 7.96999 66.7223 6.48047 66.1265C5.81018 65.9031 5.21438 65.3817 4.69305 65.0094C4.5441 64.9349 4.46962 64.8604 4.32067 64.7859C4.09724 64.4136 3.87382 63.9667 3.65039 63.5943C4.02277 63.7433 4.39515 63.8922 4.76753 64.1157C6.77838 65.0838 9.31056 64.9349 11.4704 65.3073C13.9281 65.7541 16.3858 66.3499 18.8435 66.6478C19.8861 66.7968 20.8543 66.7223 21.897 66.6478C23.312 66.4989 24.7271 66.4989 26.1421 66.2755C28.5254 65.8286 30.9086 64.7115 33.3663 65.0094C33.8132 65.0838 34.3345 65.3073 34.7813 65.3073C35.4516 65.3073 35.973 64.7115 36.4943 64.3391C37.4625 63.7433 38.5051 63.8177 39.3989 62.9985C40.2181 62.1793 41.1863 61.6579 42.2289 61.1366C44.9101 59.796 47.0699 57.5618 49.2297 55.402C51.0171 53.6145 52.7301 51.7526 53.9217 49.5928C55.1133 47.433 54.8899 44.8264 55.7836 42.5921C56.4539 40.9536 56.9752 39.4641 58.0179 38.0491C58.5392 37.3788 59.135 36.783 59.6563 36.1127C60.2521 35.4424 60.55 34.6976 60.9969 33.8784C61.4437 32.9847 62.114 32.2399 62.4864 31.2717C62.8588 30.378 62.7843 29.6333 62.7843 28.6651C62.7843 27.6969 62.7843 26.6542 62.7843 25.6116C64.3483 27.7714 65.6144 29.7077 66.6571 31.7186Z" fill="url(#paint6_linear_132_218)"/>
<path opacity="0.4" fill-rule="evenodd" clip-rule="evenodd" d="M61.0703 23.7499C60.6979 23.3775 60.3255 22.9307 59.9532 22.5583C57.272 19.8771 54.144 17.7173 50.7181 16.0044C50.6436 15.9299 50.5692 15.9299 50.4202 15.8554C49.8989 15.632 49.3776 15.4086 48.8562 15.1852C48.1115 14.8873 47.4412 14.5893 46.6964 14.3659C46.9198 14.5149 47.2178 14.6638 47.2922 14.6638C47.7391 14.8873 48.1115 15.0362 48.4094 15.4086C48.7073 15.781 48.8562 16.0789 48.8562 16.6002C48.8562 17.0471 48.9307 17.5684 49.0052 18.0152C49.0797 18.4621 49.3031 18.8345 49.3776 19.2813C49.452 19.5048 49.452 19.7282 49.5265 20.0261C49.6755 20.6219 49.8989 21.2177 50.0478 21.8135C50.2713 22.9307 49.6755 23.8244 49.3031 24.7926C48.7073 26.3566 48.3349 27.9205 47.8136 29.559C47.4412 30.8251 46.7709 32.0912 45.8027 33.0594C44.8345 33.9531 43.4195 34.1765 42.6002 35.1447C41.8555 36.0384 40.9618 36.8577 39.9191 37.3045C38.7275 37.9003 37.3869 38.3472 36.1208 38.7196C35.2271 39.0175 34.2589 39.0175 33.2907 39.2409C32.0991 39.5388 31.0565 40.1346 30.0138 40.5815C28.8222 41.1028 27.7795 41.6986 26.5879 42.2199C25.3963 42.7413 24.3536 43.4116 23.162 43.8584C22.5662 44.0818 21.9704 44.2308 21.4491 44.3797C20.2575 44.8266 19.1403 45.5714 17.8742 45.7203C17.4274 45.7948 16.9805 45.8693 16.5337 45.8693C16.1613 45.8693 15.8634 45.9437 15.5655 46.0182C14.4483 46.4651 13.778 47.6567 12.512 47.7312C11.3203 47.7312 10.2032 47.6567 9.08605 47.8056C8.49025 47.8801 7.96893 47.8056 7.4476 47.8801C7.29865 47.8801 7.07521 47.9546 6.92626 47.8801C6.7773 47.8056 6.55389 47.6567 6.33046 47.5077C5.8836 47.2843 5.51122 46.9864 5.13884 46.6885C4.39408 46.0927 3.42589 46.4651 2.60666 46.2416C2.38323 46.1672 2.01085 46.2416 1.78742 46.0927C1.26609 45.7948 0.595794 45.1245 0.148938 44.7521C0.0744623 45.7203 0 46.6885 0 47.6567C0 49.3696 0.148952 51.0081 0.37238 52.6466C0.446856 53.3913 0.595808 54.1361 0.74476 54.9553C0.968188 55.998 1.26607 57.1151 1.56398 58.0833C2.01083 59.4984 2.53217 60.9134 3.12798 62.254C4.09616 62.4029 5.06435 62.5519 6.03254 62.4029C7.44758 62.1795 8.78815 61.9561 10.2032 62.0305C11.5438 62.105 12.7354 62.5519 14.0015 62.7753C15.4165 62.9987 16.906 63.2222 18.3956 63.2966C19.7361 63.3711 21.0767 63.5201 22.3428 63.669C23.311 63.818 24.3536 63.9669 25.3218 64.0414C27.9285 64.1903 30.4607 63.5201 32.9928 63.2966C34.2589 63.1477 35.525 62.8498 36.7911 62.5519C37.5359 62.4029 38.2806 62.1795 38.9509 61.7326C39.8446 61.1368 40.4404 60.3176 41.1852 59.6473C42.0789 58.9026 42.9726 58.1578 43.8663 57.4875C44.6111 56.8917 45.3559 56.2214 46.1751 55.7001C46.7709 55.3277 47.4412 54.8809 48.037 54.434C49.1541 53.5403 50.1223 52.4976 51.0905 51.3805C52.4311 49.8165 52.9524 47.6567 53.4737 45.7203C53.9951 43.9329 54.293 42.2199 55.2612 40.5815C55.708 39.8367 56.0804 38.943 56.3038 38.0493C56.4528 37.5279 56.5273 36.8577 56.7507 36.3363C57.1231 35.5171 57.9423 34.8468 58.3892 34.1021C58.7615 33.5062 59.2084 32.9104 59.4318 32.1657C59.9532 30.8251 60.3255 29.4845 60.549 27.995C60.6979 26.9524 61.0703 25.9097 61.3682 24.867C61.4427 24.7181 61.4427 24.4947 61.5171 24.3457C61.5171 24.2712 61.2937 23.9733 61.0703 23.7499ZM15.1186 47.8801C15.1931 47.7312 16.5337 47.2098 16.6826 47.1354C16.6826 47.1354 16.6826 47.1354 16.6081 47.1354L15.7144 47.5077C16.6826 47.2098 18.3955 48.178 17.5763 49.2207C17.3529 49.5186 16.6826 49.6675 16.3102 49.742C15.9379 49.8165 15.7144 49.6675 15.491 49.3696C15.2676 49.0717 15.1186 48.6249 15.1186 48.2525C15.1186 48.178 15.1186 47.9546 15.1186 47.8801ZM4.6175 57.3386C3.57483 57.0407 2.90454 56.6683 2.30874 55.7746C1.86188 55.1788 1.56399 54.6574 1.41504 53.9871C1.34056 53.3913 1.11713 52.9445 1.26608 52.3487C1.34055 51.9018 1.56399 51.3805 1.78742 51.0081C2.01085 50.5612 2.38322 50.0399 2.38322 49.891C3.42588 49.8165 4.39407 49.742 5.36226 49.742C6.4794 49.742 7.67102 49.891 8.78816 49.891C9.30949 49.891 9.83082 49.891 10.3522 49.8165C10.8735 49.742 11.3203 49.5931 11.8417 49.5186C12.7354 49.3696 13.5546 49.2952 14.3739 49.6675C14.9697 49.9654 15.2676 50.7102 15.5655 51.306C15.7144 51.6784 15.8634 51.9018 15.8634 52.3487C15.8634 52.87 15.8634 53.3169 15.7889 53.7637C15.7889 53.9127 15.7144 54.1361 15.7144 54.285C14.9697 55.849 13.0333 56.3704 11.5438 56.9662C9.3095 57.8599 6.85178 57.9344 4.6175 57.3386ZM20.4809 60.7645C20.034 61.9561 18.0977 62.3284 16.9805 62.4029C16.4592 62.4029 15.7889 62.3284 15.2676 62.0305C14.9697 61.8816 14.7462 61.5837 14.5228 61.2858C14.3739 61.0624 14.1504 60.69 13.5546 60.8389C13.7036 60.1686 13.8525 59.5728 14.1504 58.977C14.3739 58.6791 14.6717 58.4557 14.9697 58.1578C15.491 57.7109 16.0868 57.2641 16.6826 56.9662C17.6508 56.4448 18.6935 56.8172 19.5872 57.2641C20.2575 57.562 20.7043 58.0088 20.8533 58.6791C21.0767 59.4984 20.7788 60.0197 20.4809 60.7645ZM33.5886 60.541C33.2163 61.3603 32.6949 61.5837 31.9502 62.0305C31.0565 62.4774 29.8649 62.8498 28.8967 62.8498C28.3753 62.8498 27.854 62.6264 27.4071 62.4029C27.1092 62.254 26.7369 62.1795 26.5134 61.9561C25.8431 61.2858 25.6942 60.3921 26.141 60.541C25.8431 59.9452 25.6942 59.3494 25.6197 58.7536C25.7687 58.6791 25.8431 58.5302 25.8431 58.3812C26.2155 57.7109 26.8858 57.1151 27.6306 56.7427C28.8222 56.0725 30.3862 55.9235 31.7267 56.5193C32.3226 56.7428 32.6949 57.0407 33.0673 57.4875C33.2908 57.7109 33.5142 57.8599 33.7376 58.1578C33.961 58.7536 33.8121 59.8707 33.5886 60.541ZM37.5359 60.3921C37.3125 60.541 36.9401 60.8389 36.7166 60.8389C36.4932 60.7645 36.1208 60.3921 36.1208 60.0942L35.9719 59.9452C36.2698 59.4239 36.5677 58.977 36.8656 58.4557C37.3125 58.6791 37.7593 58.6047 38.0572 59.126C38.4296 59.6473 37.9083 60.0942 37.5359 60.3921ZM47.5901 36.9321C47.2178 37.4535 46.6964 37.9748 46.1006 38.1982C45.3559 38.4961 44.3132 38.794 44.2387 37.6024C44.2387 36.9321 44.3132 36.4108 44.6111 35.815C45.058 34.9213 45.4303 34.6979 46.324 34.251C46.6219 34.251 46.9943 34.4 47.2178 34.4744C47.6646 34.6234 48.1115 35.0702 48.1859 35.5916C48.2604 36.1129 47.888 36.5598 47.5901 36.9321ZM56.8996 31.9423C56.5273 33.1339 56.0059 34.251 55.4846 35.2937C54.8888 36.6342 54.8143 38.0493 54.4419 39.4643C54.293 40.2836 53.8461 41.1773 53.1014 41.4752C52.729 41.6241 52.4311 41.5497 52.0587 41.5497C51.6863 41.5497 51.0905 41.6986 51.0905 41.9965C50.8671 41.4007 50.5692 40.6559 50.4202 40.0601C50.2713 39.3899 50.1968 38.6451 50.1223 37.9003C49.9734 37.1556 49.9734 36.4108 49.8989 35.6661C49.8244 34.9958 49.6755 34.251 49.6755 33.5807C49.6755 31.272 51.016 28.3674 53.1758 27.3247C53.8461 27.0268 54.5164 26.8779 55.2612 26.9524C56.0804 27.1013 56.6017 27.3247 56.9741 28.144C57.421 29.2611 57.1975 30.7506 56.8996 31.9423Z" fill="url(#paint7_linear_132_218)"/>
<path opacity="0.4" fill-rule="evenodd" clip-rule="evenodd" d="M46.7479 35.0037C46.6735 35.0781 46.5245 35.0781 46.45 35.1526C46.2266 35.1526 46.0777 35.0781 45.9287 35.1526L46.7479 35.0037Z" fill="url(#paint8_linear_132_218)"/>
<path fill-rule="evenodd" clip-rule="evenodd" d="M36.5463 52.1333C35.0567 51.3886 36.7697 44.7602 38.2592 43.2707C39.7487 41.7812 43.6959 45.207 44.1428 47.9627C44.6641 50.7927 40.0466 53.7718 36.5463 52.1333Z" fill="url(#paint9_linear_132_218)"/>
<path opacity="0.4" fill-rule="evenodd" clip-rule="evenodd" d="M2.30909 49.8908C2.23462 49.8908 2.16016 49.8908 2.16016 49.8908C2.30911 49.8163 2.30909 49.8163 2.30909 49.8908Z" fill="url(#paint10_linear_132_218)"/>
<path fill-rule="evenodd" clip-rule="evenodd" d="M42.0049 13.1742L48.1864 10.7165C48.1864 10.7165 58.0172 14.5148 64.2732 22.9306L64.6456 28.2929C64.6456 28.2929 52.8784 23.7498 42.0049 13.1742Z" fill="url(#paint11_linear_132_218)"/>
<path fill-rule="evenodd" clip-rule="evenodd" d="M64.4976 67.6161C64.4976 67.6161 59.2843 73.2763 55.4115 74.4679L52.209 75.4361C52.209 75.4361 37.5373 70.1483 36.718 60.9877C36.0477 53.2422 49.23 41.4005 52.8048 39.9855C56.3797 38.5704 60.5503 39.3897 60.5503 39.3897L64.4976 67.6161Z" fill="url(#paint12_linear_132_218)"/>
<path fill-rule="evenodd" clip-rule="evenodd" d="M60.5503 39.3894C57.4223 38.4212 44.0911 44.6027 40.4418 58.3808C39.6971 61.2109 46.4744 71.8609 54.5923 74.4676C57.2734 75.3613 69.6364 64.5623 70.1577 57.2637C70.6791 49.965 65.1678 40.8789 60.5503 39.3894Z" fill="url(#paint13_linear_132_218)"/>
<path fill-rule="evenodd" clip-rule="evenodd" d="M41.3349 60.02C43.2712 44.3801 57.4961 39.2412 60.6241 40.2094C62.8584 40.9542 66.1354 44.2311 68.0717 47.4336C66.1354 43.4119 63.2308 40.135 60.6241 39.3157C57.4961 38.3475 44.1649 44.529 40.5156 58.3071C40.2922 59.2753 40.888 61.2117 42.2286 63.4459C41.4093 62.0309 41.1859 60.7648 41.3349 60.02Z" fill="url(#paint14_linear_132_218)"/>
<path opacity="0.3" d="M20.2268 76.0966C20.2081 76.4657 20.1858 76.7634 20.1677 76.9721C19.1956 77.1702 18.064 77.0613 17.1058 76.8729C16.5809 76.7697 16.1247 76.6461 15.8002 76.5485C15.6381 76.4997 15.5096 76.4576 15.4225 76.428C15.3877 76.4162 15.3596 76.4064 15.3386 76.3989C14.137 75.648 12.8857 74.5061 11.9185 73.5299C11.4322 73.039 11.0237 72.5961 10.7371 72.2762C10.6212 72.1468 10.5253 72.0377 10.4524 71.9539L11.4879 67.6737C11.4885 67.6728 11.4891 67.672 11.4897 67.6711C11.5239 67.6217 11.5751 67.5487 11.6417 67.457C11.7749 67.2732 11.9691 67.0149 12.211 66.7194C12.6975 66.1249 13.3643 65.3953 14.1051 64.8176C14.8581 64.2305 15.6191 63.8544 16.3039 63.8516C16.9333 63.849 17.6206 64.1638 18.2628 65.2622C19.6173 67.5792 20.0956 70.5741 20.2246 73.0329C20.2886 74.2549 20.2658 75.3288 20.2268 76.0966Z" fill="black" stroke="black"/>
<path fill-rule="evenodd" clip-rule="evenodd" d="M17.8747 75.6599L19.8856 75.1386C19.8856 75.1386 20.8538 70.9679 19.1408 66.2014C17.2044 60.8392 10.0547 56.8175 9.01208 56.743C7.96941 56.6685 6.92676 59.0518 6.92676 59.0518L17.8747 75.6599Z" fill="url(#paint15_linear_132_218)"/>
<path fill-rule="evenodd" clip-rule="evenodd" d="M50.1223 79.7559L46.6964 84.1499C46.6964 84.1499 40.8128 86.98 34.8548 85.6395L30.5352 82.7349L50.1223 79.7559Z" fill="url(#paint16_linear_132_218)"/>
<path fill-rule="evenodd" clip-rule="evenodd" d="M5.43704 62.3285C5.80942 60.69 7.22447 58.0089 8.49056 57.711C9.75665 57.4131 15.8637 63.2222 17.2787 66.946C18.6938 70.6698 17.949 74.766 17.8745 75.5852C17.8001 76.4044 10.9483 74.0957 7.4479 71.2656C4.02201 68.4355 5.43704 62.3285 5.43704 62.3285Z" fill="url(#paint17_linear_132_218)"/>
<path fill-rule="evenodd" clip-rule="evenodd" d="M17.2777 66.946C15.8626 63.2222 9.83009 57.4875 8.48952 57.7109C7.96819 57.7854 7.44686 58.3067 7 58.9025C7.2979 58.6046 7.59579 58.4557 7.8937 58.3812C9.15979 58.0833 15.3413 62.7008 16.7564 66.4246C18.4693 70.9676 17.5011 74.2446 17.3522 75.7341C17.6501 75.7341 17.8735 75.7341 17.8735 75.5852C17.948 74.7659 18.6927 70.6697 17.2777 66.946Z" fill="url(#paint18_linear_132_218)"/>
<path fill-rule="evenodd" clip-rule="evenodd" d="M37.9087 50.7101C36.7171 50.1143 38.0576 44.6031 39.2493 43.337C40.4409 42.1454 43.5689 44.9755 44.0157 47.2842C44.4626 49.593 40.7388 52.0507 37.9087 50.7101Z" fill="url(#paint19_linear_132_218)"/>
<path fill-rule="evenodd" clip-rule="evenodd" d="M48.1864 10.7165C48.1864 10.7165 48.4843 14.4403 52.7294 19.0578C56.9745 23.6754 64.2732 22.9306 64.2732 22.9306L64.6456 28.2929C64.6456 28.2929 49.1546 21.4411 42.0049 13.1742L48.1864 10.7165Z" fill="url(#paint20_linear_132_218)"/>
<path fill-rule="evenodd" clip-rule="evenodd" d="M60.3251 44.0074C60.1762 44.1564 59.7293 44.4543 60.1017 44.6777C60.1761 44.7522 60.2506 44.6777 60.3251 44.7522C60.3996 44.7522 60.3996 44.8267 60.474 44.8267C60.6975 44.6777 60.623 43.9329 60.3251 44.0074Z" fill="#0EDBFF"/>
<path fill-rule="evenodd" clip-rule="evenodd" d="M74.9247 37.7511C74.7757 37.9001 74.3289 38.198 74.7013 38.4214C74.7758 38.4959 74.8502 38.4214 74.9247 38.4959C74.9992 38.4959 74.9992 38.5703 75.0737 38.5703C75.3716 38.3469 75.2226 37.6766 74.9247 37.7511Z" fill="#0EDBFF"/>
<path fill-rule="evenodd" clip-rule="evenodd" d="M68.5185 63.669C68.3695 63.8179 67.9226 64.1158 68.295 64.3393C68.3695 64.4137 68.444 64.3393 68.5185 64.4137C68.5929 64.4137 68.5929 64.4882 68.6674 64.4882C68.9653 64.3393 68.8164 63.5945 68.5185 63.669Z" fill="#0EDBFF"/>
<path fill-rule="evenodd" clip-rule="evenodd" d="M61.5918 46.614C61.7407 46.5395 61.8152 46.5395 61.9642 46.5395C61.9642 46.6884 62.1131 46.9863 61.8897 47.1353C61.7407 47.2098 61.7408 46.9119 61.6663 46.8374L61.5918 46.614Z" fill="#0EDBFF"/>
<path fill-rule="evenodd" clip-rule="evenodd" d="M38.4302 48.1781C38.6536 48.2526 38.8771 48.4015 39.1005 48.476C39.175 48.4015 39.2494 48.4015 39.3984 48.4015C39.5473 48.327 39.6218 48.1781 39.6218 48.0291C39.6963 47.8057 39.6218 47.6568 39.4729 47.5078C39.3984 47.4333 39.3239 47.2844 39.2494 47.2099C39.175 47.1354 38.9515 47.1354 38.8026 47.2099C38.6536 47.2844 38.5791 47.4333 38.5047 47.5823C38.4302 47.7312 38.2812 47.8802 38.2812 48.0291C38.2812 48.1781 38.4302 48.327 38.5047 48.476L38.4302 48.1781Z" fill="#0EDBFF"/>
<path fill-rule="evenodd" clip-rule="evenodd" d="M5.51224 65.754C5.73567 65.8285 5.95909 65.9775 6.18252 66.0519C6.257 65.9775 6.33147 65.9775 6.48042 65.9775C6.62937 65.903 6.70386 65.754 6.70386 65.6051C6.77834 65.3816 6.70385 65.2327 6.5549 65.0837C6.48043 65.0093 6.40596 64.8603 6.33148 64.7858C6.25701 64.7114 6.03357 64.7114 5.88462 64.7858C5.73567 64.8603 5.6612 65.0093 5.58672 65.1582C5.51225 65.3072 5.36328 65.4561 5.36328 65.6051C5.36328 65.754 5.51225 65.903 5.58672 66.0519L5.51224 65.754Z" fill="#0EDBFF"/>
<path fill-rule="evenodd" clip-rule="evenodd" d="M69.6353 74.9149C69.8587 74.9894 70.0821 75.1383 70.3056 75.2128C70.38 75.1383 70.4545 75.1383 70.6035 75.1383C70.7524 75.0639 70.8269 74.9149 70.8269 74.766C70.9014 74.5425 70.8269 74.3936 70.6779 74.2446C70.6035 74.1701 70.529 74.0212 70.4545 73.9467C70.38 73.8723 70.1566 73.8723 70.0077 73.9467C69.8587 74.0212 69.7842 74.1702 69.7097 74.3191C69.6353 74.4681 69.4863 74.617 69.4863 74.766C69.4863 74.9149 69.6353 75.0639 69.7097 75.2128L69.6353 74.9149Z" fill="#0EDBFF"/>
<path fill-rule="evenodd" clip-rule="evenodd" d="M65.0181 68.5101C65.2415 68.5846 65.465 68.7335 65.6884 68.808C65.7629 68.7335 65.8373 68.7335 65.9863 68.7335C66.1352 68.659 66.2097 68.5101 66.2097 68.3611C66.2842 68.1377 66.2097 67.9888 66.0608 67.8398C65.9863 67.7653 65.9118 67.6164 65.8373 67.5419C65.7629 67.4674 65.5394 67.4674 65.3905 67.5419C65.2415 67.6164 65.1671 67.7653 65.0926 67.9143C65.0181 68.0632 64.8691 68.2122 64.8691 68.3611C64.8691 68.5101 65.0181 68.659 65.0926 68.808L65.0181 68.5101Z" fill="#0EDBFF"/>
<path fill-rule="evenodd" clip-rule="evenodd" d="M1.04349 24.1224C1.6393 24.3458 2.2351 24.5692 2.83091 24.8671C3.05434 24.7182 3.27776 24.7182 3.50119 24.5692C3.79909 24.3458 4.02252 23.9734 4.17147 23.6755C4.32042 23.1542 4.097 22.7818 3.87357 22.4094C3.72462 22.186 3.57568 21.8136 3.35225 21.5902C3.05435 21.3667 2.53302 21.4412 2.23511 21.5902C1.86273 21.7391 1.6393 22.1115 1.41587 22.4094C1.19244 22.7073 0.969007 23.2286 0.894531 23.601C0.894531 23.9734 1.19245 24.4203 1.49035 24.6437L1.04349 24.1224Z" fill="#0EDBFF"/>
<path fill-rule="evenodd" clip-rule="evenodd" d="M39.9194 2.67319C40.5153 2.89662 41.1111 3.12005 41.7069 3.41795C41.9303 3.269 42.1537 3.269 42.3772 3.12005C42.6751 2.89662 42.8985 2.52424 43.0474 2.22634C43.1964 1.70501 42.973 1.33263 42.7495 0.960247C42.6006 0.736819 42.4516 0.36444 42.2282 0.141012C41.9303 -0.0824158 41.409 -0.00793981 41.1111 0.141012C40.7387 0.289964 40.5153 0.662343 40.2918 0.960247C40.0684 1.25815 39.845 1.77948 39.7705 2.15186C39.7705 2.52424 40.0684 2.9711 40.3663 3.19453L39.9194 2.67319Z" fill="#0EDBFF"/>
<path fill-rule="evenodd" clip-rule="evenodd" d="M45.0584 53.9869C44.9839 54.0613 44.9094 54.1358 44.835 54.2848C44.9094 54.4337 44.9839 54.5082 45.1329 54.5827C45.2073 54.5827 45.2818 54.5827 45.3563 54.5827C45.4308 54.5082 45.3563 54.4337 45.4308 54.3593C45.5053 54.2103 45.5053 54.1358 45.4308 53.9869C45.3563 53.9124 45.3563 53.8379 45.2818 53.8379C45.2073 53.8379 45.0584 53.8379 45.0584 53.9124V53.9869Z" fill="#0EDBFF"/>
<path fill-rule="evenodd" clip-rule="evenodd" d="M45.5807 57.7107C45.5807 57.7852 45.3573 58.2321 45.5807 58.0831C45.7297 58.0086 45.7297 57.7852 45.5807 57.7107C45.6552 57.7107 45.6552 57.7107 45.5807 57.7107Z" fill="#0EDBFF"/>
<path fill-rule="evenodd" clip-rule="evenodd" d="M57.2723 64.414C57.1233 64.6374 57.1233 64.7119 57.0488 64.9353C57.1233 65.0098 57.2723 65.0098 57.3468 65.0098C57.4957 65.0098 57.4957 64.9353 57.4957 64.8608C57.4957 64.7864 57.5702 64.6374 57.4957 64.5629C57.4212 64.414 57.3467 64.3395 57.2723 64.414Z" fill="#0EDBFF"/>
<path fill-rule="evenodd" clip-rule="evenodd" d="M47.4424 54.434C47.5169 54.5085 47.5913 54.583 47.5913 54.7319C47.4424 54.7319 47.4424 54.6574 47.4424 54.5085C47.4424 54.3595 47.5169 54.434 47.5913 54.2851C47.5913 54.2851 47.5913 54.2851 47.6658 54.2851L47.4424 54.434Z" fill="#0EDBFF"/>
<path fill-rule="evenodd" clip-rule="evenodd" d="M58.614 44.4542C58.5396 44.5287 58.4651 44.6031 58.3906 44.6776C58.4651 44.7521 58.3906 44.9011 58.5396 44.9011C58.614 44.9011 58.6885 44.8266 58.763 44.6776C58.8375 44.6031 58.8375 44.5287 58.8375 44.3797C58.8375 44.3052 58.8375 44.0818 58.763 44.2308L58.614 44.4542Z" fill="#0EDBFF"/>
<path fill-rule="evenodd" clip-rule="evenodd" d="M57.0488 18.4622C57.1978 18.4622 57.2723 18.3877 57.4212 18.3877C57.4212 18.3877 57.4957 18.3877 57.5702 18.3877C57.7191 18.3877 57.7191 18.3877 57.7191 18.4622C57.7936 18.5366 57.7936 18.6856 57.7936 18.7601C57.7191 19.2069 57.1233 18.5366 57.3468 18.3877L57.0488 18.4622Z" fill="#0EDBFF"/>
<path fill-rule="evenodd" clip-rule="evenodd" d="M9.68247 19.2814C9.45905 19.3558 9.16113 19.3558 9.16113 19.5793C9.16113 19.8027 9.45904 19.9516 9.60799 20.0261C9.9059 20.1006 10.3527 20.1751 10.5017 19.8027C10.5762 19.5793 10.5017 19.2069 10.4272 19.0579C10.2038 18.6856 9.68247 18.8345 9.31009 18.9835L9.68247 19.2814Z" fill="#0EDBFF"/>
<path fill-rule="evenodd" clip-rule="evenodd" d="M59.9546 64.8605C59.8801 64.1902 59.7311 63.5199 60.3269 63.1476C60.6248 62.9241 61.2206 62.9241 61.593 63.1476C61.8164 63.2965 62.0399 63.5944 62.1143 63.8178C62.3378 64.1902 62.2633 64.1902 62.1888 64.4881C61.9654 65.2329 61.742 65.6797 61.0717 65.6797C60.1035 65.6797 59.9546 64.935 59.9546 64.0413V64.8605Z" fill="#0EDBFF"/>
<path fill-rule="evenodd" clip-rule="evenodd" d="M60.4004 45.8689C60.6983 45.7944 60.9217 45.6455 61.0707 45.422C60.8473 45.2731 60.4749 45.0497 60.4004 45.422V45.8689Z" fill="#0EDBFF"/>
<path fill-rule="evenodd" clip-rule="evenodd" d="M7.00195 63.0733C7.29986 62.9989 7.52328 62.8499 7.67223 62.6265C7.4488 62.4775 7.07643 62.2541 7.00195 62.6265V63.0733Z" fill="#0EDBFF"/>
<path fill-rule="evenodd" clip-rule="evenodd" d="M7.00195 68.7334C7.29986 68.659 7.52328 68.51 7.67223 68.2866C7.4488 68.1376 7.07643 67.9142 7.00195 68.2866V68.7334Z" fill="#0EDBFF"/>
<path fill-rule="evenodd" clip-rule="evenodd" d="M46.9208 48.4759C47.2187 48.178 47.5911 47.5822 48.038 47.8801C48.3359 48.1035 48.4103 48.5504 48.1124 48.7738C47.889 48.9228 47.6656 48.9972 47.3677 49.0717C47.1443 49.1462 46.8464 48.9972 46.9208 48.6993V48.4759Z" fill="#0EDBFF"/>
<path fill-rule="evenodd" clip-rule="evenodd" d="M55.7831 63.0732C56.0811 62.7753 56.4534 62.1795 56.9003 62.4774C57.1982 62.7009 57.2727 63.1477 56.9748 63.3711C56.7513 63.5201 56.5279 63.5946 56.23 63.669C56.0066 63.7435 55.7087 63.5946 55.7831 63.2967V63.0732Z" fill="#0EDBFF"/>
<path fill-rule="evenodd" clip-rule="evenodd" d="M54.4417 14.6641C54.8141 14.7386 55.5588 14.7386 55.4844 15.3344C55.4844 15.6323 55.0375 16.0047 54.7396 15.8557C54.4417 15.7068 54.2927 15.5578 54.0693 15.3344C53.9203 15.1855 53.8459 14.8131 54.2183 14.7386L54.4417 14.6641Z" fill="#0EDBFF"/>
<path fill-rule="evenodd" clip-rule="evenodd" d="M52.9531 66.8713C53.251 66.5734 53.6234 65.9776 54.0702 66.2755C54.3681 66.499 54.4426 66.9458 54.1447 67.1692C53.9213 67.3182 53.6978 67.3927 53.3999 67.4671C53.1765 67.5416 52.8786 67.3927 52.9531 67.0948V66.8713Z" fill="#0EDBFF"/>
<path fill-rule="evenodd" clip-rule="evenodd" d="M40.8881 47.9548C40.5902 48.1782 39.9944 48.4016 39.9199 48.923C39.9199 49.2209 39.9944 49.3698 40.2923 49.5188C40.5157 49.5933 40.8136 49.5933 41.0371 49.5188C41.335 49.3698 41.7073 49.0719 41.8563 48.774C41.9308 48.5506 41.9308 48.4016 41.8563 48.1782C41.7818 48.0293 41.7074 47.8803 41.5584 47.8803C41.1115 47.7314 40.8881 48.1782 40.5902 48.3272L40.8881 47.9548Z" fill="#0EDBFF"/>
<path fill-rule="evenodd" clip-rule="evenodd" d="M42.0038 46.763C42.1528 46.8374 42.3762 46.9119 42.4507 47.0609C42.3017 47.1353 42.0783 47.2843 41.8549 47.2098C41.6314 47.1353 41.557 46.9119 41.6314 46.6885C41.6314 46.5395 41.8549 46.3161 42.0038 46.3906C42.0783 46.3906 42.0783 46.5395 42.0783 46.5395C42.1528 46.6885 42.1528 46.614 42.0783 46.763H42.0038Z" fill="#0EDBFF"/>
<path fill-rule="evenodd" clip-rule="evenodd" d="M51.2396 44.7523C50.3459 45.4971 49.5267 46.4653 49.0798 47.5824C48.8564 48.1782 49.2288 48.1782 49.7501 48.1038C50.7183 47.8803 51.761 47.6569 52.7291 47.359C53.3249 47.21 54.1442 46.9121 54.5166 46.3908C54.8145 46.0184 54.9634 45.3481 54.8889 44.9013C54.8145 44.231 54.2931 44.0076 53.6973 43.7842C52.2823 43.4118 50.3459 44.9013 49.8246 46.1674L51.2396 44.7523Z" fill="#0EDBFF"/>
<path fill-rule="evenodd" clip-rule="evenodd" d="M46.3251 49.8164C46.623 49.8164 46.8465 49.8909 47.1444 50.0398C47.0699 50.1143 47.0699 50.2633 47.0699 50.3377C46.9954 50.4867 46.8465 50.6356 46.772 50.7101C46.5486 50.8591 46.1762 50.9335 45.9527 50.7846C45.208 50.4867 46.3251 49.593 46.623 49.9654L46.3251 49.8164Z" fill="#0EDBFF"/>
<path fill-rule="evenodd" clip-rule="evenodd" d="M4.91483 78.0427C4.84035 78.1172 4.76588 78.1917 4.69141 78.3406C4.76588 78.4896 4.84035 78.5641 4.98931 78.6386C5.06378 78.6386 5.13827 78.6386 5.21275 78.6386C5.28722 78.5641 5.21273 78.4896 5.2872 78.4151C5.36168 78.2662 5.36168 78.1917 5.2872 78.0427C5.21273 77.9683 5.21274 77.8938 5.13827 77.8938C5.06379 77.8938 4.91483 77.8938 4.91483 77.9683V78.0427Z" fill="#0EDBFF"/>
<path fill-rule="evenodd" clip-rule="evenodd" d="M5.51141 81.7666C5.51141 81.8411 5.28798 82.2879 5.51141 82.139C5.66036 82.0645 5.58589 81.8411 5.51141 81.7666C5.51141 81.8411 5.51141 81.7666 5.51141 81.7666Z" fill="#0EDBFF"/>
<path fill-rule="evenodd" clip-rule="evenodd" d="M7.29883 78.4895C7.3733 78.564 7.44779 78.6385 7.44779 78.7874C7.29884 78.7874 7.29883 78.713 7.29883 78.564C7.29883 78.4151 7.37331 78.4895 7.44779 78.3406C7.44779 78.3406 7.44777 78.3406 7.52225 78.3406L7.29883 78.4895Z" fill="#0EDBFF"/>
<path fill-rule="evenodd" clip-rule="evenodd" d="M6.18059 73.8721C6.4785 73.8721 6.70193 73.9465 6.99983 74.0955C6.92536 74.17 6.92535 74.3189 6.92535 74.3934C6.85088 74.5424 6.70193 74.6913 6.62745 74.7658C6.40403 74.9147 6.03164 74.9892 5.80821 74.8403C5.06345 74.5424 6.18059 73.6486 6.47849 74.021L6.18059 73.8721Z" fill="#0EDBFF"/>
<path fill-rule="evenodd" clip-rule="evenodd" d="M52.9517 15.3341C53.1751 15.4831 53.473 15.632 53.6964 15.8554C53.9198 16.1534 54.1433 16.3768 54.2922 16.6747C54.3667 16.8236 54.5901 17.196 54.2922 17.196C53.9943 17.2705 53.3985 16.8236 53.1006 16.6002C52.6538 16.3023 52.2814 16.0789 51.9835 15.632C51.8345 15.4086 51.6111 15.0362 51.7601 14.8128C51.909 14.5894 52.058 14.5894 52.2814 14.5894C52.5048 14.5894 52.6538 14.6638 52.8772 14.8128C52.9517 14.8873 53.3985 15.3341 53.2496 15.4086L52.9517 15.3341Z" fill="#0EDBFF"/>
<path fill-rule="evenodd" clip-rule="evenodd" d="M56.2295 43.4861C56.0806 43.5606 55.1869 44.0819 55.6337 44.3053C55.8571 44.4543 56.3785 44.3798 56.6019 44.3053C56.8254 44.2308 57.0488 44.0819 56.8998 43.8585C56.6019 43.3371 55.9316 43.635 55.5592 43.8585L56.2295 43.4861Z" fill="#0EDBFF"/>
<path fill-rule="evenodd" clip-rule="evenodd" d="M62.9333 12.8762C62.6354 13.0996 60.2521 14.3657 61.3693 14.9615C61.9651 15.2594 63.1567 15.1849 63.7525 14.887C64.2738 14.6636 64.8696 14.2912 64.4973 13.6954C63.827 12.4293 62.114 13.1741 61.2203 13.6954L62.9333 12.8762Z" fill="#0EDBFF"/>
<path fill-rule="evenodd" clip-rule="evenodd" d="M7.37305 66.1267C7.44752 66.648 7.59647 67.2438 8.04333 67.6162C8.56466 67.9886 9.08599 67.8396 9.60733 67.5417C9.97971 67.3183 10.2776 67.0949 10.65 66.8715C10.8734 66.7225 11.0224 66.7225 11.0224 66.4246C11.0224 66.1267 10.7245 65.6798 10.5755 65.4564C10.3521 65.1585 9.90523 64.8606 9.60733 64.7117C8.86257 64.4137 7.44753 64.7116 7.44753 65.6798L7.37305 66.1267Z" fill="#0EDBFF"/>
<path fill-rule="evenodd" clip-rule="evenodd" d="M56.6758 67.2438C56.7503 67.6162 56.8247 68.063 57.1226 68.2865C57.495 68.5844 57.8674 68.4354 58.2398 68.212C58.4632 68.063 58.7611 67.9141 58.9845 67.7651C59.1335 67.6907 59.2824 67.6907 59.2824 67.4672C59.2824 67.2438 59.059 66.9459 58.9845 66.7969C58.8356 66.5735 58.5377 66.3501 58.3143 66.2756C57.7929 66.0522 56.8247 66.2756 56.8247 66.9459L56.6758 67.2438Z" fill="#0EDBFF"/>
<path fill-rule="evenodd" clip-rule="evenodd" d="M48.2617 11.3123C48.2617 11.3123 49.9002 18.164 54.4432 20.7707C60.1779 24.0476 64.1996 22.9305 64.1996 22.9305C64.1996 22.9305 59.0607 22.7816 54.2943 19.5046C50.3471 16.749 48.2617 11.3123 48.2617 11.3123Z" fill="url(#paint21_linear_132_218)"/>
<path opacity="0.2" d="M40.3999 60.9246C40.5163 61.1947 40.6621 61.519 40.8386 61.8871C41.3759 63.0079 42.199 64.5381 43.344 66.18C45.488 69.2542 48.7833 72.7515 53.4747 74.6573L52.2891 75.4081C52.2317 75.3891 52.1638 75.3663 52.086 75.3396C51.8056 75.2436 51.3946 75.0963 50.8844 74.8927C49.8634 74.4852 48.4474 73.8528 46.8898 72.9549C43.8338 71.1932 40.2678 68.4297 38.0452 64.3705L40.3999 60.9246Z" fill="black" stroke="black"/>
<path opacity="0.3" d="M64.3547 28.6612C65.6796 30.4364 66.5953 32.2724 67.1834 33.6801C67.3561 34.0936 67.5002 34.4693 67.6178 34.7945C62.6252 31.5172 56.8882 26.6592 52.2654 22.4848C51.7896 22.0552 51.3258 21.633 50.8761 21.2207C53.7839 23.2601 56.3316 24.7969 58.4127 25.9297C60.3173 26.9664 61.8315 27.665 62.8738 28.1011C63.3947 28.319 63.7992 28.472 64.0769 28.569C64.1881 28.6079 64.2812 28.6386 64.3547 28.6612Z" fill="black" stroke="black"/>
<defs>
<linearGradient id="paint0_linear_132_218" x1="11.7802" y1="28.8492" x2="11.7802" y2="16.6298" gradientUnits="userSpaceOnUse">
<stop stop-color="#9A00B3"/>
<stop offset="1" stop-color="#7F72FF"/>
</linearGradient>
<linearGradient id="paint1_linear_132_218" x1="9.07606" y1="29.4682" x2="13.6675" y2="15.451" gradientUnits="userSpaceOnUse">
<stop stop-color="#5B008B"/>
<stop offset="1" stop-color="#8E00FF"/>
</linearGradient>
<radialGradient id="paint2_radial_132_218" cx="0" cy="0" r="1" gradientUnits="userSpaceOnUse" gradientTransform="translate(13.3665 31.2762) scale(56.6773)">
<stop offset="0.00558659" stop-color="#60DBFF"/>
<stop offset="0.0937306" stop-color="#60D5FF"/>
<stop offset="0.211" stop-color="#5FC4FF"/>
<stop offset="0.3446" stop-color="#5DA9FF"/>
<stop offset="0.4903" stop-color="#5A82FF"/>
<stop offset="0.6442" stop-color="#5751FF"/>
<stop offset="0.6844" stop-color="#5643FF"/>
<stop offset="0.7432" stop-color="#563DF8"/>
<stop offset="0.8282" stop-color="#552EE5"/>
<stop offset="0.9287" stop-color="#5315C6"/>
<stop offset="1" stop-color="#5200AB"/>
</radialGradient>
<linearGradient id="paint3_linear_132_218" x1="-0.0656878" y1="38.0996" x2="50.6895" y2="38.0996" gradientUnits="userSpaceOnUse">
<stop offset="0.0111732" stop-color="#81E0FF"/>
<stop offset="0.3224" stop-color="#82DDFF"/>
<stop offset="0.5506" stop-color="#86D4FF"/>
<stop offset="0.7523" stop-color="#8BC4FF"/>
<stop offset="0.9375" stop-color="#94ADFF"/>
<stop offset="1" stop-color="#97A4FF"/>
</linearGradient>
<linearGradient id="paint4_linear_132_218" x1="0.257562" y1="28.1129" x2="44.6309" y2="28.1129" gradientUnits="userSpaceOnUse">
<stop stop-color="#B8C2FF"/>
<stop offset="1" stop-color="#7D72B3"/>
</linearGradient>
<linearGradient id="paint5_linear_132_218" x1="7.45859" y1="61.1417" x2="70.5025" y2="61.1417" gradientUnits="userSpaceOnUse">
<stop stop-color="#B8C2FF"/>
<stop offset="1" stop-color="#7D72B3"/>
</linearGradient>
<linearGradient id="paint6_linear_132_218" x1="3.73522" y1="48.1015" x2="66.6526" y2="48.1015" gradientUnits="userSpaceOnUse">
<stop stop-color="#B8C2FF"/>
<stop offset="1" stop-color="#7D72B3"/>
</linearGradient>
<linearGradient id="paint7_linear_132_218" x1="-0.0641238" y1="39.3093" x2="61.7807" y2="39.3093" gradientUnits="userSpaceOnUse">
<stop stop-color="#B8C2FF"/>
<stop offset="1" stop-color="#7D72B3"/>
</linearGradient>
<linearGradient id="paint8_linear_132_218" x1="45.8796" y1="35.1131" x2="46.7285" y2="35.1131" gradientUnits="userSpaceOnUse">
<stop stop-color="#E8DDFF"/>
<stop offset="1" stop-color="#AA8AD8"/>
</linearGradient>
<linearGradient id="paint9_linear_132_218" x1="38.7228" y1="52.8841" x2="41.7415" y2="43.6686" gradientUnits="userSpaceOnUse">
<stop stop-color="#5B008B"/>
<stop offset="1" stop-color="#8E00FF"/>
</linearGradient>
<linearGradient id="paint10_linear_132_218" x1="2.14817" y1="49.8987" x2="2.32444" y2="49.8987" gradientUnits="userSpaceOnUse">
<stop stop-color="#E8DDFF"/>
<stop offset="1" stop-color="#AA8AD8"/>
</linearGradient>
<linearGradient id="paint11_linear_132_218" x1="41.9825" y1="19.4914" x2="64.6275" y2="19.4914" gradientUnits="userSpaceOnUse">
<stop stop-color="#7F72FF"/>
<stop offset="1" stop-color="#9A00B3"/>
</linearGradient>
<linearGradient id="paint12_linear_132_218" x1="47.1271" y1="73.8514" x2="58.6139" y2="38.7835" gradientUnits="userSpaceOnUse">
<stop stop-color="#280077"/>
<stop offset="1" stop-color="#812CFF"/>
</linearGradient>
<linearGradient id="paint13_linear_132_218" x1="50.4153" y1="73.1377" x2="61.3731" y2="39.6869" gradientUnits="userSpaceOnUse">
<stop stop-color="#7A00B3"/>
<stop offset="1" stop-color="#B136FF"/>
</linearGradient>
<linearGradient id="paint14_linear_132_218" x1="54.1896" y1="63.5423" x2="54.1896" y2="39.3124" gradientUnits="userSpaceOnUse">
<stop stop-color="#8E00B3"/>
<stop offset="1" stop-color="#E05CFF"/>
</linearGradient>
<linearGradient id="paint15_linear_132_218" x1="11.3433" y1="73.4813" x2="16.0881" y2="58.9956" gradientUnits="userSpaceOnUse">
<stop stop-color="#280077"/>
<stop offset="1" stop-color="#812CFF"/>
</linearGradient>
<linearGradient id="paint16_linear_132_218" x1="40.3553" y1="86.0386" x2="40.3553" y2="79.7636" gradientUnits="userSpaceOnUse">
<stop stop-color="#7A00B3"/>
<stop offset="0.9162" stop-color="#7006FC"/>
<stop offset="1" stop-color="#7006F9"/>
</linearGradient>
<linearGradient id="paint17_linear_132_218" x1="11.6277" y1="75.7959" x2="11.6277" y2="57.7595" gradientUnits="userSpaceOnUse">
<stop stop-color="#7A00B3"/>
<stop offset="1" stop-color="#B136FF"/>
</linearGradient>
<linearGradient id="paint18_linear_132_218" x1="12.572" y1="75.7888" x2="12.572" y2="57.7595" gradientUnits="userSpaceOnUse">
<stop stop-color="#8E00B3"/>
<stop offset="1" stop-color="#E05CFF"/>
</linearGradient>
<linearGradient id="paint19_linear_132_218" x1="39.6476" y1="51.3166" x2="42.1443" y2="43.6943" gradientUnits="userSpaceOnUse">
<stop stop-color="#A400CA"/>
<stop offset="1" stop-color="#B136FF"/>
</linearGradient>
<linearGradient id="paint20_linear_132_218" x1="52.1644" y1="24.1936" x2="55.7677" y2="13.1932" gradientUnits="userSpaceOnUse">
<stop stop-color="#5B008B"/>
<stop offset="1" stop-color="#8E00FF"/>
</linearGradient>
<linearGradient id="paint21_linear_132_218" x1="56.2613" y1="23.1169" x2="56.2613" y2="11.3202" gradientUnits="userSpaceOnUse">
<stop stop-color="#B000D9"/>
<stop offset="1" stop-color="#E05CFF"/>
</linearGradient>
</defs>
</svg>
