<svg width="59" height="59" viewBox="0 0 59 59" fill="none" xmlns="http://www.w3.org/2000/svg">
<path fill-rule="evenodd" clip-rule="evenodd" d="M59 35.7684L58.7623 36.5408C58.7623 36.6002 58.7623 36.6002 58.7029 36.6596C58.1088 38.6797 57.3364 40.581 56.3857 42.3635C54.8409 45.2749 52.7613 47.9486 50.3847 50.2064C47.5921 52.8207 44.2649 54.9003 40.5811 56.2668C37.2538 57.5146 33.6888 58.2276 29.9456 58.2276C29.4109 58.2276 28.8761 58.2276 28.3414 58.1681C27.569 58.1087 26.7966 58.0493 26.0242 57.9305C20.9738 57.2769 16.3394 55.3756 12.4179 52.5236C12.0614 52.2266 11.7049 51.9889 11.3484 51.6918C12.0614 51.0977 13.4874 51.0382 13.4874 51.0382L11.4673 49.434L6.41691 46.7009C5.46626 45.4531 4.57502 44.146 3.80262 42.7794C3.62437 42.4229 3.44612 42.1259 3.26788 41.7694C3.26788 41.7694 3.26788 41.7694 3.26788 41.7099C3.08963 41.3535 2.91138 40.9969 2.73314 40.6405C2.19839 39.5116 1.78247 38.3232 1.36656 37.0755C1.06948 36.1843 0.831827 35.293 0.653579 34.4018C0.534747 33.7482 0.415911 33.0946 0.29708 32.4411C0.118832 31.0745 0 29.6485 0 28.2225C0 27.866 0 27.569 0 27.2125C0 26.7371 0.0594195 26.2024 0.0594195 25.7271C0.118835 25.2517 0.178241 24.7764 0.178241 24.3011C0.178241 24.2417 0.178241 24.2417 0.178241 24.1823C0.297072 23.5287 0.356492 22.8751 0.53474 22.2215C0.712987 21.2709 0.950658 20.3796 1.24774 19.4884C1.60423 18.2407 2.07955 16.9929 2.6143 15.864C3.14904 14.7351 3.7432 13.6062 4.39677 12.5367C6.41692 11.4672 7.72407 10.8731 7.72407 10.8731C7.72407 10.8731 42.6012 3.98084 43.136 3.38668C43.6707 2.79253 46.285 3.14902 46.285 3.14902C47.9486 4.2185 49.434 5.46623 50.86 6.8328C51.2165 7.12988 51.5136 7.48638 51.8107 7.78346C51.9889 8.02112 52.2266 8.25879 52.4048 8.49646C52.7613 8.91237 53.0584 9.26886 53.4149 9.68477C54.6032 11.2296 55.6727 12.8338 56.5639 14.5569C56.9204 15.2104 57.2175 15.9234 57.5146 16.577C60.1883 27.0936 56.861 36.0654 56.861 36.0654C57.7523 35.8872 58.4653 35.8278 59 35.7684Z" fill="url(#paint0_radial_132_285)"/>
<path fill-rule="evenodd" clip-rule="evenodd" d="M59 35.7684L58.7623 36.5408C58.7623 36.6002 58.7623 36.6002 58.7029 36.6596C58.1088 38.6797 57.3364 40.581 56.3857 42.3635C54.8409 45.2749 52.7613 47.9486 50.3847 50.2064C47.5921 52.8207 44.2649 54.9003 40.5811 56.2668C37.2538 57.5146 33.6888 58.2276 29.9456 58.2276C29.4109 58.2276 28.8761 58.2276 28.3414 58.1681C27.569 58.1087 26.7966 58.0493 26.0242 57.9305C20.9738 57.2769 16.3394 55.3756 12.4179 52.5236C12.0614 52.2266 11.7049 51.9889 11.3484 51.6918C12.0614 51.0977 13.4874 51.0382 13.4874 51.0382L11.4673 49.434L6.41691 46.7009C5.46626 45.4531 4.57502 44.146 3.80262 42.7794C3.62437 42.4229 3.44612 42.1259 3.26788 41.7694C3.26788 41.7694 3.26788 41.7694 3.26788 41.7099C3.08963 41.3535 2.91138 40.9969 2.73314 40.6405C2.19839 39.5116 1.78247 38.3232 1.36656 37.0755C1.06948 36.1843 0.831827 35.293 0.653579 34.4018C0.534747 33.7482 0.415911 33.0946 0.29708 32.4411C0.118832 31.0745 0 29.6485 0 28.2225C0 27.866 0 27.569 0 27.2125C0 26.7371 0.0594195 26.2024 0.0594195 25.7271C0.118835 25.2517 0.178241 24.7764 0.178241 24.3011C0.178241 24.2417 0.178241 24.2417 0.178241 24.1823C0.297072 23.5287 0.356492 22.8751 0.53474 22.2215C0.712987 21.2709 0.950658 20.3796 1.24774 19.4884C1.60423 18.2407 2.07955 16.9929 2.6143 15.864C3.14904 14.7351 3.7432 13.6062 4.39677 12.5367C6.41692 11.4672 7.72407 10.8731 7.72407 10.8731C7.72407 10.8731 42.6012 3.98084 43.136 3.38668C43.6707 2.79253 46.285 3.14902 46.285 3.14902C47.9486 4.2185 49.434 5.46623 50.86 6.8328C51.2165 7.12988 51.5136 7.48638 51.8107 7.78346C51.9889 8.02112 52.2266 8.25879 52.4048 8.49646C52.7613 8.91237 53.0584 9.26886 53.4149 9.68477C54.6032 11.2296 55.6727 12.8338 56.5639 14.5569C56.9204 15.2104 57.2175 15.9234 57.5146 16.577C60.1883 27.0936 56.861 36.0654 56.861 36.0654C57.7523 35.8872 58.4653 35.8278 59 35.7684Z" fill="url(#paint1_radial_132_285)"/>
<path fill-rule="evenodd" clip-rule="evenodd" d="M58.1695 28.282C58.1695 29.3515 58.1101 30.4209 57.9913 31.431C57.813 33.0352 57.516 34.5801 57.1 36.0655C57.1 36.1249 57.1 36.1249 57.1 36.1843C56.5653 38.0856 55.7929 39.8681 54.9016 41.5317C53.4162 44.2649 51.5149 46.7603 49.2571 48.8993C46.6428 51.3354 43.4938 53.2961 40.0477 54.6032C36.958 55.7915 33.5713 56.4451 30.0658 56.4451C29.5905 56.4451 29.0557 56.4451 28.5804 56.3857C27.8674 56.3263 27.095 56.2669 26.382 56.2075C21.6287 55.6133 17.2914 53.7714 13.6076 51.0977C13.0728 50.6818 12.5381 50.2659 12.0034 49.85C11.8845 49.7311 11.7063 49.6123 11.5875 49.4935C10.2803 48.3052 9.03256 47.0574 7.96308 45.6314C7.07184 44.5025 6.24001 43.2548 5.4676 41.9476C5.28935 41.6506 5.11111 41.3535 4.99228 40.997C4.99228 40.997 4.99228 40.997 4.99228 40.9376C4.81403 40.5811 4.63579 40.284 4.51696 39.9275C4.04163 38.858 3.62572 37.7291 3.26922 36.6002C3.03156 35.7684 2.79389 34.9366 2.61564 34.1047C2.49681 33.5106 2.37798 32.9164 2.31856 32.2629C2.14032 30.9557 2.02148 29.6485 2.02148 28.282C2.02148 27.9849 2.02148 27.6284 2.02148 27.3313C2.02148 26.856 2.0809 26.3807 2.0809 25.9648C2.14032 25.4894 2.14031 25.0735 2.19972 24.5982C2.19972 24.5388 2.19972 24.5388 2.19972 24.4794C2.25914 23.8852 2.37797 23.2316 2.4968 22.6375C2.67505 21.7462 2.91272 20.9144 3.15038 20.0232C3.50688 18.8349 3.9228 17.7059 4.45754 16.577C4.99228 15.3887 5.64585 14.2004 6.35884 13.0715C6.83417 12.2991 7.36892 11.5267 7.96308 10.8137C8.73548 9.80363 9.62671 8.85297 10.518 7.96173C15.5683 3.03021 22.52 0 30.1252 0C30.4223 0 30.7194 0 31.0164 0C31.3135 0 31.67 3.62557e-06 31.9671 0.0594195C32.8583 0.118835 33.6902 0.237667 34.5814 0.356499C34.5814 0.356499 34.5814 0.356499 34.6408 0.356499C35.3538 0.475331 36.0668 0.594161 36.7204 0.772409C37.6116 1.01007 38.5028 1.24774 39.3347 1.54482C39.9288 1.72307 40.4636 1.96073 41.0577 2.1984C41.4737 2.37664 41.8896 2.55489 42.3055 2.73314C42.3649 2.79255 42.4243 2.79255 42.5431 2.85197C45.2763 4.15912 47.7717 5.9416 49.9107 8.08057C50.2078 8.37765 50.5049 8.67473 50.802 8.97181C50.9802 9.20947 51.2179 9.38772 51.3961 9.62539C51.6932 9.98188 52.0497 10.3978 52.3468 10.7543C53.4757 12.1803 54.4263 13.7251 55.2581 15.3293C56.2088 17.2306 56.9812 19.2508 57.5159 21.3303C57.8724 22.6375 58.0507 24.004 58.2289 25.43C58.1101 26.4401 58.1695 27.3313 58.1695 28.282Z" fill="url(#paint2_radial_132_285)"/>
<path fill-rule="evenodd" clip-rule="evenodd" d="M16.2799 17.0522C16.2799 17.0522 15.5074 18.7158 16.161 20.3795C16.7552 22.0431 18.5376 20.9737 20.6172 20.3795C22.6968 19.7853 24.8358 17.6463 26.2023 16.2798C27.5689 14.9132 28.876 13.0713 28.7572 11.2888C28.6384 9.50637 26.7371 8.31805 26.7371 8.31805C26.7371 8.31805 27.45 7.42681 26.8559 10.9918C26.2617 14.4973 25.4893 15.8045 24.7169 16.3392C23.9445 16.8739 21.6867 18.2405 20.439 19.0129C19.1912 19.7853 17.7653 20.5577 16.9334 20.3795C16.0422 20.0824 15.6263 18.2405 16.2799 17.0522Z" fill="url(#paint3_radial_132_285)"/>
<path fill-rule="evenodd" clip-rule="evenodd" d="M20.0823 15.8045C20.0823 15.8045 19.0129 16.7551 19.3099 17.5275C19.607 18.2999 21.6272 17.8246 22.9343 16.161C24.2415 14.4973 23.2314 13.1902 23.2314 13.1902C23.2314 13.1902 22.7561 15.9233 21.5083 16.3986C20.2606 16.874 19.8447 16.6957 19.8447 16.6957C19.8447 16.6957 19.5476 16.4581 20.0823 15.8045Z" fill="url(#paint4_radial_132_285)"/>
<path fill-rule="evenodd" clip-rule="evenodd" d="M16.875 16.9929C16.875 16.9929 17.8851 15.8046 19.0734 14.7351C20.2617 13.6062 22.2819 13.1903 22.2819 13.1903C22.2819 13.1903 21.0935 12.5367 19.5487 13.428C18.0633 14.3786 16.875 16.9929 16.875 16.9929Z" fill="url(#paint5_radial_132_285)"/>
<path fill-rule="evenodd" clip-rule="evenodd" d="M12.5957 17.0523C12.5957 17.0523 15.0318 14.3786 17.9431 13.2497C20.8545 12.1207 21.8646 11.7642 23.1717 10.6948C24.4789 9.62527 25.9049 8.79346 25.9049 8.79346C25.9049 8.79346 23.0529 8.91229 18.7156 11.7048C14.3782 14.3785 12.5957 16.161 12.5957 17.0523Z" fill="url(#paint6_radial_132_285)"/>
<path fill-rule="evenodd" clip-rule="evenodd" d="M6.71484 16.5174C6.71484 16.5174 10.874 12.3583 14.1418 10.6947C17.4097 9.03103 19.6081 8.02096 22.5195 7.24856C25.4309 6.53557 29.9465 5.22842 29.9465 5.22842L30.7783 4.8125C30.7783 4.8125 21.45 4.99075 15.3896 8.67453C9.32915 12.3583 6.71484 16.5174 6.71484 16.5174Z" fill="url(#paint7_radial_132_285)"/>
<path fill-rule="evenodd" clip-rule="evenodd" d="M11.7648 21.3303C11.7648 21.3303 12.4778 27.0936 13.4878 27.3313C14.4979 27.569 18.0629 27.569 23.4103 24.8358C28.7577 22.1027 29.8272 22.7563 32.798 19.7261C35.7688 16.6959 37.0165 13.2497 37.9078 10.9919C38.8584 8.73412 39.0961 6.11982 38.799 5.34741C38.799 5.34741 39.8091 5.94158 39.8091 8.19939C39.8091 10.4572 39.1555 14.2598 38.2048 16.3988C37.2542 18.5972 34.7587 22.0433 31.7879 23.7069C28.8171 25.3706 22.8161 28.6385 16.9934 28.579C11.1112 28.5196 12.0618 28.1037 11.4677 26.9154C10.8141 25.7271 11.7648 21.3303 11.7648 21.3303Z" fill="url(#paint8_radial_132_285)"/>
<path opacity="0.5" fill-rule="evenodd" clip-rule="evenodd" d="M2.61328 26.2024C2.61328 26.2024 3.68277 28.5196 4.21752 30.6586C4.81168 32.7976 4.69284 36.3625 7.12889 36.9567C9.56495 37.4915 12.9516 39.0957 14.1994 38.6798C15.5065 38.2639 20.2598 37.432 22.9335 37.9668C25.6072 38.5015 30.4199 38.2044 32.0836 37.3726C33.7472 36.5408 37.431 34.3424 39.1541 33.6888C40.8771 33.0353 43.2538 31.1339 45.3333 29.0544C47.4129 26.9748 47.3535 24.5982 47.8882 23.4099C48.423 22.2215 49.433 17.5277 49.3142 15.3887C49.1954 13.2497 47.8882 9.26889 47.8882 9.26889L46.6999 8.02115C46.6999 8.02115 48.1853 13.4874 47.5317 17.4089C46.8781 21.2709 47.4723 22.8751 44.7986 26.5589C42.1249 30.3021 38.3222 33.2135 34.1037 34.5801C29.8852 36.0061 27.1521 35.8278 22.8147 36.2437C18.715 36.6002 13.6052 36.3626 11.5851 35.8278C9.74319 35.3525 7.30713 34.1642 5.46524 31.1934C3.50451 28.1037 2.61328 26.2024 2.61328 26.2024Z" fill="#7D72B3"/>
<path opacity="0.4" fill-rule="evenodd" clip-rule="evenodd" d="M11.9429 20.1421C11.9429 20.1421 12.3588 26.3808 13.1312 26.9155C13.9036 27.4503 15.6267 27.6879 17.1715 27.1532C18.7757 26.6184 24.1231 24.836 25.0738 24.3012C26.0245 23.7665 31.669 20.9145 32.7979 20.0233C33.9268 19.1915 35.4122 16.1612 35.9469 15.5671C36.4817 14.9729 37.8482 11.2297 38.2047 9.80373C38.6206 8.37775 38.8583 6.71411 38.8583 6.71411C38.8583 6.71411 38.9771 5.94169 38.3236 5.64461C37.67 5.40695 37.5511 5.64461 37.5511 5.64461C37.5511 5.64461 37.4323 6.59527 36.8382 9.26899C36.244 11.9427 28.2823 21.0928 24.242 23.5288C20.2017 25.9054 16.3991 26.0243 15.0325 25.846C13.6065 25.6678 11.8835 21.2116 11.9429 20.1421Z" fill="#7D72B3"/>
<path opacity="0.4" fill-rule="evenodd" clip-rule="evenodd" d="M11.7642 21.3304C11.7642 21.3304 11.9424 17.4684 12.9525 16.1612C13.9626 14.8541 17.3493 12.1803 19.31 11.1703C21.3301 10.1602 24.1821 8.73422 25.1922 8.49655C26.2023 8.25889 26.9152 8.49655 26.9152 8.49655C26.9152 8.49655 25.7269 7.84296 22.9344 8.55595C20.1418 9.26895 16.9928 11.8238 15.448 12.6557C13.9032 13.4281 11.5859 15.3888 10.9918 16.3989C10.457 17.2901 11.7642 21.3304 11.7642 21.3304Z" fill="#7D72B3"/>
<path opacity="0.4" fill-rule="evenodd" clip-rule="evenodd" d="M4.87305 17.2306L13.4884 9.68476L18.8358 7.24871C18.8358 7.24871 24.1238 5.46623 26.5599 4.87207C28.9959 4.27791 34.4028 4.15907 34.4028 4.15907L37.2547 4.45615C37.2547 4.45615 32.3232 1.78244 24.9556 3.74316C17.6475 5.70389 12.7754 8.19936 10.6364 10.2195C8.55684 12.1802 5.28896 16.2205 4.87305 17.2306Z" fill="#7D72B3"/>
<path fill-rule="evenodd" clip-rule="evenodd" d="M4.63418 17.5273C4.63418 17.5273 -0.000260919 23.1124 2.25754 26.5586C4.51535 30.0047 5.52542 34.9956 6.179 36.1245C6.83257 37.2534 14.319 39.0359 15.8638 38.6794C17.4086 38.3229 21.1518 37.3722 23.5879 38.2635C23.5879 38.2635 27.9252 37.907 29.1136 37.907C30.3613 37.907 32.6191 36.8375 33.1538 36.5998C33.6886 36.3622 36.6 35.4115 38.0854 34.8174C39.5708 34.2232 42.0068 32.3219 42.9575 31.6089C43.9081 30.8365 46.463 27.8063 46.9977 26.8556C47.4731 25.905 48.9585 20.4387 49.315 17.8244C49.6715 15.2101 48.602 10.2192 47.7107 8.49612C46.8195 6.77306 44.2052 5.16883 44.2052 5.16883L44.3834 4.39641L46.463 3.14868C46.463 3.14868 50.0874 7.84254 50.3844 11.9422C50.5627 14.3189 51.1569 19.4286 50.5033 21.627C50.028 23.4095 48.3049 28.5193 46.7601 30.3612C45.2747 32.2031 40.7591 36.8969 38.3824 37.8476C36.0058 38.7388 28.8759 39.9865 24.7168 40.046C21.6271 40.1054 14.8537 39.5706 11.5264 39.4518C8.19914 39.333 5.82251 37.2534 4.51536 36.1839C3.20821 35.1144 3.62411 32.2625 2.31696 29.9452C0.950397 27.6874 0.237406 24.6572 0.534486 22.9936C0.831566 21.4488 4.63418 17.5273 4.63418 17.5273Z" fill="url(#paint9_radial_132_285)"/>
<path fill-rule="evenodd" clip-rule="evenodd" d="M12.7749 38.8577C12.0619 38.6795 11.4083 38.323 10.6953 38.1448C10.2794 38.0259 9.92294 37.9665 9.50702 37.8477C9.09111 37.7289 8.6752 37.6694 8.25929 37.6694C7.42746 37.61 6.59563 37.4318 6.06089 36.7782C5.58556 36.184 5.2885 35.5305 5.11025 34.7581C4.81317 33.748 4.57549 32.7379 4.27841 31.7873C3.98133 30.8366 3.62484 30.0642 3.09009 29.2324C2.91185 28.9353 2.7336 28.5788 2.49594 28.2817C2.31769 27.9846 2.02062 27.747 1.84237 27.3905C1.42646 26.5587 1.30762 25.6674 1.30762 24.7168C1.30762 24.2414 1.42646 23.7661 1.5453 23.2908C1.66413 22.6966 1.84237 22.1619 2.13945 21.6271C2.43653 21.1518 2.67419 20.6171 2.97127 20.1417C3.62485 19.0128 4.27842 17.8839 5.05083 16.8739C6.0609 15.6261 7.18981 14.3784 8.37813 13.2495C9.0317 12.5959 9.8041 12.0018 10.5765 11.4076C11.2301 10.9323 11.8242 10.3975 12.4184 9.92221C13.4879 9.09039 14.7356 8.55563 15.9834 7.96147C17.4688 7.24848 18.9542 6.5355 20.499 6.00076C22.3409 5.34718 24.1828 4.81243 26.0841 4.39652C28.2825 3.98061 30.5403 3.86178 32.7387 3.86178C33.927 3.86178 35.2341 3.74295 36.4224 4.15886C37.076 4.39652 37.8484 4.6936 38.3832 5.0501C38.502 5.16893 38.5614 5.16893 38.6802 5.28776C38.7397 5.34717 38.7397 5.46602 38.7991 5.52544C38.9179 5.7631 38.9773 6.06017 38.9773 6.29784C38.9773 6.5355 38.8585 6.77317 38.8585 7.01083C38.8585 7.36733 38.7396 7.72382 38.7396 8.08031C38.7396 8.49622 38.6208 8.7933 38.5614 9.20921C38.4426 9.9222 38.3237 10.6352 38.0267 11.3482C37.6108 12.3583 37.3137 13.4277 36.8978 14.3784C36.7789 14.6755 36.5413 14.9131 36.363 15.2102C36.2442 15.5073 36.1254 15.6855 35.9471 15.9826C35.65 16.458 35.4124 16.9927 35.0559 17.4086C34.3429 18.3593 33.6893 19.3693 32.7387 20.1417C31.6098 21.033 30.4214 21.8054 29.1737 22.459C28.3419 22.8749 27.51 23.2314 26.6782 23.6473C25.9652 24.0038 25.1928 24.4197 24.4204 24.7762C22.5191 25.6674 20.4396 26.321 18.4194 26.9746C17.8253 27.1528 17.2905 27.3311 16.6964 27.4499C16.1616 27.5093 15.508 27.6876 14.9733 27.6876C14.3791 27.6876 13.785 27.5093 13.1908 27.3311C12.2401 27.034 12.1213 25.9645 12.0619 25.0733C12.0025 24.4197 11.9431 23.7661 11.8242 23.172C11.7054 22.6372 11.7054 22.1619 11.5866 21.6271C11.4678 21.0924 11.4083 20.5577 11.4083 20.0229C11.4083 19.3099 11.646 18.7158 11.8242 18.0028C11.9431 17.5869 11.9431 17.1115 12.1807 16.6956C12.4184 16.1015 12.8937 15.5667 13.4285 15.1508C13.9038 14.7349 14.4385 14.2596 14.9139 13.8437C15.211 13.5466 15.5674 13.3683 15.8645 13.1307C16.3993 12.7148 16.9934 12.3583 17.647 12.0612C18.1223 11.8235 18.4788 11.4076 18.9542 11.1105C19.4295 10.8134 19.9642 10.5164 20.4396 10.2193C20.8555 9.98163 21.3308 9.8628 21.8061 9.68455C22.1626 9.56572 22.5191 9.32804 22.8756 9.20921C23.2321 9.09038 23.5886 9.03096 23.9451 8.91213C24.3016 8.7933 24.5987 8.67446 24.9552 8.55563C25.3711 8.4368 25.787 8.31797 26.1435 8.31797C26.9159 8.31797 27.2724 8.67447 27.51 9.44687C27.8071 10.4569 27.4506 11.3482 27.0941 12.2988C26.7971 13.0713 26.4406 13.7842 26.2029 14.5566C25.8464 15.5667 24.8958 16.1015 24.1233 16.8145C23.2915 17.5275 22.2814 18.2404 21.3308 18.6563C21.0337 18.7752 20.6772 18.894 20.3801 19.0128C20.1425 19.1317 19.8454 19.3099 19.6077 19.4288C19.4295 19.5476 19.3106 19.6664 19.1324 19.7853C19.0136 19.9041 18.8353 19.9041 18.6571 20.0229C18.3006 20.2606 17.9441 20.4982 17.5282 20.6765C17.1717 20.8547 16.3993 20.9736 16.1616 20.4982C16.0428 20.2606 16.0428 19.9635 15.9834 19.7258C15.9239 19.4288 15.9239 19.1317 15.9239 18.8346C15.9239 18.5375 15.9834 18.2999 16.0428 18.0028C16.1022 17.7057 16.221 17.468 16.3399 17.1709C16.6369 16.3391 17.1717 15.745 17.647 15.0914C17.9441 14.6755 18.2412 14.2596 18.5977 13.8437C19.1324 13.2495 19.9048 13.0118 20.6178 12.7742C21.2714 12.5959 22.2815 12.4177 22.935 12.7742C23.4698 13.1307 23.1133 13.8437 22.935 14.2596C22.8162 14.4972 22.7568 14.7349 22.6379 14.9726C22.5785 15.1508 22.5785 15.3885 22.4597 15.5667C22.222 15.9232 21.8061 16.1609 21.4496 16.458C21.3308 16.5768 21.0931 16.755 20.9149 16.8145C20.6772 16.8739 20.4396 16.8739 20.2019 16.9333C20.0831 16.9333 20.0236 17.1115 19.9048 17.0521C19.786 16.9927 19.786 16.8739 19.786 16.755C19.786 16.6362 19.8454 16.5174 19.9048 16.3985C19.9048 16.3985 19.9048 16.3391 19.9048 16.2797C20.0236 15.9232 20.4395 15.5073 20.6178 15.2102C20.9149 15.3291 20.7366 15.5073 20.6772 15.6855C20.6178 15.8044 20.6178 15.9232 20.6178 16.042C20.6178 16.1609 20.4396 16.3391 20.5584 16.458C20.6178 16.5174 20.9149 16.3985 20.9743 16.3985C21.6873 16.1609 22.1032 15.3885 22.3409 14.7349C22.4597 14.2596 22.4597 13.5466 21.9844 13.3089C21.6279 13.1901 21.1525 13.2495 20.796 13.2495C19.4295 13.2495 18.5977 14.7349 17.8253 15.6855C17.3499 16.3391 16.934 17.0521 16.6369 17.8245C16.4587 18.3593 16.3398 18.894 16.221 19.4288C16.1022 19.8447 15.9834 20.4388 16.5775 20.3794C16.934 20.32 17.2905 20.1417 17.647 20.0229C17.9441 19.9041 18.1818 19.8447 18.4788 19.6664C18.8947 19.4288 19.4295 19.3693 19.8454 19.1317C20.2019 18.9534 20.5584 18.7752 20.9149 18.5969C21.8061 18.1216 22.7568 17.2304 23.3509 16.458C23.7668 15.9232 24.4204 15.5073 24.8957 15.032C25.4305 14.5567 25.6681 13.9031 26.0246 13.3089C26.3811 12.6553 26.5594 12.0612 26.7376 11.4076C26.8565 10.8134 27.2724 10.1004 27.0347 9.44687C26.8565 8.7933 25.9652 8.7933 25.4305 8.85271C24.9552 8.91213 24.4798 9.03096 24.0045 9.14979C23.1727 9.44687 22.4003 9.80337 21.6279 10.1599C20.3801 10.6946 19.3107 11.5264 18.1818 12.2394C17.5876 12.5959 16.934 12.893 16.3993 13.3089C15.9834 13.606 15.6269 14.0219 15.211 14.319C14.9139 14.5566 14.7356 14.8537 14.3791 15.032C13.9632 15.3291 13.6067 15.6261 13.3096 15.9826C13.072 16.2797 12.7749 16.6956 12.6561 17.0521C12.5372 17.3492 12.6561 17.6463 12.6561 17.9434C12.6561 18.3593 12.5372 18.7752 12.5372 19.1911C12.5372 19.607 12.5372 20.0823 12.5372 20.4982C12.5372 21.3895 12.4184 22.2213 12.4184 23.0531C12.4184 23.5879 12.5372 24.182 12.6561 24.6574C12.7155 25.0733 12.8937 25.4298 12.9531 25.8457C12.9531 26.1427 13.0126 26.4992 13.2502 26.6775C13.3691 26.7369 13.5473 26.7963 13.6661 26.8557C13.785 26.9152 13.9038 26.9746 14.0226 26.9746C14.0821 26.9746 14.1415 27.034 14.2603 27.034C14.3197 27.034 14.3791 27.1528 14.3791 27.1528C14.498 27.2122 14.7356 27.1528 14.8545 27.1528C15.211 27.0934 15.5674 27.034 15.8645 26.9152C16.7558 26.7963 17.5876 26.7963 18.4194 26.4992C19.3701 26.1428 20.2613 25.608 21.1525 25.2515C22.5191 24.6574 24.0639 24.2414 25.3711 23.5285C25.9652 23.2314 26.6188 22.8749 27.213 22.6372C28.6984 21.9836 30.2432 21.4489 31.4909 20.4388C31.9662 20.0823 32.3821 19.607 32.7981 19.1911C33.0357 18.9534 33.2734 18.7158 33.5111 18.4187C34.1646 17.5869 34.7588 16.6956 35.2341 15.8044C35.4718 15.4479 35.5906 14.9726 35.7688 14.6161C36.1253 14.0219 36.4819 13.4872 36.8383 12.893C37.1354 12.2988 37.3137 11.7047 37.4919 11.0511C37.6108 10.6352 37.7296 10.3381 37.6702 9.92221C37.6702 9.09039 37.7296 8.3774 38.0861 7.60499C38.2643 7.18908 38.5614 6.59492 38.3832 6.11959C38.3237 5.88193 37.9673 5.82251 37.789 5.7631C37.3137 5.58485 36.8383 5.46601 36.363 5.28776C35.9471 5.10951 35.65 4.87185 35.1747 4.81244C34.9964 4.75302 34.8182 4.75302 34.6399 4.75302C34.1646 4.75302 33.8081 5.10951 33.3328 5.0501C33.214 5.0501 33.0951 4.99068 32.9169 4.99068C32.6792 4.93126 32.4416 4.99068 32.2039 4.99068C31.6692 4.99068 31.1938 4.87186 30.6591 4.87186C30.0649 4.87186 29.4708 4.93126 28.8766 4.99068C28.2825 5.05009 27.7477 4.99068 27.1535 4.99068C26.797 4.99068 26.5594 5.16893 26.2623 5.28776C25.9652 5.40659 25.6681 5.46601 25.3711 5.58484C25.074 5.70367 24.8363 5.7631 24.5392 5.82252C24.1233 5.82252 23.7668 5.76308 23.3509 5.88192C22.8756 6.00075 22.4003 6.17901 21.9249 6.35725C20.6772 6.892 19.4295 7.60498 18.1223 8.02089C17.4688 8.19914 16.8152 8.31797 16.221 8.55563C15.9834 8.67446 15.8051 8.7933 15.5674 8.97155C15.1515 9.26863 14.7356 9.50629 14.3197 9.74395C13.3691 10.3381 12.4778 10.9917 11.5272 11.7047C10.4577 12.4771 9.44761 13.3089 8.55637 14.319C7.01155 16.1015 5.40732 17.8839 4.04075 19.8447C3.38718 20.7359 2.67419 21.746 2.25828 22.7561V22.8155C2.02061 23.4096 1.90178 24.0038 1.9612 24.6574C1.9612 24.6574 1.9612 24.6574 1.9612 24.7168C2.02061 25.2515 2.25829 25.8457 2.43653 26.321C2.6742 26.7963 2.79302 27.2717 3.09009 27.747C3.38717 28.2223 3.80309 28.6382 3.98133 29.173C4.219 29.8265 4.45667 30.5395 4.69433 31.2525C4.932 32.0843 5.16966 32.9756 5.28849 33.8668C5.40732 34.4016 5.46673 34.9957 5.76381 35.4711C6.12031 36.184 6.89271 36.4217 7.54629 36.8376C7.90278 37.0753 8.08104 37.1347 8.49695 37.1347C9.03169 37.1941 9.62586 37.3129 10.1606 37.4912C11.2895 37.8477 12.4778 38.0854 13.6661 38.0854C14.3791 38.0854 15.0921 37.9071 15.7457 37.7883C16.3993 37.7289 17.0528 37.6694 17.7064 37.5506C18.3006 37.4318 18.8947 37.313 19.4889 37.313C20.0831 37.313 20.7366 37.4318 21.2714 37.5506C22.2814 37.8477 23.2321 38.0259 24.2422 38.0259C24.8957 38.0259 25.4899 37.8477 26.1435 37.8477C26.7376 37.7883 27.2724 37.9071 27.8665 37.9665C28.8766 38.0259 29.8867 37.7883 30.8373 37.4318C31.4909 37.1941 32.0257 36.897 32.6198 36.5405C33.0951 36.2435 33.5705 36.184 34.0458 36.0652C35.0559 35.7681 36.0659 35.4116 37.0166 34.8769C38.2049 34.1639 39.215 33.1538 40.4033 32.4408C41.0569 32.0249 41.8293 31.7279 42.4829 31.3119C43.0176 30.9554 43.5523 30.5395 43.9683 30.0642C44.503 29.5295 44.9783 28.9947 45.5131 28.46C45.929 28.0441 46.1072 27.5093 46.2855 27.034C46.642 26.2616 46.7608 25.4892 46.8796 24.6574C46.9985 23.8255 47.355 23.1125 47.7115 22.3996C48.1868 21.4489 48.5433 20.5577 48.6027 19.4882C48.6621 18.6564 48.781 17.8839 48.781 17.0521C48.781 16.5174 48.7215 16.042 48.6027 15.5073C48.5433 15.032 48.4244 14.5567 48.365 14.0813C48.2462 13.4872 48.2462 12.893 48.1274 12.2988C48.0085 11.8235 47.8897 11.2888 47.7709 10.754C47.652 10.3975 47.5332 10.041 47.4144 9.68455C47.1767 9.09039 46.8202 8.49622 46.4043 7.96147C46.2261 7.72381 45.9884 7.6644 45.8102 7.54557C45.6319 7.42674 45.6319 7.30791 45.4537 7.24849C45.216 7.12966 44.9783 7.01083 44.7407 6.89199C44.3247 6.65433 43.9088 6.59492 43.4929 6.35725C43.1364 6.17901 42.7799 5.88192 42.4234 5.64426C42.0075 5.40659 41.5916 5.22835 41.2351 4.87186C40.8786 4.51536 40.641 4.09945 40.3439 3.80237C39.9874 3.44587 39.5121 3.20821 39.1556 2.91113C38.502 2.37639 37.6702 2.31697 36.9572 2.01989C36.6007 1.84164 36.1848 1.84164 35.8283 1.72281C35.3529 1.60398 35.0559 1.36632 34.5805 1.3069C34.1646 1.24749 33.7487 1.24748 33.2734 1.12865C33.0357 1.06924 32.7981 1.00982 32.501 1.00982C32.0256 0.950406 31.4909 1.00982 31.0156 1.06923C30.5997 1.12865 30.1243 1.06923 29.7084 1.06923C29.3519 1.06923 28.936 1.12865 28.5795 1.06923C27.5101 0.890985 26.3811 0.950406 25.3117 1.00982C24.3016 1.06924 23.2915 1.12865 22.3409 1.48514C21.509 1.78222 20.7366 2.01989 19.9048 2.31697C19.3701 2.55463 18.8947 2.85171 18.36 3.14879C17.1123 3.86178 15.9834 4.69361 14.8545 5.46602C13.5473 6.35725 12.2996 7.3079 11.0518 8.25855C10.22 8.85271 9.38819 9.50629 8.61579 10.1005C8.25929 10.3975 7.90279 10.6946 7.60571 10.9917C8.37812 9.98162 9.26936 9.03097 10.1606 8.13973C15.211 3.20821 22.1626 0.177994 29.7679 0.177994C30.0649 0.177994 30.362 0.177994 30.6591 0.177994C30.9562 0.177994 31.3127 0.177997 31.6097 0.237413C32.501 0.296829 33.3328 0.415661 34.2241 0.534493C34.2241 0.534493 34.224 0.534493 34.2835 0.534493C35.2341 0.772157 36.1848 1.06923 37.1948 1.36631C38.0267 1.60398 38.7991 1.84164 39.5715 2.0793C40.1062 2.25755 40.5815 2.49521 41.1163 2.67346C41.5916 2.85171 42.0669 3.02996 42.4829 3.26762C43.1959 3.68353 43.8494 4.15887 44.4436 4.6342C44.8595 4.93128 45.2754 5.34718 45.6319 5.70368C46.1666 6.23842 46.642 6.83257 47.0579 7.42673C48.0085 8.91213 48.7809 10.5758 49.1374 12.3583C49.4345 13.8437 49.4345 15.3885 49.3751 16.8739C49.3157 17.6463 49.1969 18.5375 49.0186 19.3099C48.8404 20.2012 48.5433 20.9736 48.4244 21.8648C48.365 22.2807 48.4244 22.756 48.365 23.172C48.3056 23.5284 48.1868 23.885 48.1274 24.2414C48.0085 24.9544 47.7709 25.7268 47.4144 26.3804C46.939 27.3311 46.3449 28.1035 45.6319 28.8759C44.8595 29.7671 44.0871 30.6584 43.2553 31.4902C42.4829 32.3814 41.5322 33.0944 40.5221 33.6886C39.7497 34.1639 38.9179 34.7581 38.0861 35.0551C37.2543 35.3522 36.363 35.8275 35.4718 35.9464C34.8182 36.0058 34.2835 36.2435 33.7487 36.6594C33.4516 36.897 33.1546 37.1941 32.8575 37.4912C32.5604 37.7289 32.2633 37.7883 31.9068 37.9071C31.1344 38.1448 30.362 38.0854 29.5302 38.0854C28.3419 38.0854 27.213 38.2042 26.0841 38.323C25.4899 38.3824 24.8957 38.4418 24.361 38.3824C23.8263 38.323 23.2915 38.2042 22.8162 38.1448C22.222 38.0854 21.6873 38.0853 21.0931 37.9665C20.6178 37.9071 20.2613 37.9071 19.8454 37.9665C19.4889 38.0259 19.1324 37.9665 18.7165 37.9665C18.36 38.0259 17.9441 38.0854 17.5876 38.1448C16.1616 38.5013 14.5574 39.2737 12.7749 38.8577Z" fill="#00C4FF"/>
<path fill-rule="evenodd" clip-rule="evenodd" d="M11.4072 51.7511C11.4072 51.7511 18.0024 52.88 20.9732 52.8205C25.4888 52.7017 30.7174 53.2365 34.7577 53.3553C38.798 53.4741 45.8685 50.1468 47.1756 49.5527C48.4828 48.9585 51.5724 47.176 54.3055 44.1458C57.0387 41.1156 58.1081 36.1841 58.1081 36.1841H56.9792C56.9792 36.1841 56.5633 38.3231 54.8997 40.6997C53.8896 42.1257 52.4636 43.3734 50.5029 45.0965C47.6509 47.5325 43.9671 49.4338 40.2239 50.3845C35.233 51.6322 30.8362 51.2757 27.7466 51.7511C23.3498 52.4046 13.4868 50.8598 13.4868 50.8598L11.4072 51.7511Z" fill="url(#paint10_radial_132_285)"/>
<path fill-rule="evenodd" clip-rule="evenodd" d="M9.68555 48.4832C9.68555 48.4832 10.755 51.2163 11.4086 51.751C11.4086 51.751 12.8346 51.8104 13.5476 51.0975L11.5274 49.4932L9.68555 48.4832Z" fill="url(#paint11_radial_132_285)"/>
<path fill-rule="evenodd" clip-rule="evenodd" d="M58.2274 31.0747C58.2274 31.0747 58.9404 34.1643 58.9998 35.8279C58.9998 35.8279 57.8709 36.5409 57.0391 36.1844C57.0391 36.1844 58.0491 32.3818 58.2274 31.0747Z" fill="url(#paint12_radial_132_285)"/>
<path fill-rule="evenodd" clip-rule="evenodd" d="M39.1562 1.66318C39.1562 1.66318 45.0384 2.25734 46.405 3.20799C46.405 3.20799 45.4543 4.27748 44.3254 4.45572C44.3849 4.39631 39.6316 1.78201 39.1562 1.66318Z" fill="#EE8CFF"/>
<path fill-rule="evenodd" clip-rule="evenodd" d="M4.45605 12.5962L6.89211 12.2397L7.84275 10.992C7.84275 10.9326 6.1197 11.705 4.45605 12.5962Z" fill="#FF61C7"/>
<path opacity="0.5" fill-rule="evenodd" clip-rule="evenodd" d="M6.41797 46.7605C6.41797 46.7605 17.8258 50.0878 26.6788 50.266C35.5912 50.4443 38.9185 48.4836 42.7805 46.9387C46.6425 45.4533 52.9406 42.0666 54.8419 39.5118C56.7432 37.0163 58.2287 31.0747 58.2287 31.0747C58.2287 31.0747 56.3868 39.9871 54.8419 41.5319C53.2377 43.0767 46.2266 47.8894 44.9789 48.4836C43.7312 49.0777 40.4039 51.6326 34.284 50.9196C34.284 50.9196 30.1843 51.5138 28.6989 51.3949C27.2135 51.2761 24.8963 52.7615 20.6778 51.3949C20.6778 51.3949 14.7956 51.0979 13.5479 50.8008C12.2407 50.5631 6.41797 46.7605 6.41797 46.7605Z" fill="#54469B"/>
<path fill-rule="evenodd" clip-rule="evenodd" d="M9.20898 34.7583C9.20898 34.7583 18.6561 36.422 25.4889 35.709C32.3218 34.996 36.0056 33.2729 37.9663 32.0252C39.927 30.7775 43.7296 26.6778 45.1556 24.7765C46.5816 22.9346 47.2946 18.2407 47.2946 18.2407C47.2946 18.2407 47.5323 22.7563 46.4034 24.7765C45.215 26.7372 41.2342 30.4804 39.5705 31.5499C37.9069 32.6194 33.213 35.2337 30.777 35.6496C28.3409 36.0655 24.3006 37.3132 21.3298 36.7785C18.4779 36.3031 11.348 36.422 9.20898 34.7583Z" fill="#B04FE2"/>
<path fill-rule="evenodd" clip-rule="evenodd" d="M22.2812 49.9091C22.2812 49.9091 32.0849 49.2555 35.4716 48.4831C38.8583 47.7107 43.3145 45.9283 46.4041 44.7399C49.4937 43.611 51.8704 41.3532 53.5934 40.1055C55.3165 38.8577 57.5149 33.6292 57.5149 33.6292C57.5149 33.6292 56.0889 38.7983 53.9499 40.462C51.811 42.1256 46.2853 45.2153 40.106 48.0078C33.1544 51.0974 27.8069 50.2062 22.2812 49.9091Z" fill="#8B40E0"/>
<path fill-rule="evenodd" clip-rule="evenodd" d="M56.5636 37.5507C56.7419 37.0753 56.8607 36.6 57.039 36.1841C56.5042 38.0854 55.7318 39.8679 54.8406 41.5315C54.6029 41.7692 54.2464 42.0068 54.0087 42.2445C53.7711 42.5416 53.5334 42.7793 53.2957 43.0763C51.9886 44.3241 50.5626 45.453 49.0178 46.4036C47.473 47.4137 45.9282 48.3644 44.2051 49.1368C42.898 49.7309 41.5314 50.2062 40.1648 50.5627C39.0359 50.8598 37.8476 50.9786 36.7187 51.0381C36.1246 51.0975 35.5898 51.1569 34.9957 51.2163C34.2827 51.2757 33.5103 51.2757 32.8567 51.3946C31.6089 51.6322 30.3612 51.8105 29.1135 51.8699C28.044 51.9293 26.9745 52.1076 25.905 52.1076C24.5385 52.1076 23.1719 51.8699 21.8053 51.8699C20.4982 51.8699 19.1316 51.8105 17.8245 51.6916C17.0521 51.6322 16.2796 51.454 15.5072 51.3946C14.8537 51.3351 14.2001 51.1569 13.5465 51.0975C13.0118 50.6816 12.477 50.2657 11.9423 49.8497C11.8235 49.7309 11.6452 49.6121 11.5264 49.4933C12.2988 49.7309 13.0118 49.9686 13.7842 50.2062C14.8537 50.5627 16.042 50.741 17.1115 50.8598C18.0027 50.9787 19.1316 51.0381 20.0228 50.8004C20.9735 50.5627 21.6271 50.8598 22.4589 51.2163C22.8748 51.3946 23.2313 51.454 23.6472 51.5728C24.2414 51.7511 24.6573 51.6916 25.2514 51.6322C25.7862 51.5728 26.3209 51.454 26.7963 51.3946C27.2122 51.2757 27.6875 51.0975 28.1034 51.0381C28.8758 50.9192 29.7076 50.8004 30.48 50.9787C31.3713 51.1569 32.2625 51.2163 33.1538 51.0975C34.1044 50.9192 34.9362 50.8598 35.8869 50.8598C36.184 50.8598 36.4811 50.9192 36.7781 50.9192C37.1346 50.9787 37.4317 50.8598 37.7882 50.8598C38.3824 50.8004 38.9765 50.6816 39.5707 50.5033C40.1054 50.3251 40.6402 50.0874 41.1749 49.9092C42.2444 49.4933 43.1356 49.1368 44.0863 48.4832C44.8587 47.9484 45.7499 47.592 46.5223 47.0572C47.2947 46.5819 47.9483 45.9283 48.7207 45.5124C49.5526 45.0371 50.2655 44.3835 51.038 43.8488C51.5133 43.4923 51.9886 43.0763 52.4639 42.7198C52.8798 42.4228 53.3552 42.1851 53.7711 41.8286C54.4247 41.2344 55.0782 40.6403 55.5536 39.8085C55.9695 39.0955 56.326 38.3231 56.5636 37.5507Z" fill="#00C4FF"/>
<path fill-rule="evenodd" clip-rule="evenodd" d="M26.3809 21.9246C26.3809 21.9246 33.1543 16.3395 36.0062 10.9326C36.0657 10.9326 28.1039 19.0726 26.3809 21.9246Z" fill="#FF77F4"/>
<path fill-rule="evenodd" clip-rule="evenodd" d="M19.252 28.5197C19.252 28.5197 23.5299 28.5197 28.2832 26.559C33.0365 24.5982 35.4131 20.4985 35.4131 20.4985C35.4131 20.4985 32.2046 23.5882 28.6991 25.3112C25.1935 27.0343 22.5792 27.4502 19.252 28.5197Z" fill="#F9C6FF"/>
<path fill-rule="evenodd" clip-rule="evenodd" d="M36.1846 19.548C36.1846 19.548 36.6599 18.3003 37.5511 16.1613C38.4424 14.0223 39.1554 12.834 39.1554 12.834C39.1554 12.834 38.9177 16.1613 36.1846 19.548Z" fill="#EA9CF4"/>
<path fill-rule="evenodd" clip-rule="evenodd" d="M17.7656 39.8679C17.7656 39.8679 23.7072 41.2938 31.4907 39.8679C39.2742 38.4419 39.5713 37.9666 41.7102 36.2435C43.8492 34.5798 45.394 32.4409 46.2258 31.6091C47.0577 30.7772 48.1272 27.9847 48.1272 27.9847C48.1272 27.9847 45.9288 31.9061 42.7797 34.5799C39.6307 37.1942 37.0164 38.5013 31.7284 39.3331C26.4998 40.1055 20.4393 39.9867 17.7656 39.8679Z" fill="#D374F4"/>
<path fill-rule="evenodd" clip-rule="evenodd" d="M22.9941 52.8205C22.9941 52.8205 28.401 53.2959 30.5994 53.7118C32.7978 54.1871 37.0163 54.1277 39.4524 53.2365C41.8884 52.3452 46.6417 49.7903 46.6417 49.7903C46.6417 49.7903 42.1855 52.2858 36.8381 52.88C31.55 53.4147 28.2822 52.5235 22.9941 52.8205Z" fill="#D374F4"/>
<path fill-rule="evenodd" clip-rule="evenodd" d="M48.2461 49.0182C48.2461 49.0182 51.6922 46.701 53.3559 45.2156C53.3559 45.1562 51.5734 47.6516 48.2461 49.0182Z" fill="#D374F4"/>
<path fill-rule="evenodd" clip-rule="evenodd" d="M22.1621 19.6665C22.1621 19.6665 26.0836 16.6957 27.3313 14.6161C28.579 12.4771 28.6979 11.2888 28.6979 11.2888C28.6979 11.2888 29.2326 13.3684 26.9154 15.9827C24.5387 18.597 22.1621 19.6665 22.1621 19.6665Z" fill="#F2C4F8"/>
<path fill-rule="evenodd" clip-rule="evenodd" d="M3.74362 35.1738C3.6842 36.481 4.39719 37.9664 6.71441 38.8576C9.03163 39.7488 10.8141 39.5112 10.8141 39.5112C10.8141 39.5112 8.14039 38.9764 6.65499 37.9664C5.16959 36.8375 3.74362 35.1738 3.74362 35.1738Z" fill="#F5CEFA"/>
<defs>
<radialGradient id="paint0_radial_132_285" cx="0" cy="0" r="1" gradientUnits="userSpaceOnUse" gradientTransform="translate(11.2736 17.7567) scale(45.9989)">
<stop offset="0.00558659" stop-color="#FF9AFF"/>
<stop offset="0.0930098" stop-color="#FB94FF"/>
<stop offset="0.2093" stop-color="#F183FF"/>
<stop offset="0.3418" stop-color="#E068FF"/>
<stop offset="0.4864" stop-color="#C841FF"/>
<stop offset="0.639" stop-color="#A910FF"/>
<stop offset="0.6844" stop-color="#9F00FF"/>
<stop offset="0.7432" stop-color="#9900F8"/>
<stop offset="0.8282" stop-color="#8700E5"/>
<stop offset="0.9287" stop-color="#6A00C6"/>
<stop offset="1" stop-color="#5200AB"/>
</radialGradient>
<radialGradient id="paint1_radial_132_285" cx="0" cy="0" r="1" gradientUnits="userSpaceOnUse" gradientTransform="translate(11.2736 17.7567) scale(45.9989)">
<stop offset="0.00558659" stop-color="#FF9AFF"/>
<stop offset="0.0930098" stop-color="#FB94FF"/>
<stop offset="0.2093" stop-color="#F183FF"/>
<stop offset="0.3418" stop-color="#E068FF"/>
<stop offset="0.4864" stop-color="#C841FF"/>
<stop offset="0.639" stop-color="#A910FF"/>
<stop offset="0.6844" stop-color="#9F00FF"/>
<stop offset="0.7432" stop-color="#9900F8"/>
<stop offset="0.8282" stop-color="#8700E5"/>
<stop offset="0.9287" stop-color="#6A00C6"/>
<stop offset="1" stop-color="#5200AB"/>
</radialGradient>
<radialGradient id="paint2_radial_132_285" cx="0" cy="0" r="1" gradientUnits="userSpaceOnUse" gradientTransform="translate(12.5794 15.0951) scale(45.2164)">
<stop offset="0.00558659" stop-color="#FF9AFF"/>
<stop offset="0.0930098" stop-color="#FB94FF"/>
<stop offset="0.2093" stop-color="#F183FF"/>
<stop offset="0.3418" stop-color="#E068FF"/>
<stop offset="0.4864" stop-color="#C841FF"/>
<stop offset="0.639" stop-color="#A910FF"/>
<stop offset="0.6844" stop-color="#9F00FF"/>
<stop offset="0.7432" stop-color="#9900F8"/>
<stop offset="0.8282" stop-color="#8700E5"/>
<stop offset="0.9287" stop-color="#6A00C6"/>
<stop offset="1" stop-color="#5200AB"/>
</radialGradient>
<radialGradient id="paint3_radial_132_285" cx="0" cy="0" r="1" gradientUnits="userSpaceOnUse" gradientTransform="translate(18.5241 10.3128) scale(10.1106)">
<stop offset="0.630208" stop-color="white"/>
<stop offset="1" stop-color="#EF9AFF"/>
</radialGradient>
<radialGradient id="paint4_radial_132_285" cx="0" cy="0" r="1" gradientUnits="userSpaceOnUse" gradientTransform="translate(20.1326 13.9677) scale(3.51731)">
<stop stop-color="white"/>
<stop offset="1" stop-color="#F7ABFF"/>
</radialGradient>
<radialGradient id="paint5_radial_132_285" cx="0" cy="0" r="1" gradientUnits="userSpaceOnUse" gradientTransform="translate(17.9705 13.6422) scale(3.70637)">
<stop stop-color="white"/>
<stop offset="1" stop-color="#F9D0FD"/>
</radialGradient>
<radialGradient id="paint6_radial_132_285" cx="0" cy="0" r="1" gradientUnits="userSpaceOnUse" gradientTransform="translate(15.3476 10.0726) scale(8.56154)">
<stop stop-color="white"/>
<stop offset="1" stop-color="#F7C2FC"/>
</radialGradient>
<radialGradient id="paint7_radial_132_285" cx="0" cy="0" r="1" gradientUnits="userSpaceOnUse" gradientTransform="translate(11.6895 6.74477) scale(14.5157)">
<stop stop-color="white"/>
<stop offset="1" stop-color="#F5AEFE"/>
</radialGradient>
<radialGradient id="paint8_radial_132_285" cx="0" cy="0" r="1" gradientUnits="userSpaceOnUse" gradientTransform="translate(17.0691 9.04409) scale(20.2258)">
<stop offset="0.744792" stop-color="white"/>
<stop offset="0.9998" stop-color="#E886FF"/>
<stop offset="0.9999" stop-color="#ED8CFF"/>
</radialGradient>
<radialGradient id="paint9_radial_132_285" cx="0" cy="0" r="1" gradientUnits="userSpaceOnUse" gradientTransform="translate(10.7616 9.19258) scale(34.1706)">
<stop offset="0.84375" stop-color="#EEADFE"/>
<stop offset="1" stop-color="#B439EE"/>
</radialGradient>
<radialGradient id="paint10_radial_132_285" cx="0" cy="0" r="1" gradientUnits="userSpaceOnUse" gradientTransform="translate(21.004 38.9525) scale(26.9315)">
<stop offset="0.572917" stop-color="#EEB9FF"/>
<stop offset="1" stop-color="#7801BD"/>
</radialGradient>
<radialGradient id="paint11_radial_132_285" cx="0" cy="0" r="1" gradientUnits="userSpaceOnUse" gradientTransform="translate(10.4002 49.3431) scale(2.90663)">
<stop stop-color="#6D00C2"/>
<stop offset="0.3995" stop-color="#6600BC"/>
<stop offset="0.976" stop-color="#5300AC"/>
<stop offset="1" stop-color="#5200AB"/>
</radialGradient>
<radialGradient id="paint12_radial_132_285" cx="0" cy="0" r="1" gradientUnits="userSpaceOnUse" gradientTransform="translate(57.4085 32.443) scale(3.03596)">
<stop stop-color="#1F0081"/>
<stop offset="0.73" stop-color="#260087"/>
<stop offset="1" stop-color="#2A008B"/>
</radialGradient>
</defs>
</svg>
