<svg width="43" height="44" viewBox="0 0 43 44" fill="none" xmlns="http://www.w3.org/2000/svg">
<path fill-rule="evenodd" clip-rule="evenodd" d="M43 21.5225C43 23.5658 42.7276 25.6091 42.1827 27.4707C41.0929 31.2849 38.9588 34.645 36.1436 37.2786C34.1457 39.1402 31.7392 40.6386 29.1056 41.6376C26.7444 42.5457 24.1563 43.0452 21.4773 43.0452C21.114 43.0452 20.7054 43.0452 20.3421 42.9998C19.7973 42.9544 19.207 42.909 18.6621 42.8636C14.5301 42.3187 10.7159 40.5932 7.67371 38.0051C6.53854 37.0515 5.49419 35.9618 4.54066 34.7812C3.85956 33.8731 3.22386 32.9649 2.67898 31.966C2.54276 31.739 2.40655 31.4665 2.27033 31.2395C2.27033 31.2395 2.27033 31.2395 2.27033 31.1941C2.13411 30.9216 1.99788 30.6946 1.90707 30.4222C1.54381 29.6048 1.22597 28.7421 0.953527 27.8794C0.7719 27.2437 0.590285 26.608 0.454066 25.9723C0.363252 25.5183 0.272439 25.0642 0.227033 24.5647C0.0908131 23.5658 0 22.5668 0 21.5225C0 20.9322 -8.31554e-06 20.3419 0.0908048 19.7516C0.136211 19.3884 0.181626 19.0251 0.227033 18.6619C0.499472 16.5278 1.08975 14.5299 1.95248 12.6682C2.36114 11.7601 2.86061 10.8519 3.40549 10.0346C4.31362 8.62702 5.35797 7.31023 6.58395 6.12966C10.4435 2.36092 15.7561 0.0451813 21.5681 0.0451813C21.7951 0.0451813 22.0222 0.0451813 22.2492 0.0451813C22.4762 0.0451813 22.7487 0.0451806 22.9757 0.0905871C24.2017 0.1814 25.4277 0.363027 26.6082 0.635466C27.2893 0.817092 27.9704 0.998718 28.6061 1.22575C29.0602 1.36197 29.4689 1.5436 29.9229 1.72522C30.2408 1.86144 30.5586 1.99766 30.8765 2.13388C30.9219 2.17929 30.9673 2.17929 31.0581 2.2247C33.1468 3.22364 35.0539 4.58584 36.6885 6.22047C36.9155 6.4475 37.1426 6.67454 37.3696 6.94698C37.5058 7.1286 37.6874 7.26482 37.8237 7.44645C38.0961 7.71889 38.3231 8.03673 38.5502 8.30917C39.4129 9.39893 40.1394 10.5795 40.7751 11.8055C41.5016 13.2585 42.0919 14.8023 42.5005 16.3915C42.773 17.9808 43 19.7062 43 21.5225Z" fill="url(#paint0_radial_132_182)"/>
<path fill-rule="evenodd" clip-rule="evenodd" d="M30.9219 2.1795C30.831 2.1795 30.7856 2.1795 30.6948 2.22491C30.4678 2.27032 30.2408 2.22491 30.0137 2.1795C29.8321 2.1341 29.7413 2.04328 29.5143 2.04328C29.2418 1.99788 29.0148 1.90706 28.7423 1.86166C28.4699 1.81625 28.2429 1.72544 27.9704 1.63462C27.7434 1.54381 27.6526 1.58922 27.471 1.63462C27.2893 1.68003 27.1531 1.58922 26.9715 1.54381C26.7899 1.453 26.5628 1.453 26.3812 1.40759C25.8363 1.31678 25.2915 1.13515 24.7466 0.998932C24.4287 0.908119 24.1109 0.908119 23.7476 0.908119C23.4752 0.908119 23.2481 0.998932 22.9757 0.998932C22.7941 0.998932 22.6579 0.953526 22.4762 0.953526C22.2946 0.90812 22.113 0.953526 21.9314 0.953526C21.6589 0.90812 21.5227 0.862713 21.2503 0.953526C21.0232 0.998933 20.887 0.998931 20.66 1.04434C20.433 1.04434 20.1605 1.13515 19.9335 1.18056C19.5248 1.27137 19.0707 1.36218 18.6621 1.36218C18.3896 1.36218 18.0264 1.27137 17.7994 1.36218C17.6631 1.40759 17.5723 1.58922 17.4361 1.68003C17.2091 1.90706 16.9821 2.08869 16.8004 2.31572C16.6188 2.54276 16.4372 2.81519 16.4372 3.13304C16.4372 3.40548 16.5734 3.72333 16.7096 3.95036C16.8458 4.2228 16.8912 4.44983 16.6188 4.63146C16.3009 4.85849 15.8923 5.04012 15.529 5.17634C15.2566 5.26715 15.0296 5.31255 14.8479 5.13093C14.7571 5.08552 14.7117 4.9493 14.6209 4.85849C14.5301 4.81308 14.3939 4.85849 14.3031 4.90389C14.0306 4.99471 13.7582 5.08552 13.4857 5.13093C13.3041 5.17633 13.1679 5.26715 12.9863 5.26715C12.8046 5.31256 12.6684 5.17633 12.4414 5.22174C12.169 5.26715 11.8511 5.40337 11.5787 5.40337C11.3516 5.40337 11.0792 5.31255 10.8976 5.22174C10.8068 5.17633 10.7614 5.08552 10.6251 5.13093C10.5343 5.13093 10.3981 5.26715 10.3527 5.35796C10.2619 5.44877 10.2619 5.585 10.1711 5.67581C10.0803 5.81203 10.0348 5.90284 9.94403 6.03906C9.80781 6.26609 9.6716 6.49312 9.53538 6.72016C9.44456 6.85638 9.35375 7.08341 9.21753 7.21963C9.17212 7.31044 9.0359 7.35585 8.94508 7.40126C8.71805 7.53748 8.49102 7.7191 8.26398 7.85532C7.85533 8.17317 7.44668 8.53642 7.03802 8.85427C6.72017 9.0813 6.2661 9.21752 5.90285 9.39914C5.67582 9.48996 5.44879 9.58077 5.22175 9.67158C5.13094 9.71699 4.99472 9.71699 4.94931 9.8078C4.8585 9.89862 4.8131 9.98943 4.76769 10.1256C4.58606 10.3527 4.35902 10.6251 4.2228 10.8976C4.13199 11.0792 4.08658 11.2154 3.99577 11.397C3.90496 11.6241 3.76874 11.8511 3.72333 12.1235C3.5417 12.623 3.54171 13.1679 3.31467 13.6674C3.22386 13.9398 3.04224 14.2122 2.90602 14.4847C2.67898 14.9387 2.63357 15.4836 2.58817 15.9831C2.54276 16.2555 2.58817 16.6188 2.63357 16.8912C2.67898 17.2091 2.67898 17.5269 2.67898 17.8448C2.67898 18.1626 2.45195 18.5259 2.27033 18.7529C2.0887 18.9799 1.77085 19.0707 1.54382 19.2978C1.36219 19.4794 1.13516 19.661 1.04435 19.9335C0.998939 20.0243 1.04435 20.1605 1.04435 20.2967C0.998939 20.5692 0.908131 20.7962 0.908131 21.0686C0.862725 21.3865 0.862722 21.7043 0.862722 22.0676C0.862722 22.2492 0.862722 22.3854 0.862722 22.567C0.862722 22.7487 0.90812 22.8849 0.953527 23.0211C0.953527 23.1119 0.953527 23.2481 0.953527 23.339C0.953527 23.4752 1.04435 23.6114 1.04435 23.7022C1.13516 24.0201 1.18056 24.2925 1.22597 24.6103C1.27138 24.8828 1.40759 25.1552 1.453 25.4277C1.58922 25.7909 1.63463 26.1542 1.72544 26.5628C1.77085 26.8353 1.77086 27.1531 1.81626 27.4255C1.86167 27.6526 1.90707 27.8796 1.90707 28.1066C1.90707 28.4699 1.81626 28.7877 1.81626 29.151C1.81626 29.7413 2.04329 30.3316 2.17951 30.9219C2.22492 31.1035 2.27032 31.2397 2.31572 31.4213C0.817307 28.5153 0 25.2006 0 21.7043C0 17.4361 1.22597 13.4857 3.36008 10.1711C4.26821 8.76345 5.31256 7.44666 6.53854 6.3115C10.3981 2.54275 15.7107 0.22702 21.5227 0.22702C21.9768 0.22702 22.4762 0.227021 22.9303 0.272428C25.7455 0.227021 28.4699 0.953525 30.9219 2.1795Z" fill="url(#paint1_linear_132_182)"/>
<path opacity="0.1" fill-rule="evenodd" clip-rule="evenodd" d="M22.8398 31.6028C22.8398 31.6028 24.8377 34.5543 27.5167 36.9608C30.1957 39.3674 30.559 41.002 30.559 41.002C30.559 41.002 35.5991 38.9133 39.1862 33.9186C42.7733 28.9693 22.8398 31.6028 22.8398 31.6028Z" fill="black" fill-opacity="0.5"/>
<path opacity="0.4" fill-rule="evenodd" clip-rule="evenodd" d="M26.473 0.590285C25.2924 0.317846 24.1119 0.136221 22.8405 0.0454076C22.6135 0.0454076 22.341 0 22.114 0C22.6134 0.272439 23.1129 0.771912 23.2037 1.31679C23.3854 2.22492 23.7032 3.04224 23.8394 3.90497C24.0211 4.76769 23.9757 5.85745 23.567 6.62936C23.34 7.12883 23.0221 7.53749 22.6135 7.94615C22.341 8.21859 22.0686 8.40021 21.8869 8.76347C21.7053 9.12672 21.4783 9.44457 21.2513 9.76241C20.9334 10.2619 20.5702 10.7614 20.1615 11.2154C20.0253 11.397 19.8891 11.4879 19.7528 11.6695C19.6166 11.8965 19.5258 12.1236 19.3442 12.3052C18.9355 12.7138 18.3452 12.9863 17.8458 13.1679C17.1647 13.4403 16.5744 13.7128 15.9387 14.076C15.0306 14.5755 14.2586 15.1658 13.2143 15.2112C12.851 15.2112 12.4878 15.1658 12.1245 15.2112C11.6705 15.2566 11.2618 15.4382 10.8532 15.529C10.4899 15.6199 10.0812 15.6653 9.71799 15.7561C9.0823 15.8469 8.58282 16.0739 7.99253 16.2101C7.22062 16.3918 6.40331 16.3464 5.58599 16.4826C4.85949 16.5734 4.2692 16.6642 3.5427 16.4826C2.45294 16.2101 1.86265 15.7107 2.08968 14.5301C2.2259 13.7582 2.18051 13.1679 1.81725 12.623C0.95453 14.4847 0.364236 16.528 0.0917969 18.6167C0.591269 18.8437 1.18155 18.9345 1.68103 18.9799C3.27026 19.1616 4.99571 18.4351 6.44871 17.8902C7.17522 17.6177 7.94713 17.2091 8.76445 17.1183C9.62718 17.0275 10.3537 17.1183 11.2164 16.9366C14.1224 16.2101 16.983 15.2112 19.6166 13.6674C20.7064 13.0317 21.1604 12.1236 21.9324 11.2154C22.568 10.3981 23.34 9.76241 24.1119 9.08131C24.8838 8.40022 25.5649 7.76452 26.0189 6.85639C26.5184 5.90285 26.9271 4.8131 27.1541 3.76874C27.3811 2.58817 27.0633 1.49842 26.473 0.590285ZM26.3368 3.49631C26.2914 3.72334 26.246 3.99578 26.2006 4.22281C26.0189 4.8131 25.6557 5.40338 25.1108 5.67582C24.8838 5.81204 24.5205 5.72123 24.3843 5.49419C24.2935 5.35798 24.2935 5.17635 24.2935 5.04013C24.2481 4.72228 24.2027 4.44984 24.2027 4.132C24.2027 3.40549 24.2027 2.67899 24.1119 1.95248C24.2027 2.36114 24.1119 1.31679 24.7476 1.04435C25.0654 0.908131 25.5195 1.04435 25.7465 1.27138C26.0189 1.58923 26.1098 2.0887 26.2006 2.45195C26.2914 2.86061 26.3822 3.13305 26.3368 3.49631Z" fill="url(#paint2_linear_132_182)" fill-opacity="0.5"/>
<path opacity="0.4" fill-rule="evenodd" clip-rule="evenodd" d="M23.2031 37.8689C23.1577 37.8689 23.0669 37.9143 23.0215 37.9143L23.4301 37.9597C23.4301 37.9143 23.3393 37.8689 23.2031 37.8689ZM23.2031 37.8689C23.1577 37.8689 23.0669 37.9143 23.0215 37.9143L23.4301 37.9597C23.4301 37.9143 23.3393 37.8689 23.2031 37.8689ZM42.3647 16.3008C42.3647 16.8457 42.1831 17.4359 42.1831 17.9808C42.1831 18.7527 42.0468 19.343 41.8652 20.0695C41.729 20.569 41.4565 20.9323 41.3203 21.4317C41.1387 21.9766 40.8663 22.4761 40.5938 22.9755C40.0489 23.9745 39.4587 25.0188 39.2316 26.154C39.0046 27.1984 38.9592 28.0611 38.4597 29.0146C37.9602 29.9227 37.2337 30.6947 36.6889 31.6028C36.4618 32.0115 36.2802 32.0115 35.8715 32.2839C35.4629 32.6017 35.0542 33.0558 34.6456 33.3737C33.7828 34.0548 32.9655 34.5542 31.8758 34.9629C31.1947 35.2353 30.559 35.4169 29.8325 35.5078C29.3784 35.5986 28.9243 35.5078 28.4703 35.5986C27.7438 35.7348 27.0627 35.9164 26.3362 36.1434C25.201 36.5067 24.0204 36.7337 22.8853 37.097C22.0679 37.324 21.296 37.5056 20.4787 37.6419C19.9792 37.7327 19.5706 38.0051 19.0711 37.9143C18.5716 37.8235 18.0722 37.6419 17.5727 37.4602C16.937 37.2786 16.3921 37.2332 15.711 37.2332C14.8029 37.2332 13.7131 37.3694 12.7596 37.1878C11.7152 37.0062 10.7163 36.6883 9.67195 36.5067C9.03626 36.3705 8.58219 36.098 7.9919 35.871C7.44702 35.5986 6.90215 35.5532 6.31187 35.3715C5.72158 35.1899 5.1313 34.9175 4.54102 34.7812C5.44915 35.9618 6.49349 37.0516 7.67407 38.0051C10.7163 40.5933 14.485 42.3187 18.6624 42.8636C19.2073 42.909 19.7522 42.9998 20.3425 42.9998C21.5685 42.7274 22.749 42.3642 23.975 42.0009C26.0183 41.3652 27.7892 40.1392 29.8325 39.5489C30.6044 39.3219 31.2855 39.0949 31.9666 38.7316C32.5115 38.4592 33.0563 38.4138 33.5558 38.1867C35.4629 37.3694 36.8705 35.5532 37.7332 33.7369C38.0965 32.9196 38.4597 32.0115 39.1862 31.3758C39.4587 31.1033 39.8219 30.9217 40.0489 30.6038C40.3214 30.286 40.503 29.9228 40.7754 29.5595C41.2295 28.9692 41.6382 28.3335 42.0468 27.7432C42.0922 27.6524 42.1376 27.607 42.1831 27.5162C42.7279 25.6091 43.0004 23.6112 43.0004 21.5679C43.0004 19.7063 42.7733 17.9808 42.3647 16.3008ZM22.6128 38.0051C22.7036 37.9597 22.7944 37.8689 22.8853 37.8235C22.9761 37.7781 23.1123 37.8235 23.2031 37.8689C23.3847 37.8235 23.5209 37.8235 23.6572 37.9143C23.748 37.9597 23.8842 38.0505 23.9296 38.1413C23.975 38.2322 23.9296 38.2776 23.8388 38.3684C23.748 38.4592 23.7026 38.4592 23.5664 38.4592C23.3393 38.5046 23.1123 38.55 22.8399 38.5046C22.7036 38.5046 22.4766 38.4592 22.3858 38.3684C22.3858 38.1867 22.522 38.0959 22.6128 38.0051ZM24.0204 40.8203C23.8842 41.002 23.748 41.1836 23.5664 41.2744C23.3847 41.4106 23.2031 41.456 23.0669 41.5922C22.6128 41.8193 22.1588 42.0917 21.7047 42.2279C21.5231 42.2733 21.296 42.2733 21.1144 42.2733C20.8874 42.3187 20.6149 42.3187 20.3879 42.3187C20.1155 42.3187 19.7976 42.3641 19.5252 42.4096C19.2527 42.4096 18.9349 42.455 18.6624 42.455C18.163 42.5004 17.7543 42.4096 17.3002 42.2279C16.8916 42.0917 16.4829 41.8647 16.1197 41.6376C15.8472 41.456 15.6202 41.229 15.4386 41.002C15.2116 40.8203 15.0753 40.5933 14.9391 40.3209C14.8937 40.23 14.8483 40.1392 14.8937 40.003C14.8937 39.9576 14.9391 39.9122 14.9391 39.9122C15.0299 39.8668 15.1207 39.776 15.1661 39.776C15.3024 39.6852 15.484 39.6852 15.6656 39.6398C16.0743 39.5944 16.4829 39.6398 16.8916 39.6852C17.1186 39.6852 17.3457 39.7306 17.5727 39.6852C17.8905 39.6398 18.2084 39.5489 18.4808 39.4581C19.2073 39.2765 19.9338 39.0949 20.6603 39.0495C21.3868 38.9587 22.2042 38.8678 22.9307 39.0041C23.2031 39.0495 23.5664 39.1403 23.7934 39.2765C23.975 39.4127 24.1112 39.5943 24.202 39.776C24.3383 40.1392 24.2475 40.5025 24.0204 40.8203ZM29.7417 38.9587C29.6054 39.0949 29.4238 39.1857 29.2422 39.3219C29.0151 39.5035 28.7881 39.5944 28.5611 39.7306C28.3795 39.8668 28.1524 39.9576 27.9708 40.0484C27.7438 40.1392 27.5621 40.23 27.3351 40.3663C27.1081 40.4571 26.881 40.5479 26.654 40.6387C26.4724 40.6841 26.2908 40.7749 26.1091 40.7295C25.9729 40.6841 25.7913 40.6387 25.7005 40.5479C25.5188 40.3663 25.5642 40.1846 25.6097 40.0938C25.6097 39.9576 25.5642 39.7306 25.6097 39.5489C25.6551 39.4581 25.7459 39.3219 25.7913 39.2311C25.9729 38.8678 26.2453 38.6408 26.5178 38.3684C26.7448 38.1413 27.0173 37.9597 27.3351 37.8235C27.6984 37.6873 28.1524 37.6419 28.5157 37.5965C28.9243 37.5511 29.6508 37.5056 29.8779 38.0051C30.0141 38.323 29.9687 38.6408 29.7417 38.9587ZM23.4755 37.9143C23.4301 37.9143 23.3393 37.8689 23.2485 37.8235C23.2031 37.8235 23.1123 37.8689 23.0669 37.8689L23.4755 37.9143Z" fill="url(#paint3_linear_132_182)" fill-opacity="0.5"/>
<path opacity="0.4" fill-rule="evenodd" clip-rule="evenodd" d="M40.6386 11.7148V11.8056C40.5932 12.3959 40.3661 12.8045 40.1391 13.3494C39.9575 13.8035 39.7758 14.1667 39.5488 14.5754C39.1855 15.2565 39.0039 15.8922 38.7315 16.6641C38.2774 17.7993 38.0958 19.0252 37.4147 20.0696C36.8244 21.0231 36.6428 22.1583 36.1887 23.1572C35.6438 24.2924 34.7811 25.0643 33.873 25.8816C33.4643 26.2449 33.1011 26.699 32.7378 27.1076C32.3291 27.5163 32.0567 28.0612 31.5572 28.4244C30.5583 29.1509 29.4231 29.7866 28.4242 30.5585C27.8339 31.0126 27.4252 31.6483 26.7442 32.0115C26.1085 32.4202 25.382 32.6926 24.7463 33.0559C24.156 33.4191 23.5657 33.7824 22.93 34.0548C22.2035 34.3273 21.6132 34.2364 20.8413 34.2819C20.024 34.3273 19.1613 34.5543 18.3893 34.8267C17.7537 35.0538 17.2088 35.2808 16.5277 35.0538C16.0736 34.9175 15.7103 34.5997 15.2563 34.5089C14.1665 34.2819 12.986 34.5089 11.8962 34.4635C11.0335 34.4181 10.1253 34.2364 9.26263 34.0548C8.44531 33.9186 7.76421 33.3283 6.9923 33.1013C5.99335 32.8288 4.85818 33.0559 3.95005 32.6926C3.54139 32.5564 3.17814 32.2386 2.8603 32.0115C2.76949 31.9661 2.72408 31.9207 2.63327 31.8753C2.49705 31.6483 2.36083 31.3758 2.22461 31.1488C2.45164 31.2396 2.67867 31.3304 2.90571 31.4666C4.13168 32.0569 5.67551 31.9661 6.9923 32.1931C8.49071 32.4656 9.98913 32.8288 11.4875 33.0105C12.1232 33.1013 12.7135 33.0559 13.3492 33.0105C14.2119 32.9197 15.0747 32.9197 15.9374 32.7834C17.3904 32.511 18.8434 31.8299 20.3418 32.0115C20.6143 32.0569 20.9321 32.1931 21.2045 32.1931C21.6132 32.1931 21.9311 31.8299 22.2489 31.6029C22.8392 31.2396 23.4749 31.285 24.0198 30.7855C24.5192 30.2861 25.1095 29.9682 25.7452 29.6504C27.3798 28.8331 28.6966 27.4709 30.0134 26.1541C31.1032 25.0643 32.1475 23.9292 32.874 22.6124C33.6005 21.2956 33.4643 19.7063 34.0092 18.3441C34.4179 17.3452 34.7357 16.4371 35.3714 15.5743C35.6892 15.1657 36.0525 14.8024 36.3703 14.3938C36.7336 13.9851 36.9152 13.5311 37.1877 13.0316C37.4601 12.4867 37.8688 12.0326 38.0958 11.4424C38.3228 10.8975 38.2774 10.4434 38.2774 9.85312C38.2774 9.26284 38.2774 8.62715 38.2774 7.99146C39.2309 9.30825 40.0029 10.4888 40.6386 11.7148Z" fill="url(#paint4_linear_132_182)" fill-opacity="0.5"/>
<path opacity="0.4" fill-rule="evenodd" clip-rule="evenodd" d="M37.2334 6.85633C37.0063 6.6293 36.7793 6.35686 36.5523 6.12982C34.9176 4.49519 33.0106 3.1784 30.9219 2.13405C30.8764 2.08864 30.831 2.08864 30.7402 2.04323C30.4224 1.90701 30.1045 1.77079 29.7867 1.63457C29.3326 1.45295 28.924 1.27132 28.4699 1.1351C28.6061 1.22591 28.7878 1.31673 28.8332 1.31673C29.1056 1.45295 29.3326 1.54376 29.5143 1.77079C29.6959 1.99783 29.7867 2.17945 29.7867 2.4973C29.7867 2.76974 29.8321 3.08758 29.8775 3.36002C29.9229 3.63246 30.0591 3.8595 30.1045 4.13193C30.1499 4.26815 30.15 4.40437 30.1954 4.586C30.2862 4.94925 30.4224 5.31251 30.5132 5.67576C30.6494 6.35686 30.2862 6.90174 30.0591 7.49202C29.6959 8.44556 29.4688 9.39909 29.151 10.398C28.924 11.1699 28.5153 11.9419 27.925 12.5321C27.3347 13.077 26.472 13.2132 25.9725 13.8035C25.5185 14.3484 24.9736 14.8479 24.3379 15.1203C23.6114 15.4836 22.7941 15.756 22.0222 15.983C21.4773 16.1647 20.887 16.1647 20.2967 16.3009C19.5702 16.4825 18.9345 16.8458 18.2988 17.1182C17.5723 17.4361 16.9366 17.7993 16.2101 18.1172C15.4836 18.435 14.8479 18.8437 14.1214 19.1161C13.7582 19.2523 13.3949 19.3431 13.0771 19.4339C12.3506 19.7064 11.6695 20.1604 10.8976 20.2513C10.6251 20.2967 10.3527 20.3421 10.0802 20.3421C9.85321 20.3421 9.67159 20.3875 9.48997 20.4329C8.80887 20.7053 8.40021 21.4318 7.6283 21.4772C6.90179 21.4772 6.22069 21.4318 5.53959 21.5226C5.17634 21.568 4.8585 21.5226 4.54066 21.5681C4.44984 21.5681 4.31362 21.6135 4.2228 21.5681C4.13199 21.5226 3.99578 21.4318 3.85956 21.341C3.58712 21.2048 3.36008 21.0232 3.13305 20.8415C2.67898 20.4783 2.0887 20.7053 1.58923 20.5691C1.45301 20.5237 1.22597 20.5691 1.08975 20.4783C0.771909 20.2967 0.363244 19.888 0.0908048 19.661C0.0453982 20.2513 0 20.8415 0 21.4318C0 22.4762 0.0908131 23.4751 0.227033 24.4741C0.272439 24.9281 0.363252 25.3822 0.454066 25.8817C0.590285 26.5174 0.7719 27.1985 0.953527 27.7887C1.22597 28.6515 1.54381 29.5142 1.90707 30.3315C2.49735 30.4223 3.08763 30.5131 3.67792 30.4223C4.54064 30.2861 5.35796 30.1499 6.22069 30.1953C7.03801 30.2407 7.76451 30.5131 8.53643 30.6494C9.39915 30.7856 10.3073 30.9218 11.2154 30.9672C12.0327 31.0126 12.8501 31.1034 13.622 31.1942C14.2123 31.2851 14.8479 31.3759 15.4382 31.4213C17.0275 31.5121 18.5713 31.1034 20.1151 30.9672C20.887 30.8764 21.6589 30.6948 22.4308 30.5131C22.8849 30.4223 23.339 30.2861 23.7476 30.0137C24.2925 29.6504 24.6558 29.1509 25.1098 28.7423C25.6547 28.2882 26.1996 27.8342 26.7445 27.4255C27.1985 27.0622 27.6526 26.6536 28.1521 26.3357C28.5153 26.1087 28.924 25.8363 29.2872 25.5638C29.9683 25.0189 30.5586 24.3833 31.1489 23.7022C31.9662 22.7486 32.2841 21.4318 32.6019 20.2513C32.9197 19.1615 33.1014 18.1172 33.6917 17.1182C33.9641 16.6641 34.1911 16.1193 34.3273 15.5744C34.4182 15.2565 34.4636 14.8479 34.5998 14.53C34.8268 14.0306 35.3263 13.6219 35.5987 13.1678C35.8258 12.8046 36.0982 12.4413 36.2344 11.9873C36.5523 11.1699 36.7793 10.3526 36.9155 9.4445C37.0063 8.80881 37.2334 8.17312 37.415 7.53743C37.4604 7.44661 37.4604 7.31039 37.5058 7.21958C37.5058 7.17417 37.3696 6.99255 37.2334 6.85633ZM9.21752 21.5681C9.26293 21.4772 10.0803 21.1594 10.1711 21.114C10.1711 21.114 10.1711 21.114 10.1257 21.114L9.58077 21.341C10.1711 21.1594 11.2154 21.7497 10.7159 22.3854C10.5797 22.567 10.1711 22.6578 9.94403 22.7032C9.717 22.7486 9.58078 22.6578 9.44456 22.4762C9.30834 22.2946 9.21752 22.0221 9.21752 21.7951C9.21752 21.7497 9.21752 21.6135 9.21752 21.5681ZM2.8152 27.3347C2.17951 27.1531 1.77084 26.926 1.40759 26.3811C1.13515 26.0179 0.953535 25.7 0.862722 25.2914C0.817315 24.9281 0.68109 24.6557 0.771903 24.2924C0.81731 24.02 0.953535 23.7022 1.08975 23.4751C1.22597 23.2027 1.453 22.8848 1.453 22.794C2.08869 22.7486 2.67898 22.7032 3.26926 22.7032C3.95036 22.7032 4.67687 22.794 5.35797 22.794C5.67581 22.794 5.99366 22.794 6.31151 22.7486C6.62935 22.7032 6.90179 22.6124 7.21964 22.567C7.76452 22.4762 8.26399 22.4308 8.76346 22.6578C9.12671 22.8394 9.30834 23.2935 9.48997 23.6568C9.58078 23.8838 9.67159 24.02 9.67159 24.2924C9.67159 24.6103 9.67159 24.8827 9.62618 25.1552C9.62618 25.246 9.58077 25.3822 9.58077 25.473C9.12671 26.4266 7.94615 26.7444 7.03802 27.1077C5.67582 27.6525 4.17739 27.6979 2.8152 27.3347ZM12.4868 29.4234C12.2144 30.1499 11.0338 30.3769 10.3527 30.4223C10.0348 30.4223 9.62619 30.3769 9.30834 30.1953C9.12672 30.1045 8.9905 29.9229 8.85428 29.7412C8.76346 29.605 8.62724 29.378 8.26398 29.4688C8.3548 29.0601 8.44562 28.6969 8.62724 28.3336C8.76346 28.152 8.94508 28.0158 9.12671 27.8342C9.44455 27.5617 9.80781 27.2893 10.1711 27.1077C10.7614 26.7898 11.397 27.0168 11.9419 27.2893C12.3506 27.4709 12.623 27.7433 12.7138 28.152C12.8501 28.6515 12.6684 28.9693 12.4868 29.4234ZM20.4783 29.2872C20.2513 29.7866 19.9335 29.9229 19.4794 30.1953C18.9345 30.4677 18.208 30.6948 17.6177 30.6948C17.2999 30.6948 16.982 30.5585 16.7096 30.4223C16.528 30.3315 16.3009 30.2861 16.1647 30.1499C15.7561 29.7412 15.6652 29.1964 15.9377 29.2872C15.7561 28.9239 15.6653 28.5607 15.6199 28.1974C15.7107 28.152 15.7561 28.0612 15.7561 27.9704C15.9831 27.5617 16.3918 27.1985 16.8458 26.9714C17.5723 26.5628 18.5259 26.472 19.3432 26.8352C19.7064 26.9714 19.9335 27.1531 20.1605 27.4255C20.2967 27.5617 20.4329 27.6525 20.5692 27.8342C20.7054 28.1974 20.6146 28.8785 20.4783 29.2872ZM22.8849 29.1964C22.7487 29.2872 22.5216 29.4688 22.3854 29.4688C22.2492 29.4234 22.0222 29.1964 22.0222 29.0147L21.9314 28.9239C22.113 28.6061 22.2946 28.3336 22.4762 28.0158C22.7487 28.152 23.0211 28.1066 23.2027 28.4244C23.4298 28.7423 23.1119 29.0147 22.8849 29.1964ZM29.0148 14.8933C28.7878 15.2111 28.4699 15.529 28.1067 15.6652C27.6526 15.8468 27.0169 16.0285 26.9715 15.3019C26.9715 14.8933 27.0169 14.5754 27.1985 14.2122C27.471 13.6673 27.698 13.5311 28.2429 13.2587C28.4245 13.2587 28.6515 13.3495 28.7878 13.3949C29.0602 13.4857 29.3326 13.7581 29.378 14.076C29.4234 14.3938 29.1964 14.6663 29.0148 14.8933ZM34.6906 11.851C34.4636 12.5776 34.1457 13.2587 33.8279 13.8943C33.4646 14.7117 33.4192 15.5744 33.1922 16.4371C33.1014 16.9366 32.8289 17.4815 32.3749 17.6631C32.1478 17.7539 31.9662 17.7085 31.7392 17.7085C31.5121 17.7085 31.1489 17.7993 31.1489 17.9809C31.0127 17.6177 30.831 17.1636 30.7402 16.8004C30.6494 16.3917 30.604 15.9376 30.5586 15.4836C30.4678 15.0295 30.4678 14.5754 30.4224 14.1214C30.377 13.7127 30.2862 13.2587 30.2862 12.85C30.2862 11.4424 31.1035 9.67153 32.4203 9.03584C32.8289 8.85421 33.2376 8.7634 33.6917 8.80881C34.1911 8.89962 34.509 9.03584 34.736 9.53532C35.0085 10.2164 34.8722 11.1245 34.6906 11.851Z" fill="url(#paint5_linear_132_182)" fill-opacity="0.5"/>
<path opacity="0.4" fill-rule="evenodd" clip-rule="evenodd" d="M28.4243 13.1677C28.3789 13.2131 28.288 13.2131 28.2426 13.2586C28.1064 13.2586 28.0156 13.2131 27.9248 13.2586L28.4243 13.1677Z" fill="url(#paint6_linear_132_182)" fill-opacity="0.5"/>
<path opacity="0.4" fill-rule="evenodd" clip-rule="evenodd" d="M1.40721 22.7941C1.3618 22.7941 1.31641 22.7941 1.31641 22.7941C1.40722 22.7487 1.40721 22.7487 1.40721 22.7941Z" fill="url(#paint7_linear_132_182)" fill-opacity="0.5"/>
<path opacity="0.3" fill-rule="evenodd" clip-rule="evenodd" d="M9.21752 39.2312C9.21752 39.2312 11.17 39.9577 12.5776 39.5491C12.5776 39.5491 13.1225 34.963 11.397 32.0116C9.67158 29.0601 6.72016 33.51 6.72016 33.51L6.03906 36.3252C6.03906 36.3252 7.6737 38.2777 9.21752 39.2312Z" fill="black" fill-opacity="0.5"/>
<path fill-rule="evenodd" clip-rule="evenodd" d="M4.4502 40.2302C4.4956 40.2756 4.54101 40.321 4.54101 40.4118C4.4502 40.4118 4.4502 40.3664 4.4502 40.2756C4.4502 40.1848 4.49561 40.2302 4.54101 40.1394C4.54101 40.1394 4.541 40.1394 4.58641 40.1394L4.4502 40.2302Z" fill="#0EDBFF"/>
<defs>
<radialGradient id="paint0_radial_132_182" cx="0" cy="0" r="1" gradientUnits="userSpaceOnUse" gradientTransform="translate(8.14929 11.445) scale(34.5551)">
<stop offset="0.00558659" stop-color="#60DBFF"/>
<stop offset="0.0937306" stop-color="#60D5FF"/>
<stop offset="0.211" stop-color="#5FC4FF"/>
<stop offset="0.3446" stop-color="#5DA9FF"/>
<stop offset="0.4903" stop-color="#5A82FF"/>
<stop offset="0.6442" stop-color="#5751FF"/>
<stop offset="0.6844" stop-color="#5643FF"/>
<stop offset="0.7432" stop-color="#563DF8"/>
<stop offset="0.8282" stop-color="#552EE5"/>
<stop offset="0.9287" stop-color="#5315C6"/>
<stop offset="1" stop-color="#5200AB"/>
</radialGradient>
<linearGradient id="paint1_linear_132_182" x1="-0.0400486" y1="15.6052" x2="30.9044" y2="15.6052" gradientUnits="userSpaceOnUse">
<stop offset="0.0111732" stop-color="#81E0FF"/>
<stop offset="0.3224" stop-color="#82DDFF"/>
<stop offset="0.5506" stop-color="#86D4FF"/>
<stop offset="0.7523" stop-color="#8BC4FF"/>
<stop offset="0.9375" stop-color="#94ADFF"/>
<stop offset="1" stop-color="#97A4FF"/>
</linearGradient>
<linearGradient id="paint2_linear_132_182" x1="0.157137" y1="9.51635" x2="27.2107" y2="9.51635" gradientUnits="userSpaceOnUse">
<stop stop-color="#B8C2FF"/>
<stop offset="1" stop-color="#7D72B3"/>
</linearGradient>
<linearGradient id="paint3_linear_132_182" x1="4.54733" y1="29.6534" x2="42.984" y2="29.6534" gradientUnits="userSpaceOnUse">
<stop stop-color="#B8C2FF"/>
<stop offset="1" stop-color="#7D72B3"/>
</linearGradient>
<linearGradient id="paint4_linear_132_182" x1="2.27633" y1="21.7031" x2="40.6358" y2="21.7031" gradientUnits="userSpaceOnUse">
<stop stop-color="#B8C2FF"/>
<stop offset="1" stop-color="#7D72B3"/>
</linearGradient>
<linearGradient id="paint5_linear_132_182" x1="-0.039095" y1="16.3426" x2="37.6665" y2="16.3426" gradientUnits="userSpaceOnUse">
<stop stop-color="#B8C2FF"/>
<stop offset="1" stop-color="#7D72B3"/>
</linearGradient>
<linearGradient id="paint6_linear_132_182" x1="27.8948" y1="13.2344" x2="28.4124" y2="13.2344" gradientUnits="userSpaceOnUse">
<stop stop-color="#E8DDFF"/>
<stop offset="1" stop-color="#AA8AD8"/>
</linearGradient>
<linearGradient id="paint7_linear_132_182" x1="1.3091" y1="22.7989" x2="1.41656" y2="22.7989" gradientUnits="userSpaceOnUse">
<stop stop-color="#E8DDFF"/>
<stop offset="1" stop-color="#AA8AD8"/>
</linearGradient>
</defs>
</svg>
