<svg width="33" height="33" viewBox="0 0 33 33" fill="none" xmlns="http://www.w3.org/2000/svg">
<path d="M20.4875 2.75H12.5125C11.5775 2.75 10.2575 3.30001 9.59749 3.96001L3.96001 9.59752C3.30001 10.2575 2.75 11.5775 2.75 12.5125V20.4875C2.75 21.4225 3.30001 22.7425 3.96001 23.4025L9.59749 29.04C10.2575 29.7 11.5775 30.25 12.5125 30.25H20.4875C21.4225 30.25 22.7425 29.7 23.4025 29.04L29.04 23.4025C29.7 22.7425 30.25 21.4225 30.25 20.4875V12.5125C30.25 11.5775 29.7 10.2575 29.04 9.59752L23.4025 3.96001C22.7425 3.30001 21.4225 2.75 20.4875 2.75Z" stroke="#5200AB" stroke-width="1.5" stroke-linecap="round" stroke-linejoin="round"/>
<path d="M11.6875 21.3125L21.3125 11.6875" stroke="#5200AB" stroke-width="1.5" stroke-linecap="round" stroke-linejoin="round"/>
<path d="M21.3125 21.3125L11.6875 11.6875" stroke="#5200AB" stroke-width="1.5" stroke-linecap="round" stroke-linejoin="round"/>
</svg>
