<svg width="392" height="128" viewBox="0 0 392 128" fill="none" xmlns="http://www.w3.org/2000/svg">
<path d="M10.3153 120H5.81534L14.0085 96.7273H19.2131L27.4176 120H22.9176L16.7017 101.5H16.5199L10.3153 120ZM10.4631 110.875H22.7358V114.261H10.4631V110.875ZM30.3011 126.545V102.545H34.3466V105.432H34.5852C34.7973 105.008 35.0966 104.557 35.483 104.08C35.8693 103.595 36.392 103.182 37.0511 102.841C37.7102 102.492 38.5511 102.318 39.5739 102.318C40.9223 102.318 42.1383 102.663 43.2216 103.352C44.3125 104.034 45.1761 105.045 45.8125 106.386C46.4564 107.72 46.7784 109.356 46.7784 111.295C46.7784 113.212 46.464 114.841 45.8352 116.182C45.2064 117.523 44.3504 118.545 43.267 119.25C42.1837 119.955 40.9564 120.307 39.5852 120.307C38.5852 120.307 37.7557 120.14 37.0966 119.807C36.4375 119.473 35.9072 119.072 35.5057 118.602C35.1117 118.125 34.8049 117.674 34.5852 117.25H34.4148V126.545H30.3011ZM34.3352 111.273C34.3352 112.402 34.4943 113.39 34.8125 114.239C35.1383 115.087 35.6042 115.75 36.2102 116.227C36.8239 116.697 37.5663 116.932 38.4375 116.932C39.3466 116.932 40.108 116.689 40.7216 116.205C41.3352 115.712 41.7973 115.042 42.108 114.193C42.4261 113.337 42.5852 112.364 42.5852 111.273C42.5852 110.189 42.4299 109.227 42.1193 108.386C41.8087 107.545 41.3466 106.886 40.733 106.409C40.1193 105.932 39.3542 105.693 38.4375 105.693C37.5587 105.693 36.8125 105.924 36.1989 106.386C35.5852 106.848 35.1193 107.496 34.8011 108.33C34.4905 109.163 34.3352 110.144 34.3352 111.273ZM50.3011 120V102.545H54.2898V105.455H54.4716C54.7898 104.447 55.3352 103.67 56.108 103.125C56.8883 102.572 57.7784 102.295 58.7784 102.295C59.0057 102.295 59.2595 102.307 59.5398 102.33C59.8277 102.345 60.0663 102.371 60.2557 102.409V106.193C60.0814 106.133 59.8049 106.08 59.4261 106.034C59.0549 105.981 58.6951 105.955 58.3466 105.955C57.5966 105.955 56.9223 106.117 56.3239 106.443C55.733 106.761 55.267 107.205 54.9261 107.773C54.5852 108.341 54.4148 108.996 54.4148 109.739V120H50.3011ZM69.9972 120.341C68.2472 120.341 66.7358 119.977 65.4631 119.25C64.1979 118.515 63.2244 117.477 62.5426 116.136C61.8608 114.788 61.5199 113.201 61.5199 111.375C61.5199 109.58 61.8608 108.004 62.5426 106.648C63.232 105.284 64.1941 104.223 65.429 103.466C66.6638 102.701 68.1146 102.318 69.7812 102.318C70.857 102.318 71.8722 102.492 72.8267 102.841C73.7888 103.182 74.6373 103.712 75.3722 104.432C76.1146 105.152 76.6979 106.068 77.1222 107.182C77.5464 108.288 77.7585 109.606 77.7585 111.136V112.398H63.4517V109.625H73.8153C73.8078 108.837 73.6373 108.136 73.304 107.523C72.9706 106.902 72.5047 106.413 71.9062 106.057C71.3153 105.701 70.6259 105.523 69.8381 105.523C68.9972 105.523 68.2585 105.727 67.6222 106.136C66.9858 106.538 66.4896 107.068 66.1335 107.727C65.785 108.379 65.607 109.095 65.5994 109.875V112.295C65.5994 113.311 65.785 114.182 66.1562 114.909C66.5275 115.629 67.0464 116.182 67.7131 116.568C68.3797 116.947 69.16 117.136 70.054 117.136C70.6525 117.136 71.1941 117.053 71.679 116.886C72.1638 116.712 72.5843 116.458 72.9403 116.125C73.2964 115.792 73.5653 115.379 73.7472 114.886L77.5881 115.318C77.3456 116.333 76.8835 117.22 76.2017 117.977C75.5275 118.727 74.6638 119.311 73.6108 119.727C72.5578 120.136 71.3532 120.341 69.9972 120.341ZM85.3523 109.773V120H81.2386V102.545H85.1705V105.511H85.375C85.7765 104.534 86.4167 103.758 87.2955 103.182C88.1818 102.606 89.2765 102.318 90.5795 102.318C91.7841 102.318 92.8333 102.576 93.7273 103.091C94.6288 103.606 95.3258 104.352 95.8182 105.33C96.3182 106.307 96.5644 107.492 96.5568 108.886V120H92.4432V109.523C92.4432 108.356 92.1402 107.443 91.5341 106.784C90.9356 106.125 90.1061 105.795 89.0455 105.795C88.3258 105.795 87.6856 105.955 87.125 106.273C86.572 106.583 86.1364 107.034 85.8182 107.625C85.5076 108.216 85.3523 108.932 85.3523 109.773ZM107.216 120.307C105.845 120.307 104.617 119.955 103.534 119.25C102.451 118.545 101.595 117.523 100.966 116.182C100.337 114.841 100.023 113.212 100.023 111.295C100.023 109.356 100.341 107.72 100.977 106.386C101.621 105.045 102.489 104.034 103.58 103.352C104.67 102.663 105.886 102.318 107.227 102.318C108.25 102.318 109.091 102.492 109.75 102.841C110.409 103.182 110.932 103.595 111.318 104.08C111.705 104.557 112.004 105.008 112.216 105.432H112.386V96.7273H116.511V120H112.466V117.25H112.216C112.004 117.674 111.697 118.125 111.295 118.602C110.894 119.072 110.364 119.473 109.705 119.807C109.045 120.14 108.216 120.307 107.216 120.307ZM108.364 116.932C109.235 116.932 109.977 116.697 110.591 116.227C111.205 115.75 111.67 115.087 111.989 114.239C112.307 113.39 112.466 112.402 112.466 111.273C112.466 110.144 112.307 109.163 111.989 108.33C111.678 107.496 111.216 106.848 110.602 106.386C109.996 105.924 109.25 105.693 108.364 105.693C107.447 105.693 106.682 105.932 106.068 106.409C105.455 106.886 104.992 107.545 104.682 108.386C104.371 109.227 104.216 110.189 104.216 111.273C104.216 112.364 104.371 113.337 104.682 114.193C105 115.042 105.466 115.712 106.08 116.205C106.701 116.689 107.462 116.932 108.364 116.932ZM128.622 120.341C126.872 120.341 125.361 119.977 124.088 119.25C122.823 118.515 121.849 117.477 121.168 116.136C120.486 114.788 120.145 113.201 120.145 111.375C120.145 109.58 120.486 108.004 121.168 106.648C121.857 105.284 122.819 104.223 124.054 103.466C125.289 102.701 126.74 102.318 128.406 102.318C129.482 102.318 130.497 102.492 131.452 102.841C132.414 103.182 133.262 103.712 133.997 104.432C134.74 105.152 135.323 106.068 135.747 107.182C136.171 108.288 136.384 109.606 136.384 111.136V112.398H122.077V109.625H132.44C132.433 108.837 132.262 108.136 131.929 107.523C131.596 106.902 131.13 106.413 130.531 106.057C129.94 105.701 129.251 105.523 128.463 105.523C127.622 105.523 126.884 105.727 126.247 106.136C125.611 106.538 125.115 107.068 124.759 107.727C124.41 108.379 124.232 109.095 124.224 109.875V112.295C124.224 113.311 124.41 114.182 124.781 114.909C125.152 115.629 125.671 116.182 126.338 116.568C127.005 116.947 127.785 117.136 128.679 117.136C129.277 117.136 129.819 117.053 130.304 116.886C130.789 116.712 131.209 116.458 131.565 116.125C131.921 115.792 132.19 115.379 132.372 114.886L136.213 115.318C135.971 116.333 135.509 117.22 134.827 117.977C134.152 118.727 133.289 119.311 132.236 119.727C131.183 120.136 129.978 120.341 128.622 120.341ZM139.864 120V102.545H143.852V105.455H144.034C144.352 104.447 144.898 103.67 145.67 103.125C146.451 102.572 147.341 102.295 148.341 102.295C148.568 102.295 148.822 102.307 149.102 102.33C149.39 102.345 149.629 102.371 149.818 102.409V106.193C149.644 106.133 149.367 106.08 148.989 106.034C148.617 105.981 148.258 105.955 147.909 105.955C147.159 105.955 146.485 106.117 145.886 106.443C145.295 106.761 144.83 107.205 144.489 107.773C144.148 108.341 143.977 108.996 143.977 109.739V120H139.864ZM169.33 102.545V105.727H159.011V102.545H169.33ZM161.591 120V100.898C161.591 99.7235 161.833 98.7462 162.318 97.9659C162.811 97.1856 163.47 96.6023 164.295 96.2159C165.121 95.8295 166.038 95.6364 167.045 95.6364C167.758 95.6364 168.39 95.6932 168.943 95.8068C169.496 95.9205 169.905 96.0227 170.17 96.1136L169.352 99.2955C169.178 99.2424 168.958 99.1894 168.693 99.1364C168.428 99.0758 168.133 99.0455 167.807 99.0455C167.042 99.0455 166.5 99.2311 166.182 99.6023C165.871 99.9659 165.716 100.489 165.716 101.17V120H161.591ZM176.98 120.352C175.874 120.352 174.878 120.155 173.991 119.761C173.113 119.36 172.416 118.769 171.901 117.989C171.393 117.208 171.139 116.246 171.139 115.102C171.139 114.117 171.321 113.303 171.685 112.659C172.048 112.015 172.545 111.5 173.173 111.114C173.802 110.727 174.51 110.436 175.298 110.239C176.094 110.034 176.916 109.886 177.764 109.795C178.787 109.689 179.616 109.595 180.253 109.511C180.889 109.42 181.351 109.284 181.639 109.102C181.935 108.913 182.082 108.621 182.082 108.227V108.159C182.082 107.303 181.829 106.64 181.321 106.17C180.813 105.701 180.082 105.466 179.128 105.466C178.12 105.466 177.321 105.686 176.73 106.125C176.147 106.564 175.753 107.083 175.548 107.682L171.707 107.136C172.01 106.076 172.51 105.189 173.207 104.477C173.904 103.758 174.757 103.22 175.764 102.864C176.772 102.5 177.885 102.318 179.105 102.318C179.946 102.318 180.783 102.417 181.616 102.614C182.45 102.811 183.211 103.136 183.901 103.591C184.59 104.038 185.143 104.648 185.56 105.42C185.984 106.193 186.196 107.159 186.196 108.318V120H182.241V117.602H182.105C181.855 118.087 181.503 118.542 181.048 118.966C180.601 119.383 180.037 119.72 179.355 119.977C178.681 120.227 177.889 120.352 176.98 120.352ZM178.048 117.33C178.874 117.33 179.59 117.167 180.196 116.841C180.802 116.508 181.268 116.068 181.594 115.523C181.927 114.977 182.094 114.383 182.094 113.739V111.682C181.965 111.788 181.745 111.886 181.435 111.977C181.132 112.068 180.791 112.148 180.412 112.216C180.033 112.284 179.658 112.345 179.287 112.398C178.916 112.451 178.594 112.496 178.321 112.534C177.707 112.617 177.158 112.754 176.673 112.943C176.188 113.133 175.806 113.398 175.526 113.739C175.245 114.072 175.105 114.504 175.105 115.034C175.105 115.792 175.382 116.364 175.935 116.75C176.488 117.136 177.192 117.33 178.048 117.33ZM190.105 120V117.386L199.105 106.102V105.955H190.401V102.545H204.139V105.352L195.571 116.443V116.591H204.435V120H190.105ZM215.528 120.341C213.778 120.341 212.267 119.977 210.994 119.25C209.729 118.515 208.756 117.477 208.074 116.136C207.392 114.788 207.051 113.201 207.051 111.375C207.051 109.58 207.392 108.004 208.074 106.648C208.763 105.284 209.725 104.223 210.96 103.466C212.195 102.701 213.646 102.318 215.312 102.318C216.388 102.318 217.403 102.492 218.358 102.841C219.32 103.182 220.169 103.712 220.903 104.432C221.646 105.152 222.229 106.068 222.653 107.182C223.078 108.288 223.29 109.606 223.29 111.136V112.398H208.983V109.625H219.347C219.339 108.837 219.169 108.136 218.835 107.523C218.502 106.902 218.036 106.413 217.438 106.057C216.847 105.701 216.157 105.523 215.369 105.523C214.528 105.523 213.79 105.727 213.153 106.136C212.517 106.538 212.021 107.068 211.665 107.727C211.316 108.379 211.138 109.095 211.131 109.875V112.295C211.131 113.311 211.316 114.182 211.688 114.909C212.059 115.629 212.578 116.182 213.244 116.568C213.911 116.947 214.691 117.136 215.585 117.136C216.184 117.136 216.725 117.053 217.21 116.886C217.695 116.712 218.116 116.458 218.472 116.125C218.828 115.792 219.097 115.379 219.278 114.886L223.119 115.318C222.877 116.333 222.415 117.22 221.733 117.977C221.059 118.727 220.195 119.311 219.142 119.727C218.089 120.136 216.884 120.341 215.528 120.341ZM230.884 109.773V120H226.77V102.545H230.702V105.511H230.906C231.308 104.534 231.948 103.758 232.827 103.182C233.713 102.606 234.808 102.318 236.111 102.318C237.315 102.318 238.365 102.576 239.259 103.091C240.16 103.606 240.857 104.352 241.349 105.33C241.849 106.307 242.096 107.492 242.088 108.886V120H237.974V109.523C237.974 108.356 237.671 107.443 237.065 106.784C236.467 106.125 235.637 105.795 234.577 105.795C233.857 105.795 233.217 105.955 232.656 106.273C232.103 106.583 231.668 107.034 231.349 107.625C231.039 108.216 230.884 108.932 230.884 109.773ZM252.747 120.307C251.376 120.307 250.149 119.955 249.065 119.25C247.982 118.545 247.126 117.523 246.497 116.182C245.868 114.841 245.554 113.212 245.554 111.295C245.554 109.356 245.872 107.72 246.509 106.386C247.152 105.045 248.02 104.034 249.111 103.352C250.202 102.663 251.418 102.318 252.759 102.318C253.781 102.318 254.622 102.492 255.281 102.841C255.94 103.182 256.463 103.595 256.849 104.08C257.236 104.557 257.535 105.008 257.747 105.432H257.918V96.7273H262.043V120H257.997V117.25H257.747C257.535 117.674 257.228 118.125 256.827 118.602C256.425 119.072 255.895 119.473 255.236 119.807C254.577 120.14 253.747 120.307 252.747 120.307ZM253.895 116.932C254.766 116.932 255.509 116.697 256.122 116.227C256.736 115.75 257.202 115.087 257.52 114.239C257.838 113.39 257.997 112.402 257.997 111.273C257.997 110.144 257.838 109.163 257.52 108.33C257.209 107.496 256.747 106.848 256.134 106.386C255.527 105.924 254.781 105.693 253.895 105.693C252.978 105.693 252.213 105.932 251.599 106.409C250.986 106.886 250.524 107.545 250.213 108.386C249.902 109.227 249.747 110.189 249.747 111.273C249.747 112.364 249.902 113.337 250.213 114.193C250.531 115.042 250.997 115.712 251.611 116.205C252.232 116.689 252.993 116.932 253.895 116.932ZM274.04 120.341C272.335 120.341 270.858 119.966 269.608 119.216C268.358 118.466 267.388 117.417 266.699 116.068C266.017 114.72 265.676 113.144 265.676 111.341C265.676 109.538 266.017 107.958 266.699 106.602C267.388 105.246 268.358 104.193 269.608 103.443C270.858 102.693 272.335 102.318 274.04 102.318C275.744 102.318 277.222 102.693 278.472 103.443C279.722 104.193 280.688 105.246 281.369 106.602C282.059 107.958 282.403 109.538 282.403 111.341C282.403 113.144 282.059 114.72 281.369 116.068C280.688 117.417 279.722 118.466 278.472 119.216C277.222 119.966 275.744 120.341 274.04 120.341ZM274.062 117.045C274.987 117.045 275.759 116.792 276.381 116.284C277.002 115.769 277.464 115.08 277.767 114.216C278.078 113.352 278.233 112.39 278.233 111.33C278.233 110.261 278.078 109.295 277.767 108.432C277.464 107.561 277.002 106.867 276.381 106.352C275.759 105.837 274.987 105.58 274.062 105.58C273.116 105.58 272.328 105.837 271.699 106.352C271.078 106.867 270.612 107.561 270.301 108.432C269.998 109.295 269.847 110.261 269.847 111.33C269.847 112.39 269.998 113.352 270.301 114.216C270.612 115.08 271.078 115.769 271.699 116.284C272.328 116.792 273.116 117.045 274.062 117.045ZM301.446 120.341C299.741 120.341 298.264 119.966 297.014 119.216C295.764 118.466 294.795 117.417 294.105 116.068C293.423 114.72 293.082 113.144 293.082 111.341C293.082 109.538 293.423 107.958 294.105 106.602C294.795 105.246 295.764 104.193 297.014 103.443C298.264 102.693 299.741 102.318 301.446 102.318C303.151 102.318 304.628 102.693 305.878 103.443C307.128 104.193 308.094 105.246 308.776 106.602C309.465 107.958 309.81 109.538 309.81 111.341C309.81 113.144 309.465 114.72 308.776 116.068C308.094 117.417 307.128 118.466 305.878 119.216C304.628 119.966 303.151 120.341 301.446 120.341ZM301.469 117.045C302.393 117.045 303.166 116.792 303.787 116.284C304.408 115.769 304.87 115.08 305.173 114.216C305.484 113.352 305.639 112.39 305.639 111.33C305.639 110.261 305.484 109.295 305.173 108.432C304.87 107.561 304.408 106.867 303.787 106.352C303.166 105.837 302.393 105.58 301.469 105.58C300.522 105.58 299.734 105.837 299.105 106.352C298.484 106.867 298.018 107.561 297.707 108.432C297.404 109.295 297.253 110.261 297.253 111.33C297.253 112.39 297.404 113.352 297.707 114.216C298.018 115.08 298.484 115.769 299.105 116.284C299.734 116.792 300.522 117.045 301.469 117.045ZM321.42 120V96.7273H325.534V105.432H325.705C325.917 105.008 326.216 104.557 326.602 104.08C326.989 103.595 327.511 103.182 328.17 102.841C328.83 102.492 329.67 102.318 330.693 102.318C332.042 102.318 333.258 102.663 334.341 103.352C335.432 104.034 336.295 105.045 336.932 106.386C337.576 107.72 337.898 109.356 337.898 111.295C337.898 113.212 337.583 114.841 336.955 116.182C336.326 117.523 335.47 118.545 334.386 119.25C333.303 119.955 332.076 120.307 330.705 120.307C329.705 120.307 328.875 120.14 328.216 119.807C327.557 119.473 327.027 119.072 326.625 118.602C326.231 118.125 325.924 117.674 325.705 117.25H325.466V120H321.42ZM325.455 111.273C325.455 112.402 325.614 113.39 325.932 114.239C326.258 115.087 326.723 115.75 327.33 116.227C327.943 116.697 328.686 116.932 329.557 116.932C330.466 116.932 331.227 116.689 331.841 116.205C332.455 115.712 332.917 115.042 333.227 114.193C333.545 113.337 333.705 112.364 333.705 111.273C333.705 110.189 333.549 109.227 333.239 108.386C332.928 107.545 332.466 106.886 331.852 106.409C331.239 105.932 330.473 105.693 329.557 105.693C328.678 105.693 327.932 105.924 327.318 106.386C326.705 106.848 326.239 107.496 325.92 108.33C325.61 109.163 325.455 110.144 325.455 111.273ZM349.122 120.341C347.372 120.341 345.861 119.977 344.588 119.25C343.323 118.515 342.349 117.477 341.668 116.136C340.986 114.788 340.645 113.201 340.645 111.375C340.645 109.58 340.986 108.004 341.668 106.648C342.357 105.284 343.319 104.223 344.554 103.466C345.789 102.701 347.24 102.318 348.906 102.318C349.982 102.318 350.997 102.492 351.952 102.841C352.914 103.182 353.762 103.712 354.497 104.432C355.24 105.152 355.823 106.068 356.247 107.182C356.671 108.288 356.884 109.606 356.884 111.136V112.398H342.577V109.625H352.94C352.933 108.837 352.762 108.136 352.429 107.523C352.096 106.902 351.63 106.413 351.031 106.057C350.44 105.701 349.751 105.523 348.963 105.523C348.122 105.523 347.384 105.727 346.747 106.136C346.111 106.538 345.615 107.068 345.259 107.727C344.91 108.379 344.732 109.095 344.724 109.875V112.295C344.724 113.311 344.91 114.182 345.281 114.909C345.652 115.629 346.171 116.182 346.838 116.568C347.505 116.947 348.285 117.136 349.179 117.136C349.777 117.136 350.319 117.053 350.804 116.886C351.289 116.712 351.709 116.458 352.065 116.125C352.421 115.792 352.69 115.379 352.872 114.886L356.713 115.318C356.471 116.333 356.009 117.22 355.327 117.977C354.652 118.727 353.789 119.311 352.736 119.727C351.683 120.136 350.478 120.341 349.122 120.341ZM360.364 120V102.545H364.295V105.511H364.5C364.864 104.511 365.466 103.731 366.307 103.17C367.148 102.602 368.152 102.318 369.318 102.318C370.5 102.318 371.496 102.606 372.307 103.182C373.125 103.75 373.701 104.527 374.034 105.511H374.216C374.602 104.542 375.254 103.769 376.17 103.193C377.095 102.61 378.189 102.318 379.455 102.318C381.061 102.318 382.371 102.826 383.386 103.841C384.402 104.856 384.909 106.337 384.909 108.284V120H380.784V108.92C380.784 107.837 380.496 107.045 379.92 106.545C379.345 106.038 378.64 105.784 377.807 105.784C376.814 105.784 376.038 106.095 375.477 106.716C374.924 107.33 374.648 108.129 374.648 109.114V120H370.614V108.75C370.614 107.848 370.341 107.129 369.795 106.591C369.258 106.053 368.553 105.784 367.682 105.784C367.091 105.784 366.553 105.936 366.068 106.239C365.583 106.534 365.197 106.955 364.909 107.5C364.621 108.038 364.477 108.667 364.477 109.386V120H360.364Z" fill="url(#paint0_linear_132_318)"/>
<path d="M39.8677 52.9493C42.2345 52.9493 44.3252 52.5042 46.1397 51.6139C47.9543 50.7237 49.4927 49.4996 50.755 47.9417L62.944 58.847C60.1827 61.7403 56.8298 64.0029 52.8851 65.635C49.0193 67.2671 44.6802 68.0831 39.8677 68.0831C35.4497 68.0831 31.3866 67.3784 27.6787 65.9688C23.9707 64.5593 20.736 62.5934 17.9748 60.0711C15.2924 57.4746 13.1623 54.433 11.5844 50.9463C10.0854 47.3853 9.33594 43.5277 9.33594 39.3733C9.33594 35.2189 10.0854 31.3984 11.5844 27.9116C13.1623 24.3507 15.2924 21.3091 17.9748 18.7868C20.736 16.1903 23.9707 14.1873 27.6787 12.7778C31.3866 11.3682 35.4497 10.6635 39.8677 10.6635C44.6013 10.6635 48.901 11.4795 52.7668 13.1116C56.6325 14.6695 59.9461 16.858 62.7073 19.677L50.6366 30.6936C49.4532 29.1357 47.9148 27.9116 46.0214 27.0214C44.2068 26.1312 42.1556 25.6861 39.8677 25.6861C35.8441 25.6861 32.57 26.9472 30.0455 29.4695C27.5209 31.9918 26.2586 35.2931 26.2586 39.3733C26.2586 43.4535 27.5209 46.7548 30.0455 49.2771C32.57 51.7252 35.8441 52.9493 39.8677 52.9493Z" fill="url(#paint1_linear_132_318)"/>
<path d="M95.0838 53.0605C98.9431 53.0605 102.083 51.7994 104.505 49.2771C107.002 46.7548 108.251 43.4535 108.251 39.3733C108.251 35.2931 107.002 32.0289 104.505 29.5808C102.083 27.0585 98.9431 25.7973 95.0838 25.7973C91.2246 25.7973 88.0842 27.0585 85.6627 29.5808C83.2412 32.0289 82.0305 35.2931 82.0305 39.3733C82.0305 43.4535 83.2412 46.7548 85.6627 49.2771C88.0842 51.7994 91.2246 53.0605 95.0838 53.0605ZM95.0838 10.6635C99.3214 10.6635 103.219 11.3682 106.775 12.7778C110.407 14.1873 113.51 16.1903 116.083 18.7868C118.731 21.3091 120.774 24.3507 122.212 27.9116C123.726 31.3984 124.482 35.2189 124.482 39.3733C124.482 43.5277 123.726 47.3853 122.212 50.9463C120.774 54.433 118.731 57.4746 116.083 60.0711C113.51 62.5934 110.407 64.5593 106.775 65.9688C103.219 67.3784 99.3214 68.0831 95.0838 68.0831C90.8462 68.0831 86.9491 67.3784 83.3925 65.9688C79.836 64.5593 76.7334 62.5934 74.0849 60.0711C71.5121 57.4746 69.469 54.433 67.9555 50.9463C66.5178 47.3853 65.7989 43.5277 65.7989 39.3733C65.7989 35.2189 66.5178 31.3984 67.9555 27.9116C69.469 24.3507 71.5121 21.3091 74.0849 18.7868C76.7334 16.1903 79.836 14.1873 83.3925 12.7778C86.9491 11.3682 90.8462 10.6635 95.0838 10.6635Z" fill="url(#paint2_linear_132_318)"/>
<path d="M153.967 55.0636C156.747 55.0636 158.755 54.7297 159.991 54.0621C161.226 53.3202 161.844 52.3929 161.844 51.2801C161.844 50.0189 161.072 48.9432 159.527 48.053C157.983 47.0886 155.164 46.1984 151.072 45.3823C144.74 44.1212 139.875 41.9698 136.477 38.9282C133.157 35.8866 131.496 31.9918 131.496 27.244C131.496 24.9442 131.998 22.7928 133.002 20.7898C134.006 18.7868 135.473 17.0434 137.404 15.5597C139.334 14.0018 141.728 12.8149 144.585 11.9988C147.442 11.1086 150.686 10.6635 154.315 10.6635C158.871 10.6635 163.157 11.2199 167.172 12.3327C171.265 13.4454 174.894 14.8921 178.06 16.6725L169.373 28.468C167.365 27.1327 165.048 26.0199 162.423 25.1297C159.875 24.2394 157.249 23.7943 154.547 23.7943C152.384 23.7943 150.763 24.1282 149.682 24.7958C148.601 25.3893 148.06 26.2054 148.06 27.244C148.06 28.2826 148.678 29.2099 149.913 30.0259C151.149 30.7678 153.543 31.5467 157.095 32.3628C161.11 33.253 164.469 34.3287 167.172 35.5898C169.952 36.7768 172.153 38.1492 173.774 39.7071C175.473 41.1909 176.67 42.86 177.365 44.7147C178.06 46.5693 178.408 48.6094 178.408 50.835C178.408 55.9538 176.245 60.1082 171.921 63.2982C167.674 66.4881 161.728 68.0831 154.083 68.0831C151.921 68.0831 149.682 67.8977 147.365 67.5267C145.126 67.23 142.925 66.7849 140.763 66.1914C138.678 65.5237 136.67 64.7819 134.74 63.9658C132.886 63.1498 131.265 62.2225 129.875 61.1839L138.562 49.3884C140.493 51.0204 142.809 52.3929 145.512 53.5057C148.215 54.5443 151.033 55.0636 153.967 55.0636Z" fill="url(#paint3_linear_132_318)"/>
<path d="M270.902 23.3849C270.071 20.9203 268.939 18.7974 267.505 17.0162C264.172 12.7811 259.325 10.6635 252.962 10.6635C249.099 10.6635 245.652 11.5179 242.622 13.2269C239.593 14.8615 237.093 17.1648 235.123 20.1368H234.896C231.639 13.8213 226.147 10.6635 218.421 10.6635C214.937 10.6635 211.831 11.3322 209.104 12.6696C206.378 14.007 204.029 15.9017 202.06 18.3536H201.833L201.378 12.0009H187.289V66.8349H203.537V36.6316C203.537 33.2881 204.332 30.6133 205.923 28.6071C207.514 26.601 209.786 25.5979 212.74 25.5979C215.619 25.5979 217.853 26.5639 219.444 28.4957C221.035 30.3532 221.83 33.0652 221.83 36.6316V66.8349H238.078V36.6316C238.078 33.2881 238.835 30.6133 240.35 28.6071C241.941 26.601 244.251 25.5979 247.281 25.5979C250.159 25.5979 252.394 26.5639 253.984 28.4957C255.575 30.3532 256.37 33.0652 256.37 36.6316V66.8349H272.618V58.3071C271.655 56.8152 270.794 55.2419 270.035 53.5873C268.162 49.197 267.226 44.4407 267.226 39.3186C267.226 34.1965 268.162 29.4859 270.035 25.187C270.31 24.5738 270.599 23.9731 270.902 23.3849Z" fill="url(#paint4_linear_132_318)"/>
<path d="M305.075 53.0606C308.934 53.0606 312.075 51.7994 314.496 49.2771C316.993 46.7548 318.242 43.4535 318.242 39.3733C318.242 35.2931 316.993 32.0289 314.496 29.5808C312.075 27.0585 308.934 25.7974 305.075 25.7974C301.216 25.7974 298.076 27.0585 295.654 29.5808C293.233 32.0289 292.022 35.2931 292.022 39.3733C292.022 43.4535 293.233 46.7548 295.654 49.2771C298.076 51.7994 301.216 53.0606 305.075 53.0606ZM305.075 10.6635C309.313 10.6635 313.21 11.3683 316.766 12.7778C320.399 14.1873 323.501 16.1903 326.074 18.7868C328.723 21.3091 330.766 24.3507 332.203 27.9116C333.717 31.3984 334.474 35.2189 334.474 39.3733C334.474 43.5277 333.717 47.3854 332.203 50.9463C330.766 54.433 328.723 57.4746 326.074 60.0711C323.501 62.5934 320.399 64.5593 316.766 65.9688C313.21 67.3784 309.313 68.0831 305.075 68.0831C300.838 68.0831 296.94 67.3784 293.384 65.9688C289.827 64.5593 286.725 62.5934 284.076 60.0711C281.503 57.4746 279.46 54.433 277.947 50.9463C276.509 47.3854 275.79 43.5277 275.79 39.3733C275.79 35.2189 276.509 31.3984 277.947 27.9116C279.46 24.3507 281.503 21.3091 284.076 18.7868C286.725 16.1903 289.827 14.1873 293.384 12.7778C296.94 11.3683 300.838 10.6635 305.075 10.6635Z" fill="url(#paint5_linear_132_318)"/>
<path d="M334.44 62.4426C335.35 62.9875 336.336 63.4953 337.4 63.9661C339.319 64.7821 341.315 65.524 343.388 66.1916C345.538 66.785 347.726 67.2301 349.953 67.5269C352.257 67.8978 354.483 68.0832 356.633 68.0832C364.234 68.0832 370.146 66.4883 374.369 63.2985C378.669 60.1087 380.819 55.9545 380.819 50.8359C380.819 48.6105 380.473 46.5705 379.782 44.7159C379.091 42.8614 377.901 41.1923 376.212 39.7086C374.6 38.1508 372.411 36.7785 369.647 35.5916C366.96 34.3305 363.62 33.2548 359.627 32.3646C356.096 31.5486 353.715 30.7697 352.487 30.0279C351.258 29.2119 350.644 28.2846 350.644 27.2461C350.644 26.2075 351.182 25.3915 352.257 24.7981C353.331 24.1304 354.944 23.7966 357.094 23.7966C359.781 23.7966 362.392 24.2417 364.925 25.1319C367.536 26.0221 369.839 27.1348 371.836 28.4701L380.473 16.6752C377.325 14.8948 373.717 13.4482 369.647 12.3355C365.655 11.2228 361.393 10.6664 356.863 10.6664C353.255 10.6664 350.03 11.1115 347.189 12.0017C344.348 12.8177 341.968 14.0046 340.048 15.5624C338.697 16.6068 337.574 17.7797 336.68 19.0814C338.011 20.9565 339.144 22.9917 340.081 25.187C342.052 29.4859 343.038 34.1965 343.038 39.3186C343.038 40.1081 343.015 40.889 342.968 41.6611C345.873 43.2997 349.43 44.5405 353.639 45.3836C357.708 46.1996 360.51 47.0897 362.046 48.0541C363.582 48.9443 364.349 50.0199 364.349 51.281C364.349 52.3938 363.735 53.321 362.507 54.0628C361.278 54.7305 359.282 55.0643 356.518 55.0643C353.6 55.0643 350.798 54.545 348.11 53.5065C345.583 52.4599 343.395 51.1837 341.547 49.6778C341.141 51.0117 340.652 52.3149 340.081 53.5874C338.657 56.8564 336.776 59.8082 334.44 62.4426Z" fill="url(#paint6_linear_132_318)"/>
<path d="M39.8677 52.9493C42.2345 52.9493 44.3252 52.5042 46.1397 51.6139C47.9543 50.7237 49.4927 49.4996 50.755 47.9417L62.944 58.847C60.1827 61.7403 56.8298 64.0029 52.8851 65.635C49.0193 67.2671 44.6802 68.0831 39.8677 68.0831C35.4497 68.0831 31.3866 67.3784 27.6787 65.9688C23.9707 64.5593 20.736 62.5934 17.9748 60.0711C15.2924 57.4746 13.1623 54.433 11.5844 50.9463C10.0854 47.3853 9.33594 43.5277 9.33594 39.3733C9.33594 35.2189 10.0854 31.3984 11.5844 27.9116C13.1623 24.3507 15.2924 21.3091 17.9748 18.7868C20.736 16.1903 23.9707 14.1873 27.6787 12.7778C31.3866 11.3682 35.4497 10.6635 39.8677 10.6635C44.6013 10.6635 48.901 11.4795 52.7668 13.1116C56.6325 14.6695 59.9461 16.858 62.7073 19.677L50.6366 30.6936C49.4532 29.1357 47.9148 27.9116 46.0214 27.0214C44.2068 26.1312 42.1556 25.6861 39.8677 25.6861C35.8441 25.6861 32.57 26.9472 30.0455 29.4695C27.5209 31.9918 26.2586 35.2931 26.2586 39.3733C26.2586 43.4535 27.5209 46.7548 30.0455 49.2771C32.57 51.7252 35.8441 52.9493 39.8677 52.9493Z" fill="url(#paint7_linear_132_318)"/>
<path d="M39.8677 52.9493C42.2345 52.9493 44.3252 52.5042 46.1397 51.6139C47.9543 50.7237 49.4927 49.4996 50.755 47.9417L62.944 58.847C60.1827 61.7403 56.8298 64.0029 52.8851 65.635C49.0193 67.2671 44.6802 68.0831 39.8677 68.0831C35.4497 68.0831 31.3866 67.3784 27.6787 65.9688C23.9707 64.5593 20.736 62.5934 17.9748 60.0711C15.2924 57.4746 13.1623 54.433 11.5844 50.9463C10.0854 47.3853 9.33594 43.5277 9.33594 39.3733C9.33594 35.2189 10.0854 31.3984 11.5844 27.9116C13.1623 24.3507 15.2924 21.3091 17.9748 18.7868C20.736 16.1903 23.9707 14.1873 27.6787 12.7778C31.3866 11.3682 35.4497 10.6635 39.8677 10.6635C44.6013 10.6635 48.901 11.4795 52.7668 13.1116C56.6325 14.6695 59.9461 16.858 62.7073 19.677L50.6366 30.6936C49.4532 29.1357 47.9148 27.9116 46.0214 27.0214C44.2068 26.1312 42.1556 25.6861 39.8677 25.6861C35.8441 25.6861 32.57 26.9472 30.0455 29.4695C27.5209 31.9918 26.2586 35.2931 26.2586 39.3733C26.2586 43.4535 27.5209 46.7548 30.0455 49.2771C32.57 51.7252 35.8441 52.9493 39.8677 52.9493Z" fill="url(#paint8_linear_132_318)"/>
<path d="M38.233 2.48308C38.671 2.48005 39.0236 2.12253 39.0206 1.68453C39.0176 1.24653 38.6601 0.893914 38.2221 0.896945L38.233 2.48308ZM21.9408 5.52103L22.2895 6.23336L21.9408 5.52103ZM55.4124 73.606C55.8056 73.4131 55.968 72.9379 55.7751 72.5446C55.5822 72.1514 55.107 71.989 54.7138 72.1819L55.4124 73.606ZM29.304 3.85201L28.5109 3.852L29.304 3.85201ZM26.4507 6.70062L26.4507 7.49371L26.4507 6.70062ZM23.5974 3.85208L22.8043 3.85207L23.5974 3.85208ZM26.4507 1.00346L26.4507 0.210373L26.4507 1.00346ZM29.1301 2.87067L28.3857 3.14428L29.1301 2.87067ZM21.5921 4.8087C16.4135 7.34353 11.8736 11.011 8.30987 15.5386L9.55627 16.5197C12.9725 12.1794 17.3247 8.66351 22.2895 6.23336L21.5921 4.8087ZM8.30987 15.5386C4.74612 20.0663 2.25019 25.3376 1.00769 30.9609L2.55651 31.3031C3.7475 25.9129 6.14 20.8599 9.55627 16.5197L8.30987 15.5386ZM1.00769 30.9609C-0.234811 36.5842 -0.191912 42.4147 1.1332 48.0191L2.67681 47.6541C1.40664 42.282 1.36552 36.6933 2.55651 31.3031L1.00769 30.9609ZM1.1332 48.0191C2.45831 53.6235 5.03153 58.8575 8.66152 63.3322L9.89334 62.3329C6.41358 58.0434 3.94699 53.0262 2.67681 47.6541L1.1332 48.0191ZM8.66152 63.3322C12.2915 67.8069 16.8849 71.4072 22.1002 73.8656L22.7765 72.4308C17.7766 70.074 13.3731 66.6225 9.89334 62.3329L8.66152 63.3322ZM22.1002 73.8656C27.3155 76.324 33.0187 77.5772 38.7859 77.5323L38.7735 75.9461C33.2443 75.9892 27.7765 74.7877 22.7765 72.4308L22.1002 73.8656ZM38.7859 77.5323C44.5531 77.4873 50.236 76.1453 55.4124 73.606L54.7138 72.1819C49.7512 74.6164 44.3028 75.9031 38.7735 75.9461L38.7859 77.5323ZM28.5109 3.852C28.5109 4.98599 27.5897 5.90752 26.4506 5.90753L26.4507 7.49371C28.4633 7.49368 30.097 5.86448 30.097 3.85202L28.5109 3.852ZM24.3905 3.85208C24.3905 2.71809 25.3117 1.79656 26.4507 1.79655L26.4507 0.210373C24.4381 0.210396 22.8043 1.83961 22.8043 3.85207L24.3905 3.85208ZM38.2221 0.896945C35.0782 0.918696 31.959 1.3259 28.933 2.10248L29.3273 3.63887C32.2284 2.89435 35.2189 2.50394 38.233 2.48308L38.2221 0.896945ZM26.4507 1.79655C27.3387 1.79654 28.0964 2.3572 28.3857 3.14428L29.8745 2.59706C29.3628 1.20469 28.0235 0.210355 26.4507 0.210373L26.4507 1.79655ZM28.3857 3.14428C28.4665 3.36389 28.5109 3.60189 28.5109 3.852L30.097 3.85202C30.0971 3.41242 30.0187 2.98932 29.8745 2.59706L28.3857 3.14428ZM23.4161 3.9742C22.8017 4.23611 22.1935 4.51433 21.5921 4.8087L22.2895 6.23336C22.866 5.95115 23.4491 5.68442 24.0381 5.43332L23.4161 3.9742ZM26.4506 5.90753C25.5277 5.90754 24.7457 5.30175 24.4839 4.46657L22.9703 4.94095C23.4339 6.42014 24.8163 7.49373 26.4507 7.49371L26.4506 5.90753ZM24.4839 4.46657C24.4234 4.27351 24.3905 4.06737 24.3905 3.85208L22.8043 3.85207C22.8043 4.23013 22.8623 4.59615 22.9703 4.94095L24.4839 4.46657Z" fill="#65BAFA"/>
<defs>
<linearGradient id="paint0_linear_132_318" x1="108.209" y1="108" x2="285.679" y2="108" gradientUnits="userSpaceOnUse">
<stop stop-color="#508ED9"/>
<stop offset="1" stop-color="#9D63F5"/>
</linearGradient>
<linearGradient id="paint1_linear_132_318" x1="353.503" y1="39.2003" x2="9.3971" y2="39.2004" gradientUnits="userSpaceOnUse">
<stop stop-color="#9D37F2"/>
<stop offset="1" stop-color="#65BAFA"/>
</linearGradient>
<linearGradient id="paint2_linear_132_318" x1="353.503" y1="39.2003" x2="9.3971" y2="39.2004" gradientUnits="userSpaceOnUse">
<stop stop-color="#9D37F2"/>
<stop offset="1" stop-color="#65BAFA"/>
</linearGradient>
<linearGradient id="paint3_linear_132_318" x1="353.503" y1="39.2003" x2="9.3971" y2="39.2004" gradientUnits="userSpaceOnUse">
<stop stop-color="#9D37F2"/>
<stop offset="1" stop-color="#65BAFA"/>
</linearGradient>
<linearGradient id="paint4_linear_132_318" x1="353.503" y1="39.2003" x2="9.3971" y2="39.2004" gradientUnits="userSpaceOnUse">
<stop stop-color="#9D37F2"/>
<stop offset="1" stop-color="#65BAFA"/>
</linearGradient>
<linearGradient id="paint5_linear_132_318" x1="353.503" y1="39.2003" x2="9.3971" y2="39.2004" gradientUnits="userSpaceOnUse">
<stop stop-color="#9D37F2"/>
<stop offset="1" stop-color="#65BAFA"/>
</linearGradient>
<linearGradient id="paint6_linear_132_318" x1="353.503" y1="39.2003" x2="9.3971" y2="39.2004" gradientUnits="userSpaceOnUse">
<stop stop-color="#9D37F2"/>
<stop offset="1" stop-color="#65BAFA"/>
</linearGradient>
<linearGradient id="paint7_linear_132_318" x1="353.503" y1="39.2003" x2="9.3971" y2="39.2004" gradientUnits="userSpaceOnUse">
<stop stop-color="#9D37F2"/>
<stop offset="1" stop-color="#65BAFA"/>
</linearGradient>
<linearGradient id="paint8_linear_132_318" x1="353.503" y1="39.2003" x2="9.3971" y2="39.2004" gradientUnits="userSpaceOnUse">
<stop stop-color="#9D37F2"/>
<stop offset="1" stop-color="#65BAFA"/>
</linearGradient>
</defs>
</svg>
